<?xml version="1.0" encoding="utf-8"?>
<!-- Generator: Adobe Illustrator 27.3.1, SVG Export Plug-In . SVG Version: 6.00 Build 0)  -->
<svg version="1.1" id="Icon" transform="rotate(180)"
	 xmlns="http://www.w3.org/2000/svg" xmlns:xlink="http://www.w3.org/1999/xlink" x="0px" y="0px" viewBox="0 0 800 800"
	 style="enable-background:new 0 0 800 800;" xml:space="preserve">
<style type="text/css">
	.st0{fill:#2ECC71;}
	.st1{opacity:0.1;}
	.st2{opacity:0.3;fill:#FFFFFF;enable-background:new    ;}
	.st3{display:none;}
	.st4{display:inline;opacity:0.3;}
	.st5{display:inline;fill:#FFFFFF;}
	.st6{display:inline;opacity:0.2;}
	.st7{fill:#FFFFFF;}
	.st8{fill:#535D5E;}
	.st9{display:none;opacity:0.3;}
	.st10{display:inline;fill:#8E44AD;}
	.st11{display:inline;fill:#9B59B6;}
	.st12{display:inline;fill:#ECF0F1;}
	.st13{display:inline;fill:#7F8C8D;}
	.st14{opacity:0.2;}
	.st15{display:inline;}
</style>
<g id="Circle_backround">
	<circle id="Bg" class="st0" cx="400" cy="400" r="400"/>
	<g id="Inner_Shadow" class="st1">
		<path d="M400,0C240.8,0,103.3,93,38.9,227.7C100.1,104.6,227.2,20,374,20c206.6,0,374,167.4,374,374S580.6,768,374,768
			C168.4,768,1.6,602.2,0,397c0,1,0,2,0,3c0,220.9,179.1,400,400,400s400-179.1,400-400S620.9,0,400,0z"/>
	</g>
	<path id="inner_glow" class="st2" d="M130,165.6c28.1-44.4,88.1-81.2,150.6-92.5c15.6-2.5,31.2-3.8,44.4,1.2
		c10,3.8,18.1,13.1,12.5,23.8c-4.4,8.7-16.2,12.5-25.6,15.6c-58.1,18.8-111.9,40-144.4,89.4c-12.5,18.8-30.6,90-53.8,76.9
		C89.4,265.6,94.4,220.6,130,165.6L130,165.6z"/>
</g>
<g id="Up" class="st3">
	<path class="st4" d="M557.1,490.8L427.9,267.1c-4.5-7.9-12.7-12.6-21.8-12.6s-17.2,4.7-21.8,12.6L255.2,490.8
		c-4.5,7.9-4.5,17.3,0,25.1c4.5,7.9,12.7,12.6,21.8,12.6h258.3c9.1,0,17.2-4.7,21.8-12.6C561.6,508.1,561.6,498.7,557.1,490.8z"/>
	<path class="st5" d="M557.1,460.8L427.9,237.1c-4.5-7.9-12.7-12.6-21.8-12.6s-17.2,4.7-21.8,12.6L255.2,460.8
		c-4.5,7.9-4.5,17.3,0,25.1c4.5,7.9,12.7,12.6,21.8,12.6h258.3c9.1,0,17.2-4.7,21.8-12.6C561.6,478.1,561.6,468.7,557.1,460.8z"/>
</g>
<g id="Down_00000101787089191968061600000003967718296968024973_" class="st3">
	<path class="st4" d="M255.2,342.2L375,549.7c8.4,12.9,22.1,18.6,31.2,18.6s21.7-3.8,29.5-18.6l121.4-207.4c4.5-7.9,4.5-17.3,0-25.1
		c-4.5-7.9-12.7-12.6-21.8-12.6H277c-9.1,0-17.2,4.7-21.8,12.6C250.7,325,250.7,334.4,255.2,342.2z"/>
	<path class="st5" d="M255.2,302.2L384.4,526c4.5,7.9,12.7,12.6,21.8,12.6s17.2-4.7,21.8-12.6l129.2-223.7c4.5-7.9,4.5-17.3,0-25.1
		c-4.5-7.9-12.7-12.6-21.8-12.6H277c-9.1,0-17.2,4.7-21.8,12.6C250.7,285,250.7,294.4,255.2,302.2z"/>
</g>
<g id="Abort" class="st3">
	<path id="X_Shadow" class="st4" d="M289.3,232.9c-28.6,5.4-70.8,54.3-52.2,72.9l114.3,114.3L237.1,534.4
		c-22.9,22.9,45.7,91.4,68.6,68.6L420,488.7l114.3,114.3c22.9,22.9,91.4-45.7,68.6-68.6L488.6,420.1L603,305.8
		c22.9-22.9-45.7-91.4-68.6-68.5L420,351.6L305.7,237.3C301.4,233,295.9,231.7,289.3,232.9L289.3,232.9L289.3,232.9z"/>
	<path id="X" class="st5" d="M269.3,212.9c-28.6,5.4-70.8,54.3-52.2,72.9l114.3,114.3L217.1,514.4c-22.9,22.9,45.7,91.4,68.6,68.6
		L400,468.7l114.3,114.3c22.9,22.9,91.4-45.7,68.6-68.6L468.6,400.1L583,285.8c22.9-22.9-45.7-91.4-68.6-68.5L400,331.6L285.7,217.3
		C281.4,213,275.9,211.7,269.3,212.9L269.3,212.9L269.3,212.9z"/>
</g>
<g id="Up-Down" class="st3">
	<path class="st4" d="M255.2,487.1c4.5-7.9,12.7-12.6,21.8-12.6h258.3c9.1,0,17.2,4.7,21.8,12.6c4.5,7.9,4.5,17.2,0,25.1
		L434.8,695.6c-7.4,12.2-19.6,16.8-28.7,16.8s-22-5.2-28.7-16.8L255.2,512.2C250.7,504.4,250.7,495,255.2,487.1z M557.1,350.8
		L427.9,157.1c-4.5-7.9-12.7-12.6-21.8-12.6s-17.2,4.7-21.8,12.6L255.2,350.8c-4.5,7.9-4.5,17.3,0,25.1c4.5,7.9,12.7,12.6,21.8,12.6
		h258.3c9.1,0,17.2-4.7,21.8-12.6C561.6,368.1,561.6,358.7,557.1,350.8z"/>
	<path class="st5" d="M255.2,447.1c4.5-7.9,12.7-12.6,21.8-12.6h258.3c9.1,0,17.2,4.7,21.8,12.6c4.5,7.9,4.5,17.2,0,25.1L427.9,666
		c-4.5,7.9-12.7,12.6-21.8,12.6s-17.2-4.7-21.8-12.6L255.2,472.2C250.7,464.4,250.7,455,255.2,447.1z M557.1,320.8L427.9,127.1
		c-4.5-7.9-12.7-12.6-21.8-12.6s-17.2,4.7-21.8,12.6L255.2,320.8c-4.5,7.9-4.5,17.3,0,25.1c4.5,7.9,12.7,12.6,21.8,12.6h258.3
		c9.1,0,17.2-4.7,21.8-12.6C561.6,338.1,561.6,328.7,557.1,320.8z"/>
</g>
<g id="Asterisk_00000026859313983584368400000008182079375267717535_" class="st3">
	<path id="Asterisk" class="st6" d="M400,169.8c22.7,0,41.1,18.4,41.1,41.1v148l128.1-74c19.7-11.3,44.8-4.6,56.1,15
		s4.6,44.8-15,56.1l-128.1,74l128.1,74c19.7,11.3,26.4,36.5,15,56.1c-11.3,19.7-36.5,26.4-56.1,15l-128.1-74v148
		c0,22.7-18.4,41.1-41.1,41.1s-41.1-18.4-41.1-41.1v-148l-128.1,74c-19.7,11.3-44.8,4.6-56.1-15c-11.3-19.7-4.6-44.8,15-56.1
		l128.1-74l-128.1-74c-19.7-11.3-26.4-36.5-15-56.1c11.3-19.7,36.5-26.4,56.1-15l128.1,74v-148C358.9,188.2,377.3,169.8,400,169.8z"
		/>
	<path id="Asterisk_00000106858556682125913490000005869815675947606913_" class="st5" d="M400,139.8c22.7,0,41.1,18.4,41.1,41.1
		v148l128.1-74c19.7-11.3,44.8-4.6,56.1,15s4.6,44.8-15,56.1l-128.1,74l128.1,74c19.7,11.3,26.4,36.5,15,56.1
		c-11.3,19.7-36.5,26.4-56.1,15l-128.1-74v148c0,22.7-18.4,41.1-41.1,41.1s-41.1-18.4-41.1-41.1v-148l-128.1,74
		c-19.7,11.3-44.8,4.6-56.1-15c-11.3-19.7-4.6-44.8,15-56.1l128.1-74l-128.1-74c-19.7-11.3-26.4-36.5-15-56.1
		c11.3-19.7,36.5-26.4,56.1-15l128.1,74v-148C358.9,158.2,377.3,139.8,400,139.8z"/>
</g>
<g id="Add_00000145034786321304878740000008871372919382728595_" class="st3">
	<path id="Add_Shadow" class="st4" d="M661.5,416.6c0,24-19.4,43.4-43.4,43.4H443.4v174.8c-1.1,23.9-21.3,42.5-45.2,41.4
		c-22.5-1-40.4-19-41.4-41.4V460H181.8c-23.9,0.7-44-18.1-44.7-42c-0.7-23.9,18.1-44,42-44.7c0.9,0,1.8,0,2.7,0h174.9V198.5
		c1.1-23.9,21.3-42.5,45.2-41.4c22.5,1,40.4,19,41.4,41.4v174.8h174.9C642.1,373.3,661.5,392.7,661.5,416.6L661.5,416.6z"/>
	<path id="Add" class="st5" d="M661.5,386.6c0,24-19.4,43.4-43.4,43.4H443.4v174.8c-1.1,23.9-21.3,42.5-45.2,41.4
		c-22.5-1-40.4-19-41.4-41.4V430H181.8c-23.9,0.7-44-18.1-44.7-42c-0.7-23.9,18.1-44,42-44.7c0.9,0,1.8,0,2.7,0h174.9V168.5
		c1.1-23.9,21.3-42.5,45.2-41.4c22.5,1,40.4,19,41.4,41.4v174.8h174.9C642.1,343.3,661.5,362.7,661.5,386.6L661.5,386.6z"/>
</g>
<g id="Upp" class="st3">
	<path id="Up_00000157282047139280432480000005871870775694294964_" class="st6" d="M497.9,434.6v195.8c0,27-21.9,49-49,49H351
		c-27,0-49-21.9-49-49V434.6h-40.1c-27,0-49-21.9-49-49c0-11.7,4.2-23,11.8-31.8l138.1-160.1c17.6-20.5,48.5-23,69-5.4
		c1.9,1.7,3.7,3.5,5.4,5.4l138.1,160.1c17.6,20.5,15.2,51.5-5.4,69c-8.9,7.6-20.2,11.8-31.8,11.8H497.9z"/>
	<path id="Up_00000151539019108703663510000018249015995307217809_" class="st5" d="M497.9,404.6v195.8c0,27-21.9,49-49,49H351
		c-27,0-49-21.9-49-49V404.6h-40.1c-27,0-49-21.9-49-49c0-11.7,4.2-23,11.8-31.8l138.1-160.1c17.6-20.5,48.5-23,69-5.4
		c1.9,1.7,3.7,3.5,5.4,5.4l138.1,160.1c17.6,20.5,15.2,51.5-5.4,69c-8.9,7.6-20.2,11.8-31.8,11.8H497.9z"/>
</g>
<g id="Downn" class="st3">
	<path id="Down_SHadow" class="st6" d="M298,420.5V216.6c0-28.2,22.8-51,51-51h102c28.2,0,51,22.8,51,51v203.9h41.8
		c28.2,0,51,22.8,51,51c0,12.2-4.3,23.9-12.2,33.1L438.7,671.4c-18.3,21.4-50.5,23.9-71.9,5.6c-2-1.7-3.9-3.6-5.6-5.6L217.5,504.7
		c-18.3-21.4-15.8-53.6,5.6-71.9c9.2-7.9,21-12.2,33.1-12.2H298z"/>
	<path id="Down_00000005980195988614550710000008295961126579917458_" class="st5" d="M298,390.5V186.6c0-28.2,22.8-51,51-51h102
		c28.2,0,51,22.8,51,51v203.9h41.8c28.2,0,51,22.8,51,51c0,12.2-4.3,23.9-12.2,33.1L438.7,641.4c-18.3,21.4-50.5,23.9-71.9,5.6
		c-2-1.7-3.9-3.6-5.6-5.6L217.5,474.7c-18.3-21.4-15.8-53.6,5.6-71.9c9.2-7.9,21-12.2,33.1-12.2H298z"/>
</g>
<g id="Not_active">
	<circle id="Bg_00000031184129448985273470000016268095074856869810_" class="st1" cx="400" cy="430" r="201.4"/>
	<circle id="Bg_00000094613039918931972990000016062853542929472923_" class="st7" cx="400" cy="400" r="171.4"/>
	<path class="st8" d="M400,228.6c106.2,0,193.2,82.2,200.9,186.4c0.4-5,0.6-10,0.6-15c0-111.2-90.2-201.4-201.4-201.4
		S198.6,288.8,198.6,400c0,5,0.2,10,0.6,15C206.8,310.8,293.8,228.6,400,228.6z"/>
</g>
<g class="st9">
	<path class="st4" d="M400,601.4c-106.2,0-193.2-82.2-200.9-186.4c-0.4,5-0.6,10-0.6,15c0,111.2,90.2,201.4,201.4,201.4
		S601.4,541.2,601.4,430c0-5-0.2-10-0.6-15C593.2,519.2,506.2,601.4,400,601.4z"/>
	<path class="st5" d="M400,601.4c106.2,0,193.2-82.2,200.9-186.4c-7.7-104.2-94.7-186.4-200.9-186.4S206.8,310.8,199.1,415
		C206.8,519.2,293.8,601.4,400,601.4z"/>
</g>
<g id="Tag" transform="translate(0 -1028.4)" class="st3">
	<path class="st10" d="M89.2,1063.6c-38.2,0-69.2,31.1-69.2,69.2v245.7v3.5c0.6,17.3,8.5,34.6,20.5,48.5l379.6,377.2
		c12.6,13.8,30.1,20.8,49.8,20.8c19.6,0,37.1-6.9,49.8-20.8l244.4-242.3c14.1-13.8,22.7-31.1,22.7-51.9c0-20.8-8.6-41.5-22.7-51.9
		l-377.4-377.2c-12.3-13.8-30-20.8-48.7-20.8h-1.1H89.2L89.2,1063.6z M193,1167.4c38.2,0,69.2,31.1,69.2,69.2
		c0,38.1-31,69.2-69.2,69.2s-69.2-31.1-69.2-69.2C123.8,1198.5,154.8,1167.4,193,1167.4z"/>
	<path class="st11" d="M89.2,1029c-38.2,0-69.2,31-69.2,69.2v247.7v2.2c0.6,18.2,8.5,35.5,20.5,47.6l379.6,379.6
		c12.6,13.2,30.1,20.6,49.8,20.6c19.6,0,37.1-7.4,49.8-20.6l244.4-244.4c14.1-12.7,22.7-31.5,22.7-51.9s-8.6-39.2-22.7-51.9
		l-377.4-377.4c-12.3-12.3-30-20.3-48.7-20.6h-1.1H89.2L89.2,1029z M193,1132.8c38.2,0,69.2,31,69.2,69.2s-31,69.2-69.2,69.2
		s-69.2-31-69.2-69.2S154.8,1132.8,193,1132.8z"/>
	<path class="st10" d="M469.9,1755.7l242.3-242.3l-276.9-276.9L193,1478.9L469.9,1755.7z"/>
	<path class="st12" d="M469.9,1721.1l242.3-242.3L435.3,1202L193,1444.2L469.9,1721.1z"/>
	<path class="st13" d="M435.3,1305.8l-121.1,121.1l-17.3,17.3l17.3,17.3l138.4-138.4L435.3,1305.8z M504.5,1375l-121.1,121.1
		l-17.3,17.3l17.3,17.3l138.4-138.4L504.5,1375z M573.7,1444.2l-121.1,121.1l-17.3,17.3l17.3,17.3L591,1461.6L573.7,1444.2z"/>
</g>
<g id="RSS" class="st3">
	<g class="st14">
		<path class="st15" d="M227.8,516.6c-48.5,0-86.6,38.1-86.6,86.6s38.1,86.6,86.6,86.6s86.6-38.1,86.6-86.6S276.3,516.6,227.8,516.6
			z"/>
		<path class="st15" d="M224.4,170.2c-20.8,0-43.3,1.7-69.3,5.2c-6.9,1.7-13.9,8.7-13.9,17.3v88.3c0,5.2,1.7,10.4,6.9,13.9
			s8.7,5.2,13.9,3.5c20.8-3.5,41.6-6.9,62.3-6.9c173.2,0,313.4,140.3,313.4,313.4c0,20.8-1.7,41.6-6.9,62.3
			c-1.7,5.2,0,10.4,3.5,13.9c3.5,3.5,8.7,6.9,13.9,6.9h88.3c8.7,0,15.6-6.9,17.3-13.9c3.5-24.2,5.2-46.8,5.2-69.3
			C660.7,365.9,465.1,170.2,224.4,170.2z"/>
		<path class="st15" d="M226.1,343.4c-24.2,0-48.5,3.5-71,10.4c-6.9,1.7-12.1,8.7-12.1,17.3v93.5c0,5.2,3.5,12.1,8.7,13.9
			c5.2,3.5,12.1,3.5,17.3,1.7c19-8.7,38.1-13.9,58.9-13.9c76.2,0,138.5,62.3,138.5,138.5c0,20.8-5.2,39.8-13.9,58.9
			c-1.7,5.2-1.7,12.1,1.7,17.3s8.7,8.7,13.9,8.7h95.2c6.9,0,13.9-5.2,17.3-12.1c6.9-24.2,10.4-48.5,10.4-71
			C487.6,461.2,369.8,343.4,226.1,343.4z"/>
	</g>
	<g class="st15">
		<path class="st7" d="M227.8,486.6c-48.5,0-86.6,38.1-86.6,86.6s38.1,86.6,86.6,86.6s86.6-38.1,86.6-86.6S276.3,486.6,227.8,486.6z
			"/>
		<path class="st7" d="M224.4,140.2c-20.8,0-43.3,1.7-69.3,5.2c-6.9,1.7-13.9,8.7-13.9,17.3v88.3c0,5.2,1.7,10.4,6.9,13.9
			s8.7,5.2,13.9,3.5c20.8-3.5,41.6-6.9,62.3-6.9c173.2,0,313.4,140.3,313.4,313.4c0,20.8-1.7,41.6-6.9,62.3
			c-1.7,5.2,0,10.4,3.5,13.9c3.5,3.5,8.7,6.9,13.9,6.9h88.3c8.7,0,15.6-6.9,17.3-13.9c3.5-24.2,5.2-46.8,5.2-69.3
			C660.7,335.9,465.1,140.2,224.4,140.2z"/>
		<path class="st7" d="M226.1,313.4c-24.2,0-48.5,3.5-71,10.4c-6.9,1.7-12.1,8.7-12.1,17.3v93.5c0,5.2,3.5,12.1,8.7,13.9
			c5.2,3.5,12.1,3.5,17.3,1.7c19-8.7,38.1-13.9,58.9-13.9c76.2,0,138.5,62.3,138.5,138.5c0,20.8-5.2,39.8-13.9,58.9
			c-1.7,5.2-1.7,12.1,1.7,17.3s8.7,8.7,13.9,8.7h95.2c6.9,0,13.9-5.2,17.3-12.1c6.9-24.2,10.4-48.5,10.4-71
			C487.6,431.2,369.8,313.4,226.1,313.4z"/>
	</g>
</g>
</svg>
