<?xml version="1.0" encoding="iso-8859-1"?>
<!-- Uploaded to: SVG Repo, www.svgrepo.com, Generator: SVG Repo Mixer Tools -->
<svg height="800px" width="800px" version="1.1" id="Layer_1" xmlns="http://www.w3.org/2000/svg" xmlns:xlink="http://www.w3.org/1999/xlink" 
	 viewBox="0 0 496 496" xml:space="preserve">
<path style="fill:#5FBF02;" d="M484.8,224.8l-152-132c-5.6-4.8-12.8-8-20.8-8H31.2C13.6,84.8,0,99.2,0,116v264
	c0,17.6,14.4,31.2,31.2,31.2H312c7.2,0,15.2-2.4,20.8-8l152-130.4c7.2-5.6,11.2-14.4,11.2-24C496,240,492,231.2,484.8,224.8z"/>
<g>
	<path style="fill:#3EB500;" d="M496,248.8c0-8.8-4-17.6-11.2-24l-152-132c-5.6-4.8-12.8-8-20.8-8H31.2c-8,0-14.4,3.2-20,7.2
		l316,316.8c2.4-0.8,4-2.4,5.6-4l152-132C492,266.4,496,257.6,496,248.8z"/>
	<path style="fill:#3EB500;" d="M157.6,193.6c-2.4-4.8-6.4-7.2-12-7.2c-4.8,0-9.6,3.2-12,7.2L84,304c-3.2,6.4,0,14.4,6.4,16.8
		c6.4,3.2,14.4,0,16.8-6.4l37.6-84.8l12,26.4c-6.4,0.8-10.4,6.4-10.4,12.8c0,7.2,5.6,12.8,12.8,12.8h8.8l14.4,32.8
		c2.4,4.8,6.4,7.2,12,7.2c1.6,0,3.2,0,4.8-0.8c6.4-3.2,9.6-10.4,6.4-16.8L157.6,193.6z"/>
</g>
<path style="fill:#5FBF02;" d="M321.6,264.8c-7.2,0-12.8,5.6-12.8,12.8v3.2c0,8.8-7.2,15.2-15.2,15.2h-42.4v-31.2h35.2
	c20.8,0,38.4-16.8,38.4-38.4v-3.2c0-20.8-16.8-38.4-38.4-38.4h-12.8c-7.2,0-12.8,5.6-12.8,12.8s5.6,12.8,12.8,12.8h12.8
	c7.2,0,12.8,5.6,12.8,12.8v3.2c0,7.2-5.6,12.8-12.8,12.8h-35.2v-41.6c0-7.2-5.6-12.8-12.8-12.8s-12.8,5.6-12.8,12.8V308
	c0,7.2,5.6,12.8,12.8,12.8h55.2c22.4,0,40.8-18.4,40.8-40.8v-3.2C334.4,271.2,328,264.8,321.6,264.8z"/>
<g>
	<path style="fill:#FFFFFF;" d="M157.6,183.2c-2.4-4.8-6.4-7.2-12-7.2c-4.8,0-9.6,3.2-12,7.2L84,293.6c-3.2,6.4,0,14.4,6.4,16.8
		s14.4,0,16.8-6.4l37.6-84.8l12,26.4c-6.4,0.8-10.4,6.4-10.4,12.8c0,7.2,5.6,12.8,12.8,12.8h8.8l14.4,32.8c2.4,4.8,6.4,7.2,12,7.2
		c1.6,0,3.2,0,4.8-0.8c6.4-3.2,9.6-10.4,6.4-16.8L157.6,183.2z"/>
	<path style="fill:#FFFFFF;" d="M321.6,254.4c-7.2,0-12.8,5.6-12.8,12.8v3.2c0,8.8-7.2,15.2-15.2,15.2h-42.4v-31.2h35.2
		c20.8,0,38.4-17.6,38.4-38.4v-3.2c0-20.8-16.8-38.4-38.4-38.4h-12.8c-7.2,0-12.8,5.6-12.8,12.8s5.6,12.8,12.8,12.8h12.8
		c7.2,0,12.8,5.6,12.8,12.8v4c0,7.2-5.6,12.8-12.8,12.8h-35.2V188c0-7.2-5.6-12.8-12.8-12.8s-12.8,5.6-12.8,12.8v110.4
		c0,7.2,5.6,12.8,12.8,12.8h55.2c22.4,0,40.8-18.4,40.8-40.8v-3.2C334.4,260,328,254.4,321.6,254.4z"/>
</g>
</svg>