<?xml version="1.0" encoding="UTF-8"?>
<svg id="Layer_1" data-name="Layer 1" xmlns="http://www.w3.org/2000/svg" viewBox="0 0 600 766.67">
  <defs>
    <style>
      .cls-1 {
        fill: #95a5a6;
      }

      .cls-2 {
        fill: #bdc3c7;
      }
    </style>
  </defs>
  <path class="cls-1" d="m66.67,33.33C29.85,33.33,0,63.33,0,100v600c0,36.67,29.85,66.67,66.67,66.67h466.67c36.83,0,66.67-30,66.67-66.67V233.33L400,33.33H66.67Z"/>
  <path class="cls-2" d="m66.67,0C29.85,0,0,30,0,66.67v600c0,36.67,29.85,66.67,66.67,66.67h466.67c36.83,0,66.67-30,66.67-66.67V200L400,0H66.67Z"/>
  <path class="cls-1" d="m600,200L400,0v133.33c0,36.67,29.83,66.67,66.67,66.67h133.33Z"/>
</svg>