<?xml version="1.0" encoding="UTF-8"?>
<svg id="Icon" xmlns="http://www.w3.org/2000/svg" viewBox="0 0 800 800">
  <defs>
    <style>
      .cls-1 {
        opacity: .3;
      }

      .cls-1, .cls-2 {
        fill: #fff;
        isolation: isolate;
      }

      .cls-3 {
        fill: #535d5e;
      }

      .cls-4 {
        opacity: .1;
      }

      .cls-5 {
        fill: #bdc3c7;
      }

      .cls-2 {
        opacity: .2;
      }
    </style>
  </defs>
  <g id="Circle_backround" data-name="Circle backround">
    <circle id="Bg" class="cls-5" cx="400" cy="400" r="400"/>
    <g id="Inner_Shadow" data-name="Inner Shadow" class="cls-4">
      <path d="m400,0C240.8,0,103.3,93,38.9,227.7,100.1,104.6,227.2,20,374,20c206.6,0,374,167.4,374,374s-167.4,374-374,374S1.6,602.2,0,397v3c0,220.9,179.1,400,400,400s400-179.1,400-400S620.9,0,400,0Z"/>
    </g>
    <path id="inner_glow" data-name="inner glow" class="cls-1" d="m130,165.6c28.1-44.4,88.1-81.2,150.6-92.5,15.6-2.5,31.2-3.8,44.4,1.2,10,3.8,18.1,13.1,12.5,23.8-4.4,8.7-16.2,12.5-25.6,15.6-58.1,18.8-111.9,40-144.4,89.4-12.5,18.8-30.6,90-53.8,76.9-24.3-14.4-19.3-59.4,16.3-114.4h0Z"/>
  </g>
  <g id="Asterisk">
    <path id="Asterisk-2" data-name="Asterisk" class="cls-2" d="m400,169.8c22.7,0,41.1,18.4,41.1,41.1v148l128.1-74c19.7-11.3,44.8-4.6,56.1,15s4.6,44.8-15,56.1l-128.1,74,128.1,74c19.7,11.3,26.4,36.5,15,56.1-11.3,19.7-36.5,26.4-56.1,15l-128.1-74v148c0,22.7-18.4,41.1-41.1,41.1s-41.1-18.4-41.1-41.1v-148l-128.1,74c-19.7,11.3-44.8,4.6-56.1-15-11.3-19.7-4.6-44.8,15-56.1l128.1-74-128.1-74c-19.7-11.3-26.4-36.5-15-56.1,11.3-19.7,36.5-26.4,56.1-15l128.1,74v-148c0-22.7,18.4-41.1,41.1-41.1Z"/>
    <path id="Asterisk-3" data-name="Asterisk" class="cls-3" d="m400,139.8c22.7,0,41.1,18.4,41.1,41.1v148l128.1-74c19.7-11.3,44.8-4.6,56.1,15s4.6,44.8-15,56.1l-128.1,74,128.1,74c19.7,11.3,26.4,36.5,15,56.1-11.3,19.7-36.5,26.4-56.1,15l-128.1-74v148c0,22.7-18.4,41.1-41.1,41.1s-41.1-18.4-41.1-41.1v-148l-128.1,74c-19.7,11.3-44.8,4.6-56.1-15-11.3-19.7-4.6-44.8,15-56.1l128.1-74-128.1-74c-19.7-11.3-26.4-36.5-15-56.1,11.3-19.7,36.5-26.4,56.1-15l128.1,74v-148c0-22.7,18.4-41.1,41.1-41.1Z"/>
  </g>
</svg>