<?xml version="1.0" encoding="UTF-8"?>
<svg id="Icon" xmlns="http://www.w3.org/2000/svg" viewBox="0 0 800 800">
  <defs>
    <style>
      .cls-1, .cls-2 {
        fill: #fff;
      }

      .cls-2, .cls-3 {
        isolation: isolate;
        opacity: .3;
      }

      .cls-4 {
        opacity: .1;
      }

      .cls-5 {
        fill: #2ecc71;
      }
    </style>
  </defs>
  <g id="Circle_backround" data-name="Circle backround">
    <circle id="Bg" class="cls-5" cx="400" cy="400" r="400"/>
    <g id="Inner_Shadow" data-name="Inner Shadow" class="cls-4">
      <path d="m400,0C240.8,0,103.3,93,38.9,227.7,100.1,104.6,227.2,20,374,20c206.6,0,374,167.4,374,374s-167.4,374-374,374S1.6,602.2,0,397v3c0,220.9,179.1,400,400,400s400-179.1,400-400S620.9,0,400,0Z"/>
    </g>
    <path id="inner_glow" data-name="inner glow" class="cls-2" d="m130,165.6c28.1-44.4,88.1-81.2,150.6-92.5,15.6-2.5,31.2-3.8,44.4,1.2,10,3.8,18.1,13.1,12.5,23.8-4.4,8.7-16.2,12.5-25.6,15.6-58.1,18.8-111.9,40-144.4,89.4-12.5,18.8-30.6,90-53.8,76.9-24.3-14.4-19.3-59.4,16.3-114.4h0Z"/>
  </g>
  <g id="Layer_6" data-name="Layer 6">
    <path class="cls-3" d="m632,321.6c0,8-2.8,14.8-8.4,20.4l-216.7,216.7-40.7,40.7c-5.6,5.6-12.4,8.4-20.4,8.4s-14.8-2.8-20.4-8.4l-40.7-40.7-108.3-108.3c-5.6-5.6-8.4-12.4-8.4-20.4s2.8-14.8,8.4-20.4l40.7-40.7c5.6-5.6,12.4-8.4,20.4-8.4s14.8,2.8,20.4,8.4l88,88.3,196.3-196.6c5.6-5.6,12.4-8.4,20.4-8.4s14.8,2.8,20.4,8.4l40.7,40.7c5.5,5.6,8.3,12.4,8.3,20.3Z"/>
    <path class="cls-1" d="m632,291.6c0,8-2.8,14.8-8.4,20.4l-216.7,216.7-40.7,40.7c-5.6,5.6-12.4,8.4-20.4,8.4s-14.8-2.8-20.4-8.4l-40.7-40.7-108.3-108.3c-5.6-5.6-8.4-12.4-8.4-20.4s2.8-14.8,8.4-20.4l40.7-40.7c5.6-5.6,12.4-8.4,20.4-8.4s14.8,2.8,20.4,8.4l88,88.3,196.3-196.6c5.6-5.6,12.4-8.4,20.4-8.4s14.8,2.8,20.4,8.4l40.7,40.7c5.5,5.6,8.3,12.4,8.3,20.3Z"/>
  </g>
</svg>