<?xml version="1.0" encoding="utf-8"?>
<!-- Generator: Adobe Illustrator 27.3.1, SVG Export Plug-In . SVG Version: 6.00 Build 0)  -->
<svg version="1.1" id="Layer_1" xmlns="http://www.w3.org/2000/svg" xmlns:xlink="http://www.w3.org/1999/xlink" x="0px" y="0px"
	 viewBox="0 0 16 16" style="enable-background:new 0 0 16 16;" xml:space="preserve">
<style type="text/css">
	.st0{fill-rule:evenodd;clip-rule:evenodd;fill:#BDC3C7;}
	.st1{opacity:0.3;}
</style>
<g>
	<path class="st0" d="M8.9,0.1C8.6,0,8.2,0,7.5,0S6.4,0,6.1,0.1C5.7,0.3,5.4,0.6,5.2,1C5.2,1.2,5.1,1.4,5.1,1.7
		c0,0.5-0.2,0.9-0.6,1.1S3.6,3,3.2,2.8C3,2.6,2.8,2.5,2.6,2.5C2.2,2.5,1.8,2.6,1.4,2.8C1.2,3,1,3.4,0.6,4C0.2,4.7,0.1,5,0,5.3
		C0,5.7,0.1,6.1,0.3,6.5c0.1,0.2,0.3,0.3,0.5,0.4C1.2,7.2,1.5,7.6,1.5,8S1.2,8.9,0.9,9.1C0.6,9.3,0.4,9.4,0.3,9.5
		C0.1,9.9,0,10.3,0,10.7c0,0.3,0.2,0.6,0.6,1.3c0.4,0.7,0.6,1,0.8,1.2c0.3,0.3,0.8,0.4,1.2,0.3c0.2,0,0.4-0.1,0.7-0.3
		c0.4-0.2,0.9-0.2,1.2,0c0.4,0.2,0.6,0.6,0.6,1.1c0,0.3,0,0.5,0.1,0.7c0.2,0.4,0.5,0.7,0.9,0.9C6.4,16,6.8,16,7.5,16s1.1,0,1.4-0.1
		c0.4-0.2,0.7-0.5,0.9-0.9c0.1-0.2,0.1-0.4,0.1-0.7c0-0.5,0.2-0.9,0.6-1.1c0.4-0.2,0.9-0.2,1.2,0c0.3,0.1,0.5,0.2,0.7,0.3
		c0.4,0.1,0.8-0.1,1.2-0.3c0.2-0.2,0.4-0.5,0.8-1.2c0.4-0.7,0.6-1,0.6-1.3c0.1-0.4-0.1-0.9-0.3-1.2c-0.1-0.2-0.3-0.3-0.5-0.4
		c-0.4-0.2-0.6-0.6-0.6-1.1c0-0.5,0.2-0.9,0.6-1.1c0.3-0.2,0.4-0.3,0.5-0.4C14.9,6.1,15,5.7,15,5.3c0-0.3-0.2-0.6-0.6-1.3
		c-0.4-0.6-0.6-1-0.8-1.2c-0.3-0.3-0.8-0.4-1.2-0.3c-0.2,0-0.4,0.1-0.7,0.3c-0.4,0.2-0.9,0.2-1.2,0c-0.4-0.2-0.6-0.6-0.6-1.1
		c0-0.3,0-0.5-0.1-0.7C9.6,0.6,9.3,0.3,8.9,0.1L8.9,0.1z M9.9,8c0,1.3-1.1,2.4-2.4,2.4S5.1,9.3,5.1,8s1.1-2.4,2.4-2.4S9.9,6.7,9.9,8
		z"/>
	<path class="st1" d="M13.6,12.4c-0.3,0.3-0.8,0.4-1.2,0.3c-0.2,0-0.4-0.1-0.7-0.3c-0.4-0.2-0.9-0.2-1.2,0c-0.4,0.2-0.6,0.6-0.6,1.1
		c0,0.3,0,0.5-0.1,0.7c-0.2,0.4-0.5,0.7-0.9,0.9c-0.3,0.1-0.7,0.1-1.4,0.1s-1.1,0-1.4-0.1c-0.4-0.2-0.7-0.5-0.9-0.9
		c-0.1-0.2-0.1-0.4-0.1-0.7c0-0.4-0.2-0.9-0.6-1.1c-0.4-0.2-0.8-0.2-1.2,0c-0.3,0.2-0.5,0.2-0.7,0.3c-0.4,0.1-0.8-0.1-1.2-0.3
		c-0.3-0.2-0.4-0.5-0.8-1.2c-0.3-0.5-0.5-0.8-0.6-1.1C0,10.3,0,10.5,0,10.7c0,0.3,0.2,0.6,0.6,1.3c0.4,0.7,0.6,1,0.8,1.2
		c0.3,0.3,0.8,0.4,1.2,0.3c0.2,0,0.4-0.1,0.7-0.3c0.4-0.2,0.9-0.2,1.2,0c0.4,0.2,0.6,0.6,0.6,1.1c0,0.3,0,0.5,0.1,0.7
		c0.2,0.4,0.5,0.7,0.9,0.9C6.4,16,6.8,16,7.5,16s1.1,0,1.4-0.1c0.4-0.2,0.7-0.5,0.9-0.9c0.1-0.2,0.1-0.4,0.1-0.7
		c0-0.5,0.2-0.9,0.6-1.1c0.4-0.2,0.9-0.2,1.2,0c0.3,0.1,0.5,0.2,0.7,0.3c0.4,0.1,0.8-0.1,1.2-0.3c0.2-0.2,0.4-0.5,0.8-1.2
		c0.4-0.7,0.6-1,0.6-1.3c0-0.2,0-0.4,0-0.6c-0.1,0.3-0.2,0.6-0.6,1.1C14,11.8,13.8,12.2,13.6,12.4z"/>
	<path class="st1" d="M7.5,5.6c1.2,0,2.2,0.9,2.3,2c0-0.1,0-0.3,0-0.4c0-1.3-1.1-2.4-2.4-2.4S5.1,5.9,5.1,7.2c0,0.1,0,0.3,0,0.4
		C5.3,6.5,6.3,5.6,7.5,5.6z"/>
</g>
</svg>
