<svg xmlns="http://www.w3.org/2000/svg" id="Icon" viewBox="0 0 800.2 800"><defs><clipPath id="clippath"><path d="M800.2 711.1c0 49.1-39.8 88.9-88.9 88.9H89.1C40 800 .3 760.2.3 711.1V88.9C.3 39.8 40 0 89.1 0h622.2c49.1 0 88.9 39.8 88.9 88.9v622.2Z" style="fill:none"/></clipPath><style>.cls-1{fill:#fff}</style></defs><g id="Rounded_bg" data-name="Rounded bg"><path id="Bg" d="M800.2 711.1c0 49.1-39.8 88.9-88.9 88.9H89.1C40 800 .3 760.2.3 711.1V88.9C.3 39.8 40 0 89.1 0h622.2c49.1 0 88.9 39.8 88.9 88.9v622.2Z" style="fill:#e67e22"/><g id="Inner_Shadow" data-name="Inner Shadow" style="clip-path:url(#clippath)"><path d="M746.7 0h-40.5c27 .6 48.5 23 47.9 50v652.8c-.1 27.6-22.4 49.9-50 49.9H49.9c-27.6-.1-49.9-22.4-49.9-50v44C0 776.1 23.9 800 53.3 800h693.3c29.5 0 53.3-23.9 53.3-53.3V53.3C800 23.9 776.1 0 746.7 0Z" style="opacity:.1;isolation:isolate"/></g><path d="M238.1 70.6c0-14.4-10-18.8-67.5-16.9-48.1 1.9-71.9 7.5-86.3 25s-18.1 53.1-18.8 95.6c0 30 0 58.1 15.6 58.1 21.3 0 21.3-49.4 38.8-76.9 33.9-54.3 118.2-66.1 118.2-84.9Z" style="isolation:isolate;opacity:.3;fill:#fff"/></g><g id="RSS"><g style="opacity:.2"><path d="M237.4 516.1c-48.5 0-86.6 38.1-86.6 86.6s38.1 86.6 86.6 86.6 86.6-38.1 86.6-86.6-38.1-86.6-86.6-86.6ZM234 169.7c-20.8 0-43.3 1.7-69.3 5.2-6.9 1.7-13.9 8.7-13.9 17.3v88.3c0 5.2 1.7 10.4 6.9 13.9s8.7 5.2 13.9 3.5c20.8-3.5 41.6-6.9 62.3-6.9 173.2 0 313.4 140.3 313.4 313.4 0 20.8-1.7 41.6-6.9 62.3-1.7 5.2 0 10.4 3.5 13.9s8.7 6.9 13.9 6.9h88.3c8.7 0 15.6-6.9 17.3-13.9 3.5-24.2 5.2-46.8 5.2-69.3 1.7-238.9-193.9-434.6-434.6-434.6Z"/><path d="M235.7 342.9c-24.2 0-48.5 3.5-71 10.4-6.9 1.7-12.1 8.7-12.1 17.3v93.5c0 5.2 3.5 12.1 8.7 13.9 5.2 3.5 12.1 3.5 17.3 1.7 19-8.7 38.1-13.9 58.9-13.9 76.2 0 138.5 62.3 138.5 138.5 0 20.8-5.2 39.8-13.9 58.9-1.7 5.2-1.7 12.1 1.7 17.3s8.7 8.7 13.9 8.7h95.2c6.9 0 13.9-5.2 17.3-12.1 6.9-24.2 10.4-48.5 10.4-71-3.4-145.4-121.2-263.2-264.9-263.2Z"/></g><path d="M237.4 486.1c-48.5 0-86.6 38.1-86.6 86.6s38.1 86.6 86.6 86.6 86.6-38.1 86.6-86.6-38.1-86.6-86.6-86.6ZM234 139.7c-20.8 0-43.3 1.7-69.3 5.2-6.9 1.7-13.9 8.7-13.9 17.3v88.3c0 5.2 1.7 10.4 6.9 13.9s8.7 5.2 13.9 3.5c20.8-3.5 41.6-6.9 62.3-6.9 173.2 0 313.4 140.3 313.4 313.4 0 20.8-1.7 41.6-6.9 62.3-1.7 5.2 0 10.4 3.5 13.9s8.7 6.9 13.9 6.9h88.3c8.7 0 15.6-6.9 17.3-13.9 3.5-24.2 5.2-46.8 5.2-69.3 1.7-238.9-193.9-434.6-434.6-434.6Z" class="cls-1"/><path d="M235.7 312.9c-24.2 0-48.5 3.5-71 10.4-6.9 1.7-12.1 8.7-12.1 17.3v93.5c0 5.2 3.5 12.1 8.7 13.9 5.2 3.5 12.1 3.5 17.3 1.7 19-8.7 38.1-13.9 58.9-13.9 76.2 0 138.5 62.3 138.5 138.5 0 20.8-5.2 39.8-13.9 58.9-1.7 5.2-1.7 12.1 1.7 17.3s8.7 8.7 13.9 8.7h95.2c6.9 0 13.9-5.2 17.3-12.1 6.9-24.2 10.4-48.5 10.4-71-3.4-145.4-121.2-263.2-264.9-263.2Z" class="cls-1"/></g></svg>