<?xml version="1.0" encoding="UTF-8"?>
<svg id="Layer_1" data-name="Layer 1" xmlns="http://www.w3.org/2000/svg" viewBox="0 0 15.35 16">
  <defs>
    <style>
      .cls-1 {
        fill: #edf0f1;
      }

      .cls-2 {
        fill: #535d5e;
      }

      .cls-3 {
        fill: #7f8c8d;
      }

      .cls-4 {
        fill: #bdc3c7;
      }
    </style>
  </defs>
  <g id="surface1">
    <path class="cls-2" d="m1.38.7c-.77,0-1.38.62-1.38,1.38v4.98c0,.34.17.69.41.97l7.6,7.55c.25.27.61.41.99.41s.74-.14.99-.41l4.89-4.85c.29-.27.46-.62.46-1.04s-.17-.82-.46-1.04L7.34,1.11c-.25-.27-.61-.41-.97-.41H1.38Zm2.08,2.08c.77,0,1.38.62,1.38,1.38s-.62,1.38-1.38,1.38-1.38-.62-1.38-1.38.62-1.38,1.38-1.38Z"/>
    <path class="cls-4" d="m1.38,0C.62,0,0,.62,0,1.38v5.01c0,.37.17.72.41.95l7.6,7.6c.25.26.61.41.99.41s.74-.15.99-.41l4.89-4.89c.29-.25.46-.63.46-1.04s-.17-.79-.46-1.04L7.34.41c-.25-.24-.61-.41-.97-.41H1.38Zm2.08,2.08c.77,0,1.38.62,1.38,1.38s-.62,1.38-1.38,1.38-1.38-.62-1.38-1.38.62-1.38,1.38-1.38Z"/>
    <path class="cls-2" d="m9.01,14.55l4.85-4.85-5.54-5.54-4.85,4.85s5.54,5.54,5.54,5.54Z"/>
    <path class="cls-1" d="m9.01,13.85l4.85-4.85-5.54-5.54-4.85,4.85s5.54,5.54,5.54,5.54Z"/>
    <path class="cls-3" d="m8.31,5.54l-2.42,2.42-.35.34.35.34,2.77-2.77-.34-.35h0Zm1.38,1.38l-2.77,2.77.34.35,2.78-2.78-.35-.34h0Zm1.38,1.38l-2.42,2.42-.34.35.34.34,2.78-2.78-.34-.34h-.01Z"/>
  </g>
</svg>