<?xml version="1.0" encoding="UTF-8"?>
<svg id="Layer_1" data-name="Layer 1" xmlns="http://www.w3.org/2000/svg" viewBox="0 0 48 48">
  <defs>
    <style>
      .cls-1 {
        fill: #37474f;
      }

      .cls-2 {
        fill: #ffeb3b;
      }

      .cls-3 {
        fill: #43a047;
      }
    </style>
  </defs>
  <path class="cls-3" d="m0,2.67v42.67c0,1.47,1.2,2.67,2.67,2.67h42.67c1.47,0,2.67-1.2,2.67-2.67V2.67c0-1.47-1.2-2.67-2.67-2.67H2.67C1.2,0,0,1.2,0,2.67Z"/>
  <path class="cls-2" d="m12,5.33c0,.8-.53,1.33-1.33,1.33s-1.33-.53-1.33-1.33.53-1.33,1.33-1.33,1.33.53,1.33,1.33Zm4-1.33c-.8,0-1.33.53-1.33,1.33s.53,1.33,1.33,1.33,1.33-.53,1.33-1.33-.53-1.33-1.33-1.33Zm5.33,0c-.8,0-1.33.53-1.33,1.33s.53,1.33,1.33,1.33,1.33-.53,1.33-1.33-.53-1.33-1.33-1.33Zm5.33,0c-.8,0-1.33.53-1.33,1.33s.53,1.33,1.33,1.33,1.33-.53,1.33-1.33-.53-1.33-1.33-1.33Zm5.33,0c-.8,0-1.33.53-1.33,1.33s.53,1.33,1.33,1.33,1.33-.53,1.33-1.33-.53-1.33-1.33-1.33Zm5.33,0c-.8,0-1.33.53-1.33,1.33s.53,1.33,1.33,1.33,1.33-.53,1.33-1.33-.53-1.33-1.33-1.33ZM5.33,9.33c-.8,0-1.33.53-1.33,1.33s.53,1.33,1.33,1.33,1.33-.53,1.33-1.33-.53-1.33-1.33-1.33Zm5.33,0c-.8,0-1.33.53-1.33,1.33s.53,1.33,1.33,1.33,1.33-.53,1.33-1.33-.53-1.33-1.33-1.33Zm5.33,0c-.8,0-1.33.53-1.33,1.33s.53,1.33,1.33,1.33,1.33-.53,1.33-1.33-.53-1.33-1.33-1.33Zm5.33,0c-.8,0-1.33.53-1.33,1.33s.53,1.33,1.33,1.33,1.33-.53,1.33-1.33-.53-1.33-1.33-1.33Zm5.33,0c-.8,0-1.33.53-1.33,1.33s.53,1.33,1.33,1.33,1.33-.53,1.33-1.33-.53-1.33-1.33-1.33Zm5.33,0c-.8,0-1.33.53-1.33,1.33s.53,1.33,1.33,1.33,1.33-.53,1.33-1.33-.53-1.33-1.33-1.33Zm5.33,0c-.8,0-1.33.53-1.33,1.33s.53,1.33,1.33,1.33,1.33-.53,1.33-1.33-.53-1.33-1.33-1.33Zm5.33,0c-.8,0-1.33.53-1.33,1.33s.53,1.33,1.33,1.33,1.33-.53,1.33-1.33-.53-1.33-1.33-1.33ZM5.33,14.67c-.8,0-1.33.53-1.33,1.33s.53,1.33,1.33,1.33,1.33-.53,1.33-1.33-.53-1.33-1.33-1.33Zm5.33,0c-.8,0-1.33.53-1.33,1.33s.53,1.33,1.33,1.33,1.33-.53,1.33-1.33-.53-1.33-1.33-1.33Zm26.67,0c-.8,0-1.33.53-1.33,1.33s.53,1.33,1.33,1.33,1.33-.53,1.33-1.33-.53-1.33-1.33-1.33ZM5.33,20c-.8,0-1.33.53-1.33,1.33s.53,1.33,1.33,1.33,1.33-.53,1.33-1.33-.53-1.33-1.33-1.33Zm5.33,0c-.8,0-1.33.53-1.33,1.33s.53,1.33,1.33,1.33,1.33-.53,1.33-1.33-.53-1.33-1.33-1.33Zm26.67,0c-.8,0-1.33.53-1.33,1.33s.53,1.33,1.33,1.33,1.33-.53,1.33-1.33-.53-1.33-1.33-1.33Zm5.33-5.33c-.8,0-1.33.53-1.33,1.33s.53,1.33,1.33,1.33,1.33-.53,1.33-1.33-.53-1.33-1.33-1.33Zm0,5.33c-.8,0-1.33.53-1.33,1.33s.53,1.33,1.33,1.33,1.33-.53,1.33-1.33-.53-1.33-1.33-1.33ZM5.33,25.33c-.8,0-1.33.53-1.33,1.33s.53,1.33,1.33,1.33,1.33-.53,1.33-1.33-.53-1.33-1.33-1.33Zm5.33,0c-.8,0-1.33.53-1.33,1.33s.53,1.33,1.33,1.33,1.33-.53,1.33-1.33-.53-1.33-1.33-1.33Zm26.67,0c-.8,0-1.33.53-1.33,1.33s.53,1.33,1.33,1.33,1.33-.53,1.33-1.33-.53-1.33-1.33-1.33ZM5.33,30.67c-.8,0-1.33.53-1.33,1.33s.53,1.33,1.33,1.33,1.33-.53,1.33-1.33-.53-1.33-1.33-1.33Zm5.33,0c-.8,0-1.33.53-1.33,1.33s.53,1.33,1.33,1.33,1.33-.53,1.33-1.33-.53-1.33-1.33-1.33Zm26.67,0c-.8,0-1.33.53-1.33,1.33s.53,1.33,1.33,1.33,1.33-.53,1.33-1.33-.53-1.33-1.33-1.33Zm5.33-5.33c-.8,0-1.33.53-1.33,1.33s.53,1.33,1.33,1.33,1.33-.53,1.33-1.33-.53-1.33-1.33-1.33Zm0,5.33c-.8,0-1.33.53-1.33,1.33s.53,1.33,1.33,1.33,1.33-.53,1.33-1.33-.53-1.33-1.33-1.33Zm-37.33,5.33c-.8,0-1.33.53-1.33,1.33s.53,1.33,1.33,1.33,1.33-.53,1.33-1.33-.53-1.33-1.33-1.33Zm5.33,0c-.8,0-1.33.53-1.33,1.33s.53,1.33,1.33,1.33,1.33-.53,1.33-1.33-.53-1.33-1.33-1.33Zm5.33,0c-.8,0-1.33.53-1.33,1.33s.53,1.33,1.33,1.33,1.33-.53,1.33-1.33-.53-1.33-1.33-1.33Zm5.33,0c-.8,0-1.33.53-1.33,1.33s.53,1.33,1.33,1.33,1.33-.53,1.33-1.33-.53-1.33-1.33-1.33Zm5.33,0c-.8,0-1.33.53-1.33,1.33s.53,1.33,1.33,1.33,1.33-.53,1.33-1.33-.53-1.33-1.33-1.33Zm5.33,0c-.8,0-1.33.53-1.33,1.33s.53,1.33,1.33,1.33,1.33-.53,1.33-1.33-.53-1.33-1.33-1.33Zm5.33,0c-.8,0-1.33.53-1.33,1.33s.53,1.33,1.33,1.33,1.33-.53,1.33-1.33-.53-1.33-1.33-1.33Zm-26.67,5.33c-.8,0-1.33.53-1.33,1.33s.53,1.33,1.33,1.33,1.33-.53,1.33-1.33-.53-1.33-1.33-1.33Zm5.33,0c-.8,0-1.33.53-1.33,1.33s.53,1.33,1.33,1.33,1.33-.53,1.33-1.33-.53-1.33-1.33-1.33Zm5.33,0c-.8,0-1.33.53-1.33,1.33s.53,1.33,1.33,1.33,1.33-.53,1.33-1.33-.53-1.33-1.33-1.33Zm5.33,0c-.8,0-1.33.53-1.33,1.33s.53,1.33,1.33,1.33,1.33-.53,1.33-1.33-.53-1.33-1.33-1.33Zm5.33,0c-.8,0-1.33.53-1.33,1.33s.53,1.33,1.33,1.33,1.33-.53,1.33-1.33-.53-1.33-1.33-1.33Zm5.33,0c-.8,0-1.33.53-1.33,1.33s.53,1.33,1.33,1.33,1.33-.53,1.33-1.33-.53-1.33-1.33-1.33Zm5.33-5.33c-.8,0-1.33.53-1.33,1.33s.53,1.33,1.33,1.33,1.33-.53,1.33-1.33-.53-1.33-1.33-1.33Z"/>
  <path class="cls-1" d="m30.67,32h-13.33c-.67,0-1.33-.67-1.33-1.33v-13.33c0-.67.67-1.33,1.33-1.33h13.33c.67,0,1.33.67,1.33,1.33v13.33c0,.67-.67,1.33-1.33,1.33Z"/>
</svg>