<?xml version="1.0" encoding="UTF-8"?>
<svg id="Layer_1" data-name="Layer 1" xmlns="http://www.w3.org/2000/svg" viewBox="0 0 715 715">
  <defs>
    <style>
      .cls-1 {
        fill: #2b3b47;
      }

      .cls-2 {
        fill: #ffb636;
      }

      .cls-3 {
        fill: #adbbbc;
      }

      .cls-4 {
        fill: #ff473e;
      }
    </style>
  </defs>
  <path class="cls-2" d="m287.15,432.91l.95,2.5c.29.81.74,1.89,1.12,3.03l1.37,4c.54,1.53.98,3.08,1.55,4.87.55,1.77,1.19,3.75,1.7,5.69l1.77,6.4c.58,2.23,1.07,4.47,1.66,6.91,2.53,10.54,4.33,21.24,5.38,32.03.6,5.74.86,11.47.99,17.35,0,5.77-.13,11.69-.66,17.46-.52,5.75-1.39,11.46-2.58,17.1-1.2,5.54-2.79,10.98-4.74,16.3-3.9,10.53-9.38,20.27-16.49,28.87-3.52,4.34-7.63,8.21-11.7,12.22-4.13,3.95-8.36,7.9-12.77,11.73-8.92,7.83-18.24,15.19-27.93,22.04-9.78,6.96-20.06,13.4-30.61,19.32-5.28,2.93-10.64,5.73-16.06,8.4-5.4,2.63-10.87,5.12-16.39,7.47-11.02,4.65-22.12,8.69-33.13,12.03-10.63,3.25-21.4,5.96-32.3,8.14-20.83,4.2-39.94,5.93-54.15,6.29l-5.08.09h-4.56s-7.39-.2-7.39-.2l-4.73-.28-1.67-.15-.14-1.69-.28-4.79-.2-7.47v-4.62s.08-5.14.08-5.14c.36-14.38,2.07-33.72,6.22-54.79,2.15-11.02,4.83-21.92,8.04-32.68,3.31-11.14,7.3-22.37,11.89-33.52,2.33-5.59,4.79-11.12,7.38-16.59,2.63-5.47,5.39-10.9,8.3-16.25,5.84-10.67,12.21-21.08,19.09-30.98,6.77-9.8,14.04-19.23,21.78-28.26,3.79-4.46,7.69-8.74,11.59-12.92,3.96-4.12,7.79-8.28,12.08-11.84,8.5-7.19,18.12-12.73,28.53-16.68,5.25-1.98,10.63-3.58,16.11-4.8,5.58-1.21,11.22-2.08,16.9-2.61,5.71-.54,11.56-.68,17.26-.67,5.82.13,11.47.39,17.15,1,10.67,1.06,21.25,2.88,31.66,5.44,2.41.6,4.62,1.09,6.83,1.68l6.33,1.79c1.92.51,3.88,1.17,5.62,1.72,1.77.58,3.3,1.02,4.81,1.57l3.96,1.39c1.13.39,2.2.84,2.99,1.13,1.63.62,2.47.95,2.47.95Z"/>
  <path class="cls-4" d="m105.97,249.58L3.32,353.44c-7.09,7.18-2.07,19.45,7.96,19.45h86.27c2.99,0,5.85,1.2,7.96,3.34l56.02,56.68,90.98-186.66H113.93c-2.99,0-5.85,1.2-7.96,3.34h0Z"/>
  <path class="cls-4" d="m303.15,551.56l56.02,56.68c2.11,2.14,3.3,5.04,3.3,8.06v87.29c0,10.15,12.13,15.24,19.23,8.06l102.65-103.86c2.11-2.14,3.3-5.04,3.3-8.06v-140.22l-184.48,92.05h0Z"/>
  <path class="cls-3" d="m712.93,14.87l.11.91c.07.6.2,1.53.29,2.67.19,2.28.61,5.82.81,10.07.64,8.76,1.07,21.08.77,35.92-.29,14.84-1.33,32.17-3.57,50.99-.5,4.76-1.22,9.48-1.91,14.38-.64,4.95-1.55,9.79-2.39,14.86-1.71,10.09-3.85,20.36-6.32,30.84-5.14,21.74-11.67,43.13-19.54,64.02-8.12,21.51-17.87,43-29.29,63.88-11.44,20.86-24.46,41.2-39,60.54-14.53,19.36-30.57,37.73-47.78,54.91-17.21,17.19-35.56,33.21-54.85,47.75-4.82,3.63-9.67,7.21-14.63,10.63-4.91,3.47-9.92,6.8-14.91,10.09-10.04,6.53-20.29,12.65-30.65,18.39-20.39,11.29-41.52,21.16-63.23,29.54-20.63,7.95-41.74,14.58-63.19,19.85-10.33,2.52-20.43,4.74-30.39,6.49l-7.33,1.34c-2.43.42-4.89.77-7.29,1.15l-7.1,1.1-7.04.91c-18.5,2.37-35.52,3.53-50.07,3.93-14.54.42-26.66.06-35.21-.49-4.16-.16-7.64-.56-9.86-.72-1.12-.08-2.02-.21-2.61-.27l-.89-.1c-6.77-.76-11.9-6.2-12.63-12.77l-.1-.9c-.06-.59-.18-1.51-.26-2.64-.16-2.25-.56-5.76-.71-9.98-.54-8.66-.9-20.91-.49-35.63.4-14.73,1.55-31.95,3.89-50.67l.9-7.12,1.08-7.18c.38-2.42.72-4.91,1.13-7.37l1.32-7.42c1.73-10.08,3.92-20.29,6.41-30.75,5.21-21.71,11.76-43.06,19.62-63.94,8.29-21.97,18.04-43.35,29.2-63.98,5.67-10.48,11.71-20.85,18.17-31.01,3.25-5.05,6.54-10.13,9.97-15.09,3.38-5.02,6.91-9.93,10.5-14.81,14.37-19.51,30.21-38.09,47.2-55.5,16.98-17.41,35.14-33.64,54.27-48.34,19.11-14.72,39.22-27.89,59.83-39.47,20.63-11.56,41.87-21.42,63.13-29.64,20.65-7.97,41.78-14.57,63.27-19.77,10.35-2.5,20.51-4.66,30.48-6.39,5.01-.84,9.79-1.77,14.68-2.42,4.84-.7,9.5-1.42,14.21-1.93,18.6-2.27,35.73-3.31,50.4-3.61,14.66-.31,26.84.13,35.5.78,4.21.2,7.7.63,9.96.81,1.13.09,2.04.22,2.64.29l.9.11c6.75.82,11.85,6.24,12.63,12.77h0Z"/>
  <path class="cls-4" d="m341.29,378.12l.83,2.26c.46,1.41,1.08,3.43,1.51,5.68,1.01,4.66,1.35,10.34-.48,15.27-.9,2.48-2.57,4.55-4.15,7.05l-5.23,7.96-12.55,19.07c-4.98,7.47-10.01,14.91-15.08,22.32-5.65,8.25-11.37,16.44-17.15,24.59l-9.22,12.83-9.57,13.01c-6.5,8.7-13.14,17.49-19.9,26.17-6.69,8.65-13.47,17.23-20.33,25.74-6.77,8.43-13.4,16.75-19.93,24.68l-9.58,11.73c-3.17,3.79-6.06,7.72-9.41,11-3.33,3.3-7.17,5.9-11.59,7.7-4.38,1.84-9.17,3.05-13.81,4.19-8.74,2.1-17.57,3.76-26.46,4.99-4.11.57-8.04,1.02-11.75,1.35-3.69.36-7.27.5-10.4.72-3.16.2-6.17.18-8.68.27-2.56.05-4.86-.03-6.66-.04-1.84-.04-3.31-.13-4.27-.17l-1.51-.1-.1-1.53c-.03-.97-.12-2.46-.17-4.32,0-1.82-.09-4.15-.04-6.73.09-2.55.07-5.59.27-8.79.22-3.17.37-6.78.72-10.52.33-3.76.77-7.73,1.34-11.89,1.21-9,2.86-17.94,4.93-26.78,1.12-4.69,2.32-9.54,4.14-13.97,1.78-4.47,4.35-8.36,7.61-11.73,3.24-3.39,7.12-6.31,10.87-9.52l11.6-9.69c7.85-6.61,16.07-13.32,24.4-20.17,8.32-6.86,16.83-13.76,25.44-20.57,8.58-6.84,17.27-13.56,25.87-20.14l12.86-9.69,12.68-9.32c8.06-5.85,16.16-11.64,24.31-17.35,7.79-5.46,15.2-10.56,22.06-15.26l18.84-12.7,7.86-5.29c2.47-1.59,4.51-3.28,6.97-4.2,4.88-1.85,10.49-1.51,15.09-.49,2.23.43,4.22,1.06,5.61,1.53l2.23.83h0Z"/>
  <path class="cls-1" d="m509.75,285.26c0,42.85-34.33,77.58-76.68,77.58s-76.68-34.74-76.68-77.58,34.33-77.58,76.68-77.58,76.68,34.74,76.68,77.58h0Zm38.54-165.97c-26.96,0-48.81,22.11-48.81,49.39s21.85,49.39,48.81,49.39,48.81-22.11,48.81-49.39-21.85-49.39-48.81-49.39Z"/>
</svg>