<svg xmlns="http://www.w3.org/2000/svg" xmlns:xlink="http://www.w3.org/1999/xlink" xml:space="preserve" id="Icon" x="0" y="0" style="enable-background:new 0 0 800 800" transform="rotate(180)" version="1.1" viewBox="0 0 800 800"><style>.st1{opacity:.1;clip-path:url(#SVGID_00000145042727010534443240000002257012180551021486_);enable-background:new}</style><switch><g><g id="Rounded_bg_00000026867544681844145530000006289535749523243917_"><path id="Bg_00000164508008497729642430000006775227613826386315_" d="M800.6 711.6c0 49.1-39.8 88.9-88.9 88.9H89.5C40.4 800.5.7 760.7.7 711.6V89.4C.7 40.3 40.4.5 89.5.5h622.2c49.1 0 88.9 39.8 88.9 88.9v622.2z" style="fill:#e74c3c"/><g id="Inner_Shadow_00000092414963779526255370000007520640371838229179_"><defs><path id="SVGID_1_" d="M800.6 711.6c0 49.1-39.8 88.9-88.9 88.9H89.5C40.4 800.5.7 760.7.7 711.6V89.4C.7 40.3 40.4.5 89.5.5h622.2c49.1 0 88.9 39.8 88.9 88.9v622.2z"/></defs><clipPath id="SVGID_00000068641091217885362830000006774411516861172908_"><use xlink:href="#SVGID_1_" style="overflow:visible"/></clipPath><path d="M747.1.5h-40.5c27 .6 48.5 23 47.9 50v652.8c-.1 27.6-22.4 49.9-50 49.9H50.3c-27.6-.1-49.9-22.4-49.9-50v44c0 29.4 23.9 53.3 53.3 53.3H747c29.5 0 53.3-23.9 53.3-53.3V53.8C800.4 24.4 776.5.5 747.1.5z" style="opacity:.1;clip-path:url(#SVGID_00000068641091217885362830000006774411516861172908_);enable-background:new"/></g><path d="M238.5 71.1c0-14.4-10-18.8-67.5-16.9-48.1 1.9-71.9 7.5-86.3 25s-18.1 53.1-18.8 95.6c0 30 0 58.1 15.6 58.1 21.3 0 21.3-49.4 38.8-76.9 33.9-54.3 118.2-66.1 118.2-84.9z" style="opacity:.3;fill:#fff;enable-background:new"/></g><g id="Stop"><path d="M549.5 653.7H251.8c-40.9 0-74-33.1-74-74V282.1c0-40.9 33.1-74 74-74h297.6c40.9 0 74 33.1 74 74v297.6c0 40.9-33.1 74-73.9 74z" style="opacity:.3"/><path d="M549.5 623.7H251.8c-40.9 0-74-33.1-74-74V252.1c0-40.9 33.1-74 74-74h297.6c40.9 0 74 33.1 74 74v297.6c0 40.9-33.1 74-73.9 74z" style="fill:#fff"/></g></g></switch></svg>