<?xml version="1.0" encoding="UTF-8"?>
<svg id="Icon" xmlns="http://www.w3.org/2000/svg" xmlns:xlink="http://www.w3.org/1999/xlink" viewBox="0 0 800.2 800">
  <defs>
    <style>
      .cls-1, .cls-2 {
        fill-rule: evenodd;
      }

      .cls-1, .cls-3 {
        fill: #fff;
      }

      .cls-2, .cls-3 {
        opacity: .3;
      }

      .cls-2, .cls-3, .cls-4 {
        isolation: isolate;
      }

      .cls-5 {
        fill: #3498db;
      }

      .cls-6 {
        clip-path: url(#clippath);
      }

      .cls-7 {
        fill: none;
      }

      .cls-4 {
        opacity: .1;
      }
    </style>
    <clipPath id="clippath">
      <path class="cls-7" d="m800.2,711.1c0,49.1-39.8,88.9-88.9,88.9H89.1c-49.1,0-88.8-39.8-88.8-88.9V88.9c0-49.1,39.7-88.9,88.8-88.9h622.2c49.1,0,88.9,39.8,88.9,88.9v622.2h0Z"/>
    </clipPath>
  </defs>
  <g id="Rounded_bg" data-name="Rounded bg">
    <path id="Bg" class="cls-5" d="m800.2,711.1c0,49.1-39.8,88.9-88.9,88.9H89.1c-49.1,0-88.8-39.8-88.8-88.9V88.9c0-49.1,39.7-88.9,88.8-88.9h622.2c49.1,0,88.9,39.8,88.9,88.9v622.2h0Z"/>
    <g id="Inner_Shadow" data-name="Inner Shadow">
      <g class="cls-6">
        <path class="cls-4" d="m746.7,0h-40.5c27,.6,48.5,23,47.9,50v652.8c-.1,27.6-22.4,49.9-50,49.9H49.9c-27.6-.1-49.9-22.4-49.9-50v44c0,29.4,23.9,53.3,53.3,53.3h693.3c29.5,0,53.3-23.9,53.3-53.3V53.3c.1-29.4-23.8-53.3-53.2-53.3h0Z"/>
      </g>
    </g>
    <path class="cls-3" d="m238.1,70.6c0-14.4-10-18.8-67.5-16.9-48.1,1.9-71.9,7.5-86.3,25s-18.1,53.1-18.8,95.6c0,30,0,58.1,15.6,58.1,21.3,0,21.3-49.4,38.8-76.9,33.9-54.3,118.2-66.1,118.2-84.9h0Z"/>
  </g>
  <path id="Pause" class="cls-2" d="m514.17,185.17c31.67,0,57.33,25.67,57.33,57.33v344c0,31.67-25.67,57.33-57.33,57.33s-57.33-25.67-57.33-57.33V242.5c0-31.66,25.67-57.33,57.33-57.33Zm-229.33,0c31.67,0,57.33,25.67,57.33,57.33v344c0,31.67-25.67,57.33-57.33,57.33s-57.33-25.67-57.33-57.33V242.5c0-31.66,25.67-57.33,57.33-57.33Z"/>
  <path id="Pause-2" class="cls-1" d="m514.17,155.17c31.67,0,57.33,25.67,57.33,57.33v344c0,31.67-25.67,57.33-57.33,57.33s-57.33-25.67-57.33-57.33V212.5c0-31.66,25.67-57.33,57.33-57.33Zm-229.33,0c31.67,0,57.33,25.67,57.33,57.33v344c0,31.67-25.67,57.33-57.33,57.33s-57.33-25.67-57.33-57.33V212.5c0-31.66,25.67-57.33,57.33-57.33Z"/>
</svg>