<?xml version="1.0" encoding="iso-8859-1"?>
<!-- Uploaded to: SVG Repo, www.svgrepo.com, Generator: SVG Repo Mixer Tools -->
<svg height="800px" width="800px" version="1.1" id="Layer_1" xmlns="http://www.w3.org/2000/svg" xmlns:xlink="http://www.w3.org/1999/xlink" 
	 viewBox="0 0 496 496" xml:space="preserve">
<path style="fill:#CE0909;" d="M496,262.4c0,84-68,153.6-152.8,153.6H152.8C68,416,0,346.4,0,262.4v-28.8C0,149.6,68,80,152.8,80
	h190.4C428,80,496,149.6,496,233.6V262.4z"/>
<g>
	<path style="fill:#B70000;" d="M152,80h191.2C428,80,496,149.6,496,233.6v28.8c0,84-68.8,152-152.8,152"/>
	<path style="fill:#B70000;" d="M196.8,193.6c-2.4-4.8-6.4-7.2-11.2-7.2s-9.6,3.2-11.2,7.2l-48.8,109.6c-3.2,6.4,0,13.6,6.4,16.8
		c6.4,3.2,13.6,0,16.8-6.4l36.8-83.2l12,26.4c-5.6,0.8-10.4,5.6-10.4,12c0,7.2,5.6,12,12.8,12h8l14.4,32.8c2.4,4.8,6.4,8,11.2,8
		c1.6,0,3.2,0,4.8-0.8c6.4-3.2,9.6-10.4,6.4-16.8L196.8,193.6z"/>
</g>
<path style="fill:#CE0909;" d="M356,264c-7.2,0-12,5.6-12,12.8v3.2c0,8-4,16-12.8,16H288v-32h36.8c20.8,0,35.2-16,35.2-36.8V224
	c0-20.8-14.4-40-35.2-40H312c-7.2,0-12.8,4.8-12.8,12s5.6,12,12.8,12h12.8c7.2,0,11.2,8.8,11.2,16v3.2c0,7.2-4.8,12.8-11.2,12.8H288
	v-41.6c0-7.2-4.8-12.8-12-12.8s-12,5.6-12,12.8V308c0,7.2,6.4,12,12.8,12h54.4c22.4,0,36.8-17.6,36.8-40v-3.2
	C368,269.6,363.2,264,356,264z"/>
<g>
	<path style="fill:#FFFFFF;" d="M196.8,183.2c-2.4-4.8-6.4-7.2-11.2-7.2s-9.6,3.2-11.2,7.2l-48.8,109.6c-3.2,6.4,0,13.6,6.4,16.8
		c6.4,3.2,13.6,0,16.8-6.4l36.8-83.2l12,26.4c-5.6,0.8-10.4,7.2-10.4,13.6c0,7.2,5.6,13.6,12.8,13.6h8l14.4,31.2
		c2.4,4.8,6.4,7.2,11.2,7.2c1.6,0,3.2-0.8,4.8-1.6c6.4-3.2,9.6-10.4,6.4-16.8L196.8,183.2z"/>
	<path style="fill:#FFFFFF;" d="M356,253.6c-7.2,0-12,5.6-12,12.8v3.2c0,8-4,18.4-12.8,18.4H288v-32h36.8
		c20.8,0,35.2-18.4,35.2-39.2v-3.2c0-20.8-14.4-37.6-35.2-37.6H312c-7.2,0-12.8,4.8-12.8,12s5.6,12,12.8,12h12.8
		c7.2,0,11.2,6.4,11.2,13.6v3.2c0,7.2-4.8,15.2-11.2,15.2H288v-44c0-7.2-4.8-12.8-12-12.8s-12,5.6-12,12.8v109.6
		c0,7.2,6.4,14.4,12.8,14.4h54.4c22.4,0,36.8-20,36.8-42.4v-3.2C368,259.2,363.2,253.6,356,253.6z"/>
</g>
</svg>