<?xml version="1.0" encoding="UTF-8"?>
<svg id="Icon" xmlns="http://www.w3.org/2000/svg" viewBox="0 0 24 24">
  <defs>
    <style>
      .cls-1, .cls-2 {
        fill: #fff;
      }

      .cls-2 {
        isolation: isolate;
        opacity: .3;
      }

      .cls-3 {
        fill: #3498db;
      }

      .cls-4 {
        opacity: .1;
      }

      .cls-5 {
        opacity: .3;
      }
    </style>
  </defs>
  <g id="Circle_backround" data-name="Circle backround">
    <circle id="Bg" class="cls-3" cx="12" cy="12" r="12"/>
    <g id="Inner_Shadow" data-name="Inner Shadow" class="cls-4">
      <path d="m12,0C7.22,0,3.1,2.79,1.17,6.83,3,3.14,6.82.6,11.22.6c6.2,0,11.22,5.02,11.22,11.22s-5.02,11.22-11.22,11.22S.05,18.07,0,11.91v.09c0,6.63,5.37,12,12,12s12-5.37,12-12S18.63,0,12,0Z"/>
    </g>
    <path id="inner_glow" data-name="inner glow" class="cls-2" d="m3.9,4.97c.84-1.33,2.64-2.44,4.52-2.78.47-.07.94-.11,1.33.04.3.11.54.39.38.71-.13.26-.49.38-.77.47-1.74.56-3.36,1.2-4.33,2.68-.38.56-.92,2.7-1.61,2.31-.73-.43-.58-1.78.49-3.43h0Z"/>
  </g>
  <path class="cls-5" d="m16.81,14.04l-4.48,4.9c-.37.41-.88.61-1.39.61-.46,0-.91-.16-1.27-.5-.77-.71-.82-1.9-.12-2.67l3.31-3.62-3.42-3.72c-.71-.77-.65-1.96.12-2.67.77-.71,1.96-.65,2.67.12l4.58,5c.66.72.66,1.83,0,2.55Z"/>
  <path class="cls-1" d="m16.81,13.14l-4.48,4.9c-.37.41-.88.61-1.39.61-.46,0-.91-.16-1.27-.5-.77-.71-.82-1.9-.12-2.67l3.31-3.62-3.42-3.72c-.71-.77-.65-1.96.12-2.67.77-.71,1.96-.65,2.67.12l4.58,5c.66.72.66,1.83,0,2.55Z"/>
</svg>