<?xml version="1.0" encoding="UTF-8"?>
<svg id="Layer_1" data-name="Layer 1" xmlns="http://www.w3.org/2000/svg" viewBox="0 0 800 800">
  <defs>
    <style>
      .cls-1 {
        fill: #e74c3c;
      }

      .cls-2 {
        fill: #bdc3c7;
      }

      .cls-3 {
        fill: #c0392b;
      }

      .cls-4 {
        fill: #ecf0f1;
      }
    </style>
  </defs>
  <path class="cls-4" d="m400,0C179.09,0,0,179.09,0,400s179.09,400,400,400,400-179.1,400-400S620.9,0,400,0Zm0,233.33c92.03,0,166.67,74.62,166.67,166.67s-74.63,166.67-166.67,166.67-166.67-74.63-166.67-166.67,74.62-166.67,166.67-166.67Z"/>
  <path class="cls-2" d="m3.12,350c-2.07,16.67-3.12,33.33-3.12,50,0,220,179.09,400,400,400s400-180,400-400c0-16.67-1.07-33.33-3.13-50-24.77,196.67-193,350-396.87,350S27.9,546.67,3.13,350h0Z"/>
  <path class="cls-2" d="m400,133.33c-92.05,0-166.67,74.62-166.67,166.67,0,17.6,3.27,34.07,8.33,50,21.39-67.36,83.89-116.67,158.33-116.67s136.93,49.31,158.33,116.67c5.07-15.93,8.33-32.4,8.33-50,0-92.05-74.63-166.67-166.67-166.67Z"/>
  <path class="cls-1" d="m682.8,116.67c-39.03-40-83.7-70-131.83-86.67l-88.4,216.67c20.07,6.67,38.97,16.67,55.23,33.33,16.3,16.67,27.97,36.67,36.1,56.67l216.57-90c-19.53-46.67-48.6-90-87.67-130h0ZM248.97,30c-48.15,16.67-92.79,46.67-131.84,86.67S49,200,29.47,246.67l216.55,90c8.14-20,19.82-40,36.09-56.67,16.27-16.67,35.18-26.67,55.26-33.33L248.97,30h0Zm521.5,520l-216.57-90c-8.13,20-19.8,40-36.1,56.67-16.27,16.67-35.17,26.67-55.23,36.67l88.4,216.67c48.13-20,92.8-50,131.83-86.67,39.07-40,68.13-86.67,87.67-133.33Zm-524.47-90l-216.55,90c19.53,46.67,48.6,93.33,87.65,133.33,39.05,36.67,83.69,66.67,131.85,86.67l88.4-216.67c-20.08-10-38.98-20-55.26-36.67-16.27-16.67-27.96-36.67-36.09-56.67h0Z"/>
  <path class="cls-3" d="m75,530l-45.83,20c19.53,46.67,48.45,93.33,87.5,133.33,39.05,36.67,84.14,66.67,132.29,86.67l35.41-86.67c-85.57-26.67-158.59-80-209.37-153.33h0Zm650,0c-50.8,73.33-123.8,126.67-209.37,153.33l35.4,86.67c48.17-20,92.2-50,131.27-86.67,39.03-40,69-86.67,88.53-133.33l-45.83-20Z"/>
  <path class="cls-3" d="m304.17,163.33c-42.33,30-70.83,80-70.83,136.67,0,10,.9,20,3.13,33.33l9.37,3.33c8.14-20,20.19-40,36.46-56.67,16.27-16.67,35.14-26.67,55.21-36.67l-33.33-80Zm191.67,0l-33.33,80c20.07,10,38.93,20,55.2,36.67,16.27,16.67,28.33,36.67,36.47,56.67l9.37-3.33c2.23-13.33,3.13-23.33,3.13-33.33,0-56.67-28.5-106.67-70.83-136.67Z"/>
</svg>