<?xml version="1.0" encoding="UTF-8"?>
<svg id="Layer_1" data-name="Layer 1" xmlns="http://www.w3.org/2000/svg" viewBox="0 0 16 16">
  <defs>
    <style>
      .cls-1, .cls-2 {
        fill: #fff;
      }

      .cls-2, .cls-3 {
        isolation: isolate;
        opacity: .3;
      }

      .cls-3, .cls-4 {
        fill: #010101;
      }

      .cls-5 {
        fill: #7f8c8d;
      }

      .cls-6 {
        opacity: .1;
      }
    </style>
  </defs>
  <g id="Circle_backround-12" data-name="Circle backround-12">
    <circle id="Bg-12" class="cls-5" cx="8" cy="8" r="8"/>
    <g id="Inner_Shadow-12" data-name="Inner Shadow-12" class="cls-6">
      <path class="cls-4" d="m8,0C4.82,0,2.07,1.86.78,4.55,2,2.09,4.55.4,7.48.4c4.13,0,7.48,3.35,7.48,7.48s-3.35,7.48-7.48,7.48S.03,12.04,0,7.94v.06c0,4.42,3.58,8,8,8s8-3.58,8-8S12.42,0,8,0Z"/>
    </g>
    <path id="inner_glow-12" data-name="inner glow-12" class="cls-2" d="m2.6,3.31c.56-.89,1.76-1.62,3.01-1.85.31-.05.62-.08.89.02.2.08.36.26.25.48-.09.17-.32.25-.51.31-1.16.38-2.24.8-2.89,1.79-.25.38-.61,1.8-1.08,1.54-.49-.29-.39-1.19.33-2.29h0Z"/>
  </g>
  <g id="Up-3">
    <path class="cls-3" d="m11.14,9.82l-2.58-4.47c-.09-.16-.25-.25-.44-.25s-.34.09-.44.25l-2.58,4.47c-.09.16-.09.35,0,.5.09.16.25.25.44.25h5.17c.18,0,.34-.09.44-.25.09-.16.09-.34,0-.5h-.01Z"/>
    <path class="cls-1" d="m11.14,9.22l-2.58-4.47c-.09-.16-.25-.25-.44-.25s-.34.09-.44.25l-2.58,4.47c-.09.16-.09.35,0,.5.09.16.25.25.44.25h5.17c.18,0,.34-.09.44-.25.09-.16.09-.34,0-.5h-.01Z"/>
  </g>
</svg>