<?xml version="1.0" encoding="UTF-8"?>
<svg id="Layer_1" data-name="Layer 1" xmlns="http://www.w3.org/2000/svg" viewBox="0 0 666.67 766.67">
  <defs>
    <style>
      .cls-1 {
        fill: #7f8c8d;
      }

      .cls-2 {
        fill: #95a5a6;
      }

      .cls-3 {
        fill: #bdc3c7;
      }

      .cls-4 {
        fill: #27ae60;
      }

      .cls-5 {
        fill: #ecf0f1;
      }
    </style>
  </defs>
  <path class="cls-3" d="m33.33,100v566.67c0,36.67,29.85,66.67,66.67,66.67h466.67c36.83,0,66.67-30,66.67-66.67V100c0,36.67-29.83,66.67-66.67,66.67H100c-36.82,0-66.67-30-66.67-66.67Z"/>
  <path class="cls-2" d="m33.33,133.33v156.67c9.82,6.67,21.17,10,33.33,10h533.33c12.17,0,23.5-3.33,33.33-10v-156.67c0,36.67-29.83,66.67-66.67,66.67H100c-36.82,0-66.67-30-66.67-66.67Z"/>
  <path class="cls-4" d="m333.33,266.67h-38.53l-64.59,110,58.33,33.33,44.8-76.67,33.33,56.67-29.17,16.67,91.67,26.67,23.97-93.33-29.17,16.67-52.1-90h-38.53,0Zm-85.42,166.67l-91.67,26.67,29.17,16.67-53.12,90,38.54,66.67h129.17v-66.67h-90.63l33.33-56.67,29.16,16.67-23.95-93.33Zm231.25,20l-57.3,33.33,44.8,80h-66.67v-33.33l-66.67,66.67,66.67,66.67v-33.33h106.27l37.47-66.67-64.57-113.33Z"/>
  <path class="cls-2" d="m33.33,666.67v33.33c0,36.67,29.85,66.67,66.67,66.67h466.67c36.83,0,66.67-30,66.67-66.67v-33.33c0,36.67-29.83,66.67-66.67,66.67H100c-36.82,0-66.67-30-66.67-66.67Z"/>
  <path class="cls-3" d="m66.67,0C29.85,0,0,30,0,66.67v133.33c0,36.67,29.85,66.67,66.67,66.67h533.33c36.83,0,66.67-30,66.67-66.67V66.67c0-36.67-29.83-66.67-66.67-66.67H66.67Z"/>
  <path class="cls-1" d="m100,33.33c-18.41,0-33.33,13.33-33.33,33.33v100c0,16.67,14.92,33.33,33.33,33.33h466.67c18.4,0,33.33-16.67,33.33-33.33v-100c0-20-14.93-33.33-33.33-33.33H100Z"/>
  <path class="cls-1" d="m333.33,266.67h-38.53l-18.77,33.33h114.6l-18.77-33.33h-38.53Z"/>
  <path class="cls-5" d="m281.27,14.58l-26.06,18.75-12.5,9.37-9.37-9.37-33.33,33.33h-33.33l-33.33-33.33-66.67,66.67v66.67c0,18.41,14.92,33.33,33.33,33.33h466.67c18.4,0,33.33-14.92,33.33-33.33l-33.33-33.33v-33.33h-33.33l-33.33-33.33h-66.67v-16.67h-33.33l-10.4-16.67-9.4-13.54-13.53,13.54-33.33,33.33-33.33-33.33-18.73-18.75Z"/>
</svg>