<?xml version="1.0" encoding="UTF-8"?>
<svg id="Icon" xmlns="http://www.w3.org/2000/svg" viewBox="0 0 800 800">
  <defs>
    <style>
      .cls-1, .cls-2 {
        fill: #fff;
      }

      .cls-2 {
        isolation: isolate;
        opacity: .3;
      }

      .cls-3 {
        fill: #7cb342;
      }

      .cls-4 {
        opacity: .3;
      }

      .cls-5 {
        opacity: .1;
      }
    </style>
  </defs>
  <g id="Circle_backround" data-name="Circle backround">
    <circle id="Bg" class="cls-3" cx="400" cy="400" r="400"/>
    <g id="Inner_Shadow" data-name="Inner Shadow" class="cls-5">
      <path d="m400,0C240.77,0,103.28,93.04,38.91,227.72,100.12,104.6,227.18,20,374,20c206.55,0,374,167.45,374,374s-167.45,374-374,374S1.63,602.17.02,397c0,1-.02,2-.02,3,0,220.91,179.09,400,400,400s400-179.09,400-400S620.91,0,400,0Z"/>
    </g>
    <path id="inner_glow" data-name="inner glow" class="cls-2" d="m130,165.63c28.12-44.38,88.12-81.25,150.62-92.5,15.62-2.5,31.25-3.75,44.37,1.25,10,3.75,18.13,13.13,12.5,23.75-4.38,8.75-16.25,12.5-25.62,15.62-58.12,18.75-111.88,40-144.38,89.38-12.5,18.75-30.62,90-53.75,76.87-24.37-14.37-19.38-59.38,16.25-114.37h0Z"/>
  </g>
  <g id="Layer_6" data-name="Layer 6">
    <path class="cls-4" d="m631.97,321.65c0,7.98-2.79,14.77-8.38,20.36l-216.7,216.7-40.71,40.71c-5.59,5.59-12.37,8.38-20.35,8.38s-14.77-2.79-20.35-8.38l-40.71-40.71-108.35-108.35c-5.59-5.59-8.38-12.37-8.38-20.35s2.79-14.77,8.38-20.36l40.71-40.71c5.59-5.59,12.37-8.38,20.35-8.38s14.77,2.79,20.35,8.38l88,88.3,196.35-196.65c5.59-5.59,12.37-8.38,20.35-8.38s14.77,2.79,20.35,8.38l40.71,40.71c5.59,5.59,8.38,12.37,8.38,20.35Z"/>
    <path class="cls-1" d="m631.97,291.65c0,7.98-2.79,14.77-8.38,20.36l-216.7,216.7-40.71,40.71c-5.59,5.59-12.37,8.38-20.35,8.38s-14.77-2.79-20.35-8.38l-40.71-40.71-108.35-108.35c-5.59-5.59-8.38-12.37-8.38-20.35s2.79-14.77,8.38-20.36l40.71-40.71c5.59-5.59,12.37-8.38,20.35-8.38s14.77,2.79,20.35,8.38l88,88.3,196.35-196.65c5.59-5.59,12.37-8.38,20.35-8.38s14.77,2.79,20.35,8.38l40.71,40.71c5.59,5.59,8.38,12.37,8.38,20.35Z"/>
  </g>
</svg>