<?xml version="1.0" encoding="UTF-8"?>
<svg id="Layer_1" data-name="Layer 1" xmlns="http://www.w3.org/2000/svg" viewBox="0 0 16 16">
  <defs>
    <style>
      .cls-1 {
        fill: #75ef84;
      }

      .cls-2 {
        fill: #3ab94b;
      }

      .cls-3 {
        fill: #b7ffb9;
      }
    </style>
  </defs>
  <ellipse class="cls-1" cx="8" cy="8" rx="7.52" ry="7.52"/>
  <path class="cls-3" d="m8,.48C3.84.48.48,3.85.48,8s3.37,7.52,7.52,7.52V.48Z"/>
  <path class="cls-2" d="m16,8c0-2.14-.83-4.14-2.34-5.65C12.17.86,10.2.03,8.11,0c-.04,0-.07,0-.11,0s-.07,0-.11,0c-2.1.03-4.06.86-5.55,2.34C.83,3.86,0,5.86,0,8s.83,4.14,2.34,5.65c1.49,1.48,3.45,2.31,5.55,2.34.04,0,.07,0,.11,0s.07,0,.11,0c2.1-.03,4.06-.86,5.55-2.34,1.51-1.51,2.34-3.52,2.34-5.65Zm-15.03.48h2.8c.04.97.19,1.92.44,2.81H1.76c-.46-.86-.73-1.82-.79-2.81Zm14.07-.95h-2.8c-.04-.97-.19-1.92-.44-2.81h2.45c.46.86.73,1.82.79,2.81Zm-3.75,0h-2.8v-2.81h2.32c.28.88.44,1.83.48,2.81Zm-2.8-3.76V1.15c.4.26.93.78,1.43,1.59.2.32.38.67.54,1.03,0,0-1.96,0-1.96,0Zm-.95-2.62v2.62h-1.96c.16-.36.34-.71.54-1.03.5-.81,1.03-1.33,1.43-1.59Zm0,3.57v2.81h-2.8c.04-.98.21-1.93.48-2.81h2.32Zm-3.75,2.81H.97c.07-.99.34-1.95.79-2.81h2.45c-.25.89-.41,1.84-.44,2.81Zm.95.95h2.8v2.81h-2.32c-.28-.88-.44-1.83-.48-2.81Zm2.8,3.76v2.62c-.4-.26-.93-.78-1.43-1.59-.2-.32-.38-.67-.54-1.03h1.96Zm.95,2.62v-2.62h1.96c-.16.36-.34.71-.54,1.03-.5.81-1.03,1.33-1.43,1.59Zm0-3.57v-2.81h2.8c-.04.98-.21,1.93-.48,2.81h-2.32Zm3.75-2.81h2.8c-.07.99-.34,1.95-.79,2.81h-2.45c.25-.89.41-1.84.44-2.81Zm1.4-4.71h-2.16c-.21-.54-.46-1.06-.76-1.53-.23-.37-.47-.71-.73-1,1.12.33,2.15.93,3,1.78.23.23.45.48.65.74ZM6.02,1.24c-.25.29-.5.63-.73,1-.29.47-.54.99-.76,1.53h-2.16c.2-.26.41-.51.65-.74.85-.85,1.88-1.45,3-1.78Zm-3.65,11h2.16c.21.54.46,1.06.76,1.53.23.37.47.71.73,1-1.12-.33-2.15-.93-3-1.78-.24-.23-.45-.48-.65-.74Zm7.62,2.53c.25-.29.5-.63.73-1,.29-.47.54-.99.76-1.53h2.16c-.2.26-.41.51-.65.74-.85.85-1.88,1.45-3,1.78Z"/>
</svg>