<?xml version="1.0" encoding="UTF-8"?>
<svg id="Brick" xmlns="http://www.w3.org/2000/svg" viewBox="0 0 800 800">
  <defs>
    <style>
      .cls-1 {
        fill: #f39c12;
      }

      .cls-2 {
        fill: #f1c40f;
      }

      .cls-3 {
        fill: #e67e22;
      }
    </style>
  </defs>
  <path class="cls-3" d="m0,253.33v280s400,266.67,400,266.67v-280L0,253.33Z"/>
  <path class="cls-1" d="m800,253.33v280l-400,266.67v-280l400-266.67Z"/>
  <path class="cls-2" d="m400,0L0,253.33l400,266.67,400-266.67L400,0Z"/>
  <path class="cls-3" d="m283.33,73.33v50c0,43.33,52.23,76.67,116.67,76.67s116.67-33.33,116.67-76.67v-50h-233.33Z"/>
  <path class="cls-3" d="m283.33,73.33v50c0,43.33,52.23,76.67,116.67,76.67v-126.67h-116.67Z"/>
  <path class="cls-2" d="m516.67,75c0,41.42-52.23,75-116.67,75s-116.67-33.58-116.67-75S335.57,0,400,0s116.67,33.58,116.67,75Z"/>
  <path class="cls-3" d="m500,206.67v50c0,43.33,52.23,76.67,116.67,76.67s116.67-33.33,116.67-76.67v-50h-233.33Z"/>
  <path class="cls-3" d="m500,206.67v50c0,43.33,52.23,76.67,116.67,76.67v-126.67h-116.67Z"/>
  <path class="cls-2" d="m733.33,208.33c0,41.42-52.23,75-116.67,75s-116.67-33.58-116.67-75,52.23-75,116.67-75,116.67,33.58,116.67,75Z"/>
  <path class="cls-3" d="m66.67,190v50c0,43.33,52.23,76.67,116.67,76.67s116.67-33.33,116.67-76.67v-50H66.67Z"/>
  <path class="cls-3" d="m66.67,190v50c0,43.33,52.23,76.67,116.67,76.67v-126.67h-116.67Z"/>
  <path class="cls-2" d="m300,191.67c0,41.42-52.23,75-116.67,75s-116.67-33.58-116.67-75,52.23-75,116.67-75,116.67,33.58,116.67,75Z"/>
  <path class="cls-3" d="m283.33,323.33v50c0,43.33,52.23,76.67,116.67,76.67s116.67-33.33,116.67-76.67v-50h-233.33Z"/>
  <path class="cls-3" d="m283.33,323.33v50c0,43.33,52.23,76.67,116.67,76.67v-126.67h-116.67Z"/>
  <path class="cls-2" d="m516.67,325c0,41.42-52.23,75-116.67,75s-116.67-33.58-116.67-75,52.23-75,116.67-75,116.67,33.58,116.67,75Z"/>
</svg>