<svg xmlns="http://www.w3.org/2000/svg" xml:space="preserve" id="Warning" x="0" y="0" style="enable-background:new 0 0 800 800" version="1.1" viewBox="0 0 800 800"><style>.st2{fill:#fff170}</style><switch><g><path d="M398.9 38.1c-37.5-3.8-65.3 26.6-77.3 60.9-99.2 198-198.3 395.9-297.4 593.9-23.5 49.5 22.1 110.4 76.1 106.6h597.2c54.1 3.8 99.7-57.1 76.1-106.6C674.5 494.9 575.4 297 476.2 99c-12-34.2-39.8-64.7-77.3-60.9z" style="fill:#f39c12"/><path d="M398.9 0c-37.5-1.4-65.3 29.2-77.3 61.9L24.2 656.7C.7 706.5 46.3 767.8 100.3 761.4c99.4-.1 199.2 0 298.6 0 99.4 0 199.2-.1 298.6 0 54.1 6.4 99.7-54.9 76.1-104.7L476.2 61.9c-12-32.6-39.8-63.3-77.3-61.9z" style="fill:#f1c40f"/><path d="M401.2 210.9c30.5 0 55.1 24.6 53.1 53.1l-22.6 318.7c-2.5 16.9-18.2 28.5-35.1 26-13.5-2-24-12.6-26-26L348.1 264c-2-28.5 22.5-53.1 53.1-53.1M401.2 635.8c22 0 39.8 17.9 39.8 39.8s-17.9 39.8-39.8 39.8c-22 0-39.8-17.9-39.8-39.8s17.8-39.8 39.8-39.8" class="st2"/><linearGradient id="SVGID_1_" x1="-401.733" x2="-401.733" y1="2771.35" y2="2851.514" gradientTransform="matrix(6.25 0 0 6.25 2912 -17120.813)" gradientUnits="userSpaceOnUse"><stop offset="0" style="stop-color:#424242"/><stop offset="1" style="stop-color:#212121"/></linearGradient><path d="M401.2 211.3c29.3 0 52.8 23.6 50.9 50.9l-21.6 305.6c-2.4 16.2-17.4 27.4-33.6 25-12.9-1.9-23.1-12-25-25l-21.6-305.6c-2-27.4 21.6-50.9 50.9-50.9z" style="fill:url(#SVGID_1_)"/><linearGradient id="SVGID_00000006706762220868932680000006327097860169792670_" x1="-405.373" x2="-405.373" y1="2771.425" y2="2851.589" gradientTransform="matrix(6.25 0 0 6.25 2934.75 -17095.938)" gradientUnits="userSpaceOnUse"><stop offset="0" style="stop-color:#424242"/><stop offset="1" style="stop-color:#212121"/></linearGradient><circle cx="401.2" cy="657" r="38.2" style="fill:url(#SVGID_00000006706762220868932680000006327097860169792670_)"/><path d="M360.4 60.4c-8 10-47.8 86.8-47.8 86.8s-12 19.9 4.6 31.2c15.3 10.6 29.2-2 35.2-12 6-10 33.2-59.6 37.8-70.9 4-12.4 1.2-26-7.3-35.9-8.6-7.8-17.2-6.5-22.5.8z" class="st2"/><circle cx="266.5" cy="291.2" r="21.9" class="st2"/></g></switch></svg>