<?xml version="1.0" encoding="UTF-8"?>
<svg id="Icon" xmlns="http://www.w3.org/2000/svg" viewBox="0 0 800 800">
  <defs>
    <style>
      .cls-1, .cls-2 {
        fill: #fff;
      }

      .cls-2, .cls-3 {
        isolation: isolate;
        opacity: .3;
      }

      .cls-4 {
        fill: #e67e22;
      }

      .cls-5 {
        opacity: .1;
      }
    </style>
  </defs>
  <g id="Circle_backround" data-name="Circle backround">
    <circle id="Bg" class="cls-4" cx="400" cy="400" r="400"/>
    <g id="Inner_Shadow" data-name="Inner Shadow" class="cls-5">
      <path d="m400,0C240.8,0,103.3,93,38.9,227.7,100.1,104.6,227.2,20,374,20c206.6,0,374,167.4,374,374s-167.4,374-374,374S1.6,602.2,0,397v3c0,220.9,179.1,400,400,400s400-179.1,400-400S620.9,0,400,0Z"/>
    </g>
    <path id="inner_glow" data-name="inner glow" class="cls-2" d="m130,165.6c28.1-44.4,88.1-81.2,150.6-92.5,15.6-2.5,31.2-3.8,44.4,1.2,10,3.8,18.1,13.1,12.5,23.8-4.4,8.7-16.2,12.5-25.6,15.6-58.1,18.8-111.9,40-144.4,89.4-12.5,18.8-30.6,90-53.8,76.9-24.3-14.4-19.3-59.4,16.3-114.4h0Z"/>
  </g>
  <g id="Up-Down">
    <path class="cls-3" d="m255.2,487.1c4.5-7.9,12.7-12.6,21.8-12.6h258.3c9.1,0,17.2,4.7,21.8,12.6,4.5,7.9,4.5,17.2,0,25.1l-122.3,183.4c-7.4,12.2-19.6,16.8-28.7,16.8s-22-5.2-28.7-16.8l-122.2-183.4c-4.5-7.8-4.5-17.2,0-25.1Zm301.9-136.3l-129.2-193.7c-4.5-7.9-12.7-12.6-21.8-12.6s-17.2,4.7-21.8,12.6l-129.1,193.7c-4.5,7.9-4.5,17.3,0,25.1,4.5,7.9,12.7,12.6,21.8,12.6h258.3c9.1,0,17.2-4.7,21.8-12.6,4.5-7.8,4.5-17.2,0-25.1Z"/>
    <path class="cls-1" d="m255.2,447.1c4.5-7.9,12.7-12.6,21.8-12.6h258.3c9.1,0,17.2,4.7,21.8,12.6,4.5,7.9,4.5,17.2,0,25.1l-129.2,193.8c-4.5,7.9-12.7,12.6-21.8,12.6s-17.2-4.7-21.8-12.6l-129.1-193.8c-4.5-7.8-4.5-17.2,0-25.1Zm301.9-126.3l-129.2-193.7c-4.5-7.9-12.7-12.6-21.8-12.6s-17.2,4.7-21.8,12.6l-129.1,193.7c-4.5,7.9-4.5,17.3,0,25.1,4.5,7.9,12.7,12.6,21.8,12.6h258.3c9.1,0,17.2-4.7,21.8-12.6,4.5-7.8,4.5-17.2,0-25.1Z"/>
  </g>
</svg>