<?xml version="1.0" encoding="UTF-8"?>
<svg id="Layer_1" data-name="Layer 1" xmlns="http://www.w3.org/2000/svg" viewBox="0 0 800 800">
  <defs>
    <style>
      .cls-1 {
        fill: #fff;
      }

      .cls-2 {
        fill: #f28618;
      }

      .cls-3 {
        isolation: isolate;
        opacity: .2;
      }

      .cls-4 {
        fill: #ff9f19;
      }
    </style>
  </defs>
  <path class="cls-4" d="m713.04,800H86.96c-47.94,0-86.96-39.01-86.96-86.96V86.96C0,39.01,39.01,0,86.96,0h626.09c47.94,0,86.96,39.01,86.96,86.96v626.09c0,47.94-39.01,86.96-86.96,86.96Z"/>
  <path class="cls-2" d="m713.04,0h-313.04v800h313.04c47.94,0,86.96-39.01,86.96-86.96V86.96c0-47.94-39.01-86.96-86.96-86.96Z"/>
  <path id="Down" class="cls-1" d="m546.3,389.55c28.2,0,51,22.8,51,51,0,12.2-4.3,23.9-12.2,33.1l-143.9,166.8c-18.3,21.4-50.5,23.9-71.9,5.6-2-1.7-3.9-3.6-5.6-5.6l-143.7-166.7c-18.3-21.4-15.8-53.6,5.6-71.9,9.2-7.9,21-12.2,33.1-12.2h41.8v-.1h0v-203.9c0-28.2,22.8-51,51-51h102c28.2,0,51,22.8,51,51v203.9"/>
  <g id="Downn">
    <path id="Down_SHadow" data-name="Down SHadow" class="cls-3" d="m298,420.5v-203.9c0-28.2,22.8-51,51-51h102c28.2,0,51,22.8,51,51v203.9h41.8c28.2,0,51,22.8,51,51,0,12.2-4.3,23.9-12.2,33.1l-143.9,166.8c-18.3,21.4-50.5,23.9-71.9,5.6-2-1.7-3.9-3.6-5.6-5.6l-143.7-166.7c-18.3-21.4-15.8-53.6,5.6-71.9,9.2-7.9,21-12.2,33.1-12.2h41.8v-.1h0Z"/>
    <path id="Down-2" data-name="Down" class="cls-1" d="m298,390.5v-203.9c0-28.2,22.8-51,51-51h102c28.2,0,51,22.8,51,51v203.9h41.8c28.2,0,51,22.8,51,51,0,12.2-4.3,23.9-12.2,33.1l-143.9,166.8c-18.3,21.4-50.5,23.9-71.9,5.6-2-1.7-3.9-3.6-5.6-5.6l-143.7-166.7c-18.3-21.4-15.8-53.6,5.6-71.9,9.2-7.9,21-12.2,33.1-12.2h41.8v-.1h0Z"/>
  </g>
</svg>