<?xml version="1.0" encoding="UTF-8"?>
<svg id="Icon" xmlns="http://www.w3.org/2000/svg" xmlns:xlink="http://www.w3.org/1999/xlink" viewBox="0 0 800.2 800">
  <defs>
    <style>
      .cls-1, .cls-2 {
        fill: #fff;
      }

      .cls-2 {
        opacity: .3;
      }

      .cls-2, .cls-3, .cls-4 {
        isolation: isolate;
      }

      .cls-5 {
        clip-path: url(#clippath);
      }

      .cls-6 {
        fill: none;
      }

      .cls-3 {
        opacity: .2;
      }

      .cls-4 {
        opacity: .1;
      }

      .cls-7 {
        fill: #2ecc71;
      }
    </style>
    <clipPath id="clippath">
      <path class="cls-6" d="m800.2,711.1c0,49.1-39.8,88.9-88.9,88.9H89.1c-49.1,0-88.8-39.8-88.8-88.9V88.9C.3,39.8,40,0,89.1,0h622.2c49.1,0,88.9,39.8,88.9,88.9v622.2Z"/>
    </clipPath>
  </defs>
  <g id="Rounded_bg" data-name="Rounded bg">
    <path id="Bg" class="cls-7" d="m800.2,711.1c0,49.1-39.8,88.9-88.9,88.9H89.1c-49.1,0-88.8-39.8-88.8-88.9V88.9C.3,39.8,40,0,89.1,0h622.2c49.1,0,88.9,39.8,88.9,88.9v622.2Z"/>
    <g id="Inner_Shadow" data-name="Inner Shadow">
      <g class="cls-5">
        <path class="cls-4" d="m746.7,0h-40.5c27,.6,48.5,23,47.9,50v652.8c-.1,27.6-22.4,49.9-50,49.9H49.9c-27.6-.1-49.9-22.4-49.9-50v44c0,29.4,23.9,53.3,53.3,53.3h693.3c29.5,0,53.3-23.9,53.3-53.3V53.3c.1-29.4-23.8-53.3-53.2-53.3Z"/>
      </g>
    </g>
    <path class="cls-2" d="m238.1,70.6c0-14.4-10-18.8-67.5-16.9-48.1,1.9-71.9,7.5-86.3,25s-18.1,53.1-18.8,95.6c0,30,0,58.1,15.6,58.1,21.3,0,21.3-49.4,38.8-76.9,33.9-54.3,118.2-66.1,118.2-84.9Z"/>
  </g>
  <g id="Play">
    <path class="cls-3" d="m607.55,363.45c52.94,28.79,52.94,103.3,0,132.09l-319.62,173.81c-51.45,27.98-114.67-8.44-114.67-66.05V255.69c0-57.61,63.23-94.02,114.67-66.05l319.62,173.81Z"/>
    <path class="cls-1" d="m607.55,333.45c52.94,28.79,52.94,103.3,0,132.09l-319.62,173.81c-51.45,27.98-114.67-8.44-114.67-66.05V225.69c0-57.61,63.23-94.02,114.67-66.05l319.62,173.81Z"/>
  </g>
</svg>