<?xml version="1.0" encoding="UTF-8"?>
<svg id="Icon" xmlns="http://www.w3.org/2000/svg" xmlns:xlink="http://www.w3.org/1999/xlink" viewBox="0 0 800.2 800">
  <defs>
    <style>
      .cls-1, .cls-2 {
        fill: #fff;
      }

      .cls-2 {
        opacity: .3;
      }

      .cls-2, .cls-3 {
        isolation: isolate;
      }

      .cls-4 {
        fill: #e67e22;
      }

      .cls-5 {
        opacity: .3;
      }

      .cls-6 {
        clip-path: url(#clippath);
      }

      .cls-7 {
        fill: none;
      }

      .cls-3 {
        opacity: .1;
      }
    </style>
    <clipPath id="clippath">
      <path class="cls-7" d="m800.2,711.1c0,49.1-39.8,88.9-88.9,88.9H89.1c-49.1,0-88.8-39.8-88.8-88.9V88.9C.3,39.8,40,0,89.1,0h622.2c49.1,0,88.9,39.8,88.9,88.9v622.2Z"/>
    </clipPath>
  </defs>
  <g id="Rounded_bg" data-name="Rounded bg">
    <path id="Bg" class="cls-4" d="m800.2,711.1c0,49.1-39.8,88.9-88.9,88.9H89.1c-49.1,0-88.8-39.8-88.8-88.9V88.9C.3,39.8,40,0,89.1,0h622.2c49.1,0,88.9,39.8,88.9,88.9v622.2Z"/>
    <g id="Inner_Shadow" data-name="Inner Shadow">
      <g class="cls-6">
        <path class="cls-3" d="m746.7,0h-40.5c27,.6,48.5,23,47.9,50v652.8c-.1,27.6-22.4,49.9-50,49.9H49.9c-27.6-.1-49.9-22.4-49.9-50v44c0,29.4,23.9,53.3,53.3,53.3h693.3c29.5,0,53.3-23.9,53.3-53.3V53.3c.1-29.4-23.8-53.3-53.2-53.3Z"/>
      </g>
    </g>
    <path class="cls-2" d="m238.1,70.6c0-14.4-10-18.8-67.5-16.9-48.1,1.9-71.9,7.5-86.3,25s-18.1,53.1-18.8,95.6c0,30,0,58.1,15.6,58.1,21.3,0,21.3-49.4,38.8-76.9,33.9-54.3,118.2-66.1,118.2-84.9Z"/>
  </g>
  <g id="RSS">
    <path id="RSS-2" data-name="RSS" class="cls-5" d="m250.13,488.9c-45.86,0-81.88,36.02-81.88,81.88s36.02,81.88,81.88,81.88,81.88-36.02,81.88-81.88-36.02-81.88-81.88-81.88Zm-3.21-327.53c-19.67,0-40.94,1.61-65.53,4.92-6.52,1.61-13.14,8.23-13.14,16.36v83.49c0,4.92,1.61,9.83,6.52,13.14s8.23,4.92,13.14,3.31c19.67-3.31,39.33-6.52,58.91-6.52,163.77,0,296.33,132.66,296.33,296.33,0,19.67-1.61,39.33-6.52,58.91-1.61,4.92,0,9.83,3.31,13.14s8.23,6.52,13.14,6.52h83.49c8.23,0,14.75-6.52,16.36-13.14,3.31-22.88,4.92-44.25,4.92-65.53,1.61-225.89-183.34-410.93-410.93-410.93Zm1.61,163.77c-22.88,0-45.86,3.31-67.13,9.83-6.52,1.61-11.44,8.23-11.44,16.36v88.41c0,4.92,3.31,11.44,8.23,13.14,4.92,3.31,11.44,3.31,16.36,1.61,17.97-8.23,36.02-13.14,55.69-13.14,72.05,0,130.96,58.91,130.96,130.96,0,19.67-4.92,37.63-13.14,55.69-1.61,4.92-1.61,11.44,1.61,16.36,3.21,4.92,8.23,8.23,13.14,8.23h90.01c6.52,0,13.14-4.92,16.36-11.44,6.52-22.88,9.83-45.86,9.83-67.13-3.21-137.48-114.6-248.86-250.47-248.86Z"/>
    <path class="cls-1" d="m250.13,457.22c-45.86,0-81.88,36.02-81.88,81.88s36.02,81.88,81.88,81.88,81.88-36.02,81.88-81.88-36.02-81.88-81.88-81.88Zm-3.21-327.53c-19.67,0-40.94,1.61-65.53,4.92-6.52,1.61-13.14,8.23-13.14,16.36v83.49c0,4.92,1.61,9.83,6.52,13.14s8.23,4.92,13.14,3.31c19.67-3.31,39.33-6.52,58.91-6.52,163.77,0,296.33,132.66,296.33,296.33,0,19.67-1.61,39.33-6.52,58.91-1.61,4.92,0,9.83,3.31,13.14s8.23,6.52,13.14,6.52h83.49c8.23,0,14.75-6.52,16.36-13.14,3.31-22.88,4.92-44.25,4.92-65.53,1.61-225.89-183.34-410.93-410.93-410.93Zm1.61,163.77c-22.88,0-45.86,3.31-67.13,9.83-6.52,1.61-11.44,8.23-11.44,16.36v88.41c0,4.92,3.31,11.44,8.23,13.14,4.92,3.31,11.44,3.31,16.36,1.61,17.97-8.23,36.02-13.14,55.69-13.14,72.05,0,130.96,58.91,130.96,130.96,0,19.67-4.92,37.63-13.14,55.69-1.61,4.92-1.61,11.44,1.61,16.36,3.21,4.92,8.23,8.23,13.14,8.23h90.01c6.52,0,13.14-4.92,16.36-11.44,6.52-22.88,9.83-45.86,9.83-67.13-3.21-137.48-114.6-248.86-250.47-248.86Z"/>
  </g>
</svg>