<?xml version="1.0" encoding="UTF-8"?>
<svg id="Layer_1" data-name="Layer 1" xmlns="http://www.w3.org/2000/svg" viewBox="0 0 799.99 710.56">
  <defs>
    <style>
      .cls-1, .cls-2 {
        fill: #e74c3c;
      }

      .cls-3, .cls-4 {
        fill: #fff;
      }

      .cls-4 {
        opacity: .3;
      }

      .cls-5 {
        opacity: .3;
      }

      .cls-5, .cls-2 {
        isolation: isolate;
      }
    </style>
  </defs>
  <path id="Shadow" class="cls-2" d="m779.41,135.71c-25.22-50.01-59.79-82.23-102.64-95.66-52.71-16.52-119.74-4.4-179.09,32.38-31.59,19.58-64.77,49.54-86.31,77.95l-10.74,14.17-9.25-10.62c-24.64-28.27-61.61-60.98-89.61-79.28-16.17-10.57-50.45-27.81-64.34-32.36-31.63-10.37-60.19-14.23-84.27-11.39-28.5,3.36-55.58,13.71-75.96,29.03-18.6,13.98-40.97,40.58-53.63,63.77C8.14,151.94,1.63,175.78.21,209.23c-1.79,42.12,7.71,81.31,31.29,129.08l9.5,19.24,47.76,73.71h0l4.41,5.88c81.18,108.26,209.26,227.56,284.68,265.18h0c9.07,4.53,17.04,8.24,17.7,8.24,2.74.03,28.3-13.75,46.65-25.15,62.61-38.89,127.67-91.4,188.43-152.08,48.15-48.08,74.63-79.7,103.87-124.05,23.65-35.87,38.87-65.84,51.06-100.55,21.2-60.37,18.96-123.21-6.16-173.03h0Z"/>
  <path id="Shadow-2" data-name="Shadow" class="cls-5" d="m779.41,135.71c-25.22-50.01-59.79-82.23-102.64-95.66-52.71-16.52-119.74-4.4-179.09,32.38-31.59,19.58-64.77,49.54-86.31,77.95l-10.74,14.17-9.25-10.62c-24.64-28.27-61.61-60.98-89.61-79.28-16.17-10.57-50.45-27.81-64.34-32.36-31.63-10.37-60.19-14.23-84.27-11.39-28.5,3.36-55.58,13.71-75.96,29.03-18.6,13.98-40.97,40.58-53.63,63.77C8.14,151.94,1.63,175.78.21,209.23c-1.79,42.12,7.71,81.31,31.29,129.08l9.5,19.24,47.76,73.71h0l4.41,5.88c81.18,108.26,209.26,227.56,284.68,265.18h0c9.07,4.53,17.04,8.24,17.7,8.24,2.74.03,28.3-13.75,46.65-25.15,62.61-38.89,127.67-91.4,188.43-152.08,48.15-48.08,74.63-79.7,103.87-124.05,23.65-35.87,38.87-65.84,51.06-100.55,21.2-60.37,18.96-123.21-6.16-173.03h0Z"/>
  <path class="cls-4" d="m49.55,340.76l-8.55-13.2h-.03s-.04-.07-.04-.07h-14.61c1.64,3.57,3.36,7.17,5.16,10.83l9.5,19.24,28.32,43.7h20.19c-2.79-3.92-6.07-8.2-9.32-13.22-16.78-25.89-30.63-47.27-30.63-47.27Z"/>
  <path class="cls-1" d="m377.85,672.33c-75.42-37.62-203.5-156.92-284.68-265.18l-4.41-5.88h56.1c38.04,0,58.06-.58,62.18-1.82,10.92-3.27,17.23-10.49,29.55-33.78,22.59-42.69,25.7-48.26,26.15-46.75.25.85,5.1,49.15,10.77,107.36,9.98,102.33,10.46,106.08,14.53,113.56,7.09,13.04,16.85,18.63,32.61,18.7,11.61,0,20.15-3.9,27.61-12.79,2.9-3.45,20.8-36.64,39.79-73.75l34.52-67.48,118.48-.45c117.97-.45,118.5-.47,124.75-3.84,13.49-7.28,20.3-18.52,20.29-33.49,0-15.68-7.7-27.67-21.86-34.05-5.86-2.64-14.88-2.86-134.88-3.27-87.98-.3-131.2.11-136.8,1.27-14.54,3.02-20.26,8.99-34.41,35.9l-12.46,23.7-1.19-5.89c-.66-3.24-5.45-50.03-10.65-103.97s-10.12-100.56-10.93-103.6c-4.17-15.61-18.61-25.9-36.19-25.76-11.98.11-22.26,5.02-28.41,13.64-2,2.8-22.05,40.4-44.56,83.55l-40.93,78.47-65.92.41-65.92.41-9.5-19.24C7.92,260.53-1.58,221.34.21,179.23c1.42-33.44,7.93-57.29,23.35-85.52,12.66-23.19,35.03-49.78,53.63-63.77C97.58,14.61,124.65,4.27,153.15.9c24.08-2.84,52.65,1.02,84.27,11.39,13.89,4.55,48.17,21.8,64.34,32.36,28,18.3,64.97,51.01,89.61,79.28l9.25,10.62,10.74-14.17c21.54-28.41,54.72-58.37,86.31-77.95,59.35-36.79,126.38-48.9,179.09-32.38,42.85,13.43,77.42,45.65,102.64,95.66,25.12,49.82,27.36,112.66,6.16,173.03-12.19,34.71-27.41,64.68-51.06,100.55-29.24,44.34-55.72,75.97-103.87,124.05-60.77,60.68-125.83,113.19-188.43,152.08-18.35,11.4-43.91,25.18-46.65,25.15-.67,0-8.63-3.71-17.7-8.24h0Z"/>
  <path class="cls-3" d="m207.05,399.44c10.92-3.27,17.23-10.49,29.55-33.78,22.59-42.69,25.7-48.26,26.15-46.75.25.85,5.1,49.15,10.77,107.36,9.98,102.33,10.46,106.08,14.53,113.56,7.09,13.04,16.85,18.63,32.61,18.7,11.61,0,20.15-3.9,27.61-12.79,2.9-3.45,20.8-36.64,39.79-73.75l34.52-67.48,118.48-.45c117.97-.45,118.5-.47,124.75-3.84,13.49-7.28,20.3-18.52,20.29-33.49,0-15.68-7.7-27.67-21.86-34.05-5.86-2.64-14.88-2.86-134.88-3.27-87.98-.3-131.2.11-136.8,1.27-14.54,3.02-20.26,8.99-34.41,35.9l-12.46,23.7-1.19-5.89c-.66-3.24-5.45-50.03-10.65-103.97s-10.12-100.56-10.93-103.6c-4.17-15.61-18.61-25.9-36.19-25.76-11.98.11-22.26,5.02-28.41,13.64-2,2.8-22.05,40.4-44.56,83.55l-40.93,78.47-65.92.41-65.92.41,47.76,73.71h56.1c38.04,0,58.06-.58,62.18-1.82h.02Z"/>
</svg>