<?xml version="1.0" encoding="utf-8"?>
<!-- Uploaded to: SVG Repo, www.svgrepo.com, Generator: SVG Repo Mixer Tools -->
<!DOCTYPE svg PUBLIC "-//W3C//DTD SVG 1.1//EN" "http://www.w3.org/Graphics/SVG/1.1/DTD/svg11.dtd">
<svg xmlns="http://www.w3.org/2000/svg" xmlns:xlink="http://www.w3.org/1999/xlink" version="1.1" id="Layer_1"  width="512" height="512" viewBox="0 0 512 512" enable-background="new 0 0 512 512" xml:space="preserve">
<g id="hdd">
	<g>
		<path fill="#967ADC" d="M458.672,469.344C458.672,492.906,439.562,512,416,512H96c-23.562,0-42.672-19.094-42.672-42.656V64.008    c0-23.57,19.109-42.672,42.672-42.672h320c23.562,0,42.672,19.102,42.672,42.672V469.344z"/>
	</g>
	<g>
		<path fill="#AC92EB" d="M458.672,448c0,23.562-19.109,42.672-42.672,42.672H96c-23.562,0-42.672-19.109-42.672-42.672V42.672    C53.328,19.109,72.438,0,96,0h320c23.562,0,42.672,19.109,42.672,42.672V448z"/>
	</g>
	<path fill="#E6E9ED" d="M256,362.672c-39.891,0-77.391-15.531-105.594-43.734c-28.203-28.219-43.734-65.71-43.734-105.602   c0-39.883,15.531-77.391,43.734-105.594C178.609,79.539,216.109,64.008,256,64.008c39.891,0,77.391,15.531,105.594,43.734   c28.203,28.203,43.734,65.711,43.734,105.594c0,39.891-15.531,77.383-43.734,105.602C333.391,347.141,295.891,362.672,256,362.672z   "/>
	<path fill="#CCD1D9" d="M256,53.336c-88.359,0-160,71.633-160,160s71.641,160.008,160,160.008c88.359,0,160-71.641,160-160.008   S344.359,53.336,256,53.336z M354.047,311.391c-12.734,12.734-27.562,22.734-44.078,29.734C292.891,348.344,274.734,352,256,352   c-18.734,0-36.891-3.656-53.969-10.875c-16.516-7-31.344-17-44.078-29.734c-12.75-12.733-22.75-27.578-29.734-44.086   c-7.219-17.078-10.891-35.234-10.891-53.969c0-18.727,3.672-36.883,10.891-53.969c6.984-16.508,16.984-31.336,29.734-44.078   c12.734-12.742,27.562-22.75,44.078-29.727c17.078-7.227,35.234-10.891,53.969-10.891c18.734,0,36.891,3.664,53.969,10.891   c16.517,6.977,31.344,16.984,44.078,29.727c12.75,12.742,22.75,27.57,29.734,44.078c7.219,17.086,10.891,35.242,10.891,53.969   c0,18.734-3.672,36.891-10.891,53.969C376.797,283.812,366.797,298.656,354.047,311.391z"/>
	<path fill="#434A54" d="M426.672,42.672c0,5.891-4.781,10.664-10.672,10.664s-10.672-4.773-10.672-10.664   C405.328,36.781,410.109,32,416,32S426.672,36.781,426.672,42.672z"/>
	<path fill="#434A54" d="M426.672,448c0,5.891-4.781,10.672-10.672,10.672s-10.672-4.781-10.672-10.672s4.781-10.656,10.672-10.656   S426.672,442.109,426.672,448z"/>
	<path fill="#5D9CEC" d="M256,256.008c-23.531,0-42.672-19.141-42.672-42.672c0-23.523,19.141-42.664,42.672-42.664   c23.531,0,42.672,19.141,42.672,42.664C298.672,236.867,279.531,256.008,256,256.008z"/>
	<path fill="#4A89DC" d="M256,160.008c-29.453,0-53.328,23.875-53.328,53.328s23.875,53.336,53.328,53.336   s53.328-23.883,53.328-53.336S285.453,160.008,256,160.008z M256,245.336c-17.641,0-32-14.352-32-32c0-17.641,14.359-32,32-32   c17.641,0,32,14.359,32,32C288,230.984,273.641,245.336,256,245.336z"/>
	<path fill="#434A54" d="M106.672,42.672c0,5.891-4.781,10.664-10.672,10.664s-10.672-4.773-10.672-10.664   C85.328,36.781,90.109,32,96,32S106.672,36.781,106.672,42.672z"/>
	<path fill="#E6E9ED" d="M90.359,320H53.328v128c0,23.562,19.109,42.672,42.672,42.672h160v-85.328   C187.688,405.344,127.25,371.656,90.359,320z"/>
	<path fill="#434A54" d="M266.672,213.336c0,5.891-4.781,10.672-10.672,10.672c-5.891,0-10.672-4.781-10.672-10.672   s4.781-10.664,10.672-10.664C261.891,202.672,266.672,207.445,266.672,213.336z"/>
	<g>
		<path fill="#967ADC" d="M306.203,419.125c-4.156-4.156-10.906-4.156-15.078,0c-2.078,2.094-3.125,4.812-3.125,7.562v31.969    c0,2.75,1.047,5.469,3.125,7.562c4.172,4.156,10.922,4.156,15.078,0c2.094-2.094,3.125-4.812,3.125-7.547l0,0v-32l0,0    C309.328,423.938,308.297,421.219,306.203,419.125z"/>
		<path fill="#967ADC" d="M338.203,419.125c-4.156-4.156-10.906-4.156-15.078,0c-2.078,2.094-3.125,4.812-3.125,7.562v31.969    c0,2.75,1.047,5.469,3.125,7.562c4.172,4.156,10.922,4.156,15.078,0c2.094-2.094,3.125-4.812,3.125-7.547l0,0v-32l0,0    C341.328,423.938,340.297,421.219,338.203,419.125z"/>
		<path fill="#967ADC" d="M373.328,426.688c0-2.75-1.031-5.469-3.125-7.562c-4.156-4.156-10.922-4.156-15.078,0    c-2.078,2.094-3.125,4.812-3.125,7.562v31.97c0,2.75,1.047,5.469,3.125,7.562c4.156,4.156,10.922,4.156,15.078,0    c2.094-2.094,3.125-4.812,3.125-7.562V426.688z"/>
	</g>
	<g>
		<path fill="#434A54" d="M175.078,435l110.391-140.094c1.578-1.875,2.531-4.281,2.531-6.906c0-5.875-4.781-10.656-10.672-10.656    c-2.625,0-5.031,0.938-6.891,2.531L130.328,390.266c-7.891,5.828-13,15.188-13,25.734c0,17.688,14.328,32,32,32    C159.891,448,169.25,442.891,175.078,435z"/>
	</g>
</g>
</svg>