<?xml version="1.0" encoding="UTF-8"?>
<svg id="Layer_1" data-name="Layer 1" xmlns="http://www.w3.org/2000/svg" viewBox="0 0 800 800">
  <defs>
    <style>
      .cls-1 {
        fill: #fff;
      }

      .cls-2 {
        fill: #f28618;
      }

      .cls-3 {
        isolation: isolate;
        opacity: .2;
      }

      .cls-4 {
        fill: #ff9f19;
      }
    </style>
  </defs>
  <path class="cls-4" d="m713.04,800H86.96c-47.94,0-86.96-39.01-86.96-86.96V86.96C0,39.01,39.01,0,86.96,0h626.09c47.94,0,86.96,39.01,86.96,86.96v626.09c0,47.94-39.01,86.96-86.96,86.96Z"/>
  <path class="cls-2" d="m713.04,0h-313.04v800h313.04c47.94,0,86.96-39.01,86.96-86.96V86.96c0-47.94-39.01-86.96-86.96-86.96Z"/>
  <g id="Upp">
    <path id="Up" class="cls-3" d="m494.5,424.05v195.8c0,27-21.9,49-49,49h-97.9c-27,0-49-21.9-49-49v-195.8h-40.1c-27,0-49-21.9-49-49,0-11.7,4.2-23,11.8-31.8l138.1-160.1c17.6-20.5,48.5-23,69-5.4,1.9,1.7,3.7,3.5,5.4,5.4l138.1,160.1c17.6,20.5,15.2,51.5-5.4,69-8.9,7.6-20.2,11.8-31.8,11.8h-40.2,0Z"/>
    <path id="Up-2" class="cls-1" d="m494.5,394.05v195.8c0,27-21.9,49-49,49h-97.9c-27,0-49-21.9-49-49v-195.8h-40.1c-27,0-49-21.9-49-49,0-11.7,4.2-23,11.8-31.8l138.1-160.1c17.6-20.5,48.5-23,69-5.4,1.9,1.7,3.7,3.5,5.4,5.4l138.1,160.1c17.6,20.5,15.2,51.5-5.4,69-8.9,7.6-20.2,11.8-31.8,11.8h-40.2,0Z"/>
  </g>
</svg>