<svg xmlns="http://www.w3.org/2000/svg" width="800" height="800" viewBox="0 0 24 24"><path fill="#95a5a6" d="m13.103 15.72 2.828-2.827 7.071 7.07-2.828 2.829z"/><path fill="#7f8c8d" d="m13.103 15.72 2.828-2.827 2.121 2.12-2.828 2.83z"/><path fill="#bdc3c7" d="M3.201 3c-3.515 3.5-3.515 9.2 0 12.7s9.213 3.5 12.728 0 3.515-9.2 0-12.7S6.716-.5 3.201 3zm2.121 2.1c2.344-2.3 6.142-2.3 8.486 0 2.343 2.4 2.343 6.2 0 8.5-2.344 2.3-6.143 2.3-8.486 0-2.343-2.3-2.343-6.1 0-8.5z"/><path fill="#ecf0f1" d="M16 9.5a6.5 6.5 0 1 1-13 0 6.5 6.5 0 1 1 13 0z"/></svg>