<svg xmlns="http://www.w3.org/2000/svg" xml:space="preserve" id="Layer_1" x="0" y="0" style="enable-background:new 0 0 800 800" version="1.1" viewBox="0 0 800 800"><style>.st0{fill:#3498db}.st1{fill:#2980b9}.st2{fill:#ecf0f1}.st3{fill:#bdc3c7}</style><path d="M88.9 0C39.8 0 0 40 0 88.9v622.2C0 760 39.8 800 88.9 800H711.1c49.1 0 88.9-40 88.9-88.9V133.3L666.7 0H88.9z" class="st0"/><path d="M177.8 0V266.6c0 22.2 19.9 44.4 44.4 44.4h355.6c24.5 0 44.4-22.2 44.4-44.4V0H177.8z" class="st1"/><path d="M177.8 0v222.2c0 24.5 19.9 44.4 44.4 44.4h355.6c24.5 0 44.4-19.9 44.4-44.4V0H177.8zM133.3 400c-24.5 0-44.4 17.8-44.4 44.4v355.5h622.3V444.4c0-26.7-19.9-44.4-44.4-44.4H133.3z" class="st2"/><path d="M88.9 755.6h622.2V800H88.9zM177.8 488.9h444.4v44.4H177.8zM177.8 577.8h444.4v44.4H177.8z" class="st3"/><path d="M444.4 44.4h133.3v177.8H444.4z" class="st0"/><path d="M444.4 44.4h133.3v44.4H444.4z" class="st1"/></svg>