<svg xmlns="http://www.w3.org/2000/svg" width="800" height="800" viewBox="0 0 24 24"><path fill="#95a5a6" d="M6 6c-.707 0-1.435.1-2.063.3C1.602 7.1-.005 9.5 0 12c-.005 2.4 1.6 4.8 3.938 5.6.974.4 2.156.4 3.187.4 1.95 0 3.172-2.1 4.875-2 1.703-.1 2.925 2 4.875 2 1.031 0 2.213 0 3.187-.4 2.337-.8 3.943-3.2 3.938-5.6.005-2.5-1.601-4.9-3.938-5.7C19.431 6.1 18.708 6 18 6H6.344z"/><path fill="#bdc3c7" d="M6 5c-.707 0-1.435.1-2.063.3C1.602 6.1-.005 8.5 0 11c-.005 2.4 1.6 4.8 3.938 5.6.974.4 2.156.4 3.187.4 1.95 0 3.172-2.1 4.875-2 1.703-.1 2.925 2 4.875 2 1.031 0 2.213 0 3.187-.4 2.337-.8 3.943-3.2 3.938-5.6.005-2.5-1.601-4.9-3.938-5.7C19.431 5.1 18.708 5 18 5H6.344z"/><path fill="#ecf0f1" d="M10 11a4 4 0 1 1-8 0 4 4 0 1 1 8 0z"/><path fill="#7f8c8d" d="M6 8c-.552 0-1 .4-1 1v1H4c-.552 0-1 .4-1 1 0 .5.448 1 1 1h1v1c0 .5.448 1 1 1s1-.5 1-1v-1h1c.552 0 1-.5 1-1 0-.6-.448-1-1-1H7V9c0-.6-.448-1-1-1z"/><path fill="#ecf0f1" d="M22 11a4 4 0 1 1-8 0 4 4 0 1 1 8 0z"/><path fill="#27ae60" d="M17 11a1 1 0 1 1-2 0 1 1 0 1 1 2 0z"/><path fill="#f39c12" d="M19 13a1 1 0 1 1-2 0 1 1 0 1 1 2 0z"/><path fill="#2980b9" d="M19 9a1 1 0 1 1-2 0 1 1 0 1 1 2 0z"/><path fill="#c0392b" d="M21 11a1 1 0 1 1-2 0 1 1 0 1 1 2 0z"/><path fill="#7f8c8d" d="M11.5 11a.5.5 0 0 0 0 1h1a.5.5 0 0 0 0-1h-1z"/></svg>