<svg xmlns="http://www.w3.org/2000/svg" width="800" height="800" viewBox="0 0 24 24"><path fill="#95a5a6" d="M23 20c0 1.1-.895 2-2 2H3c-1.105 0-2-.9-2-2V6c0-1.1.895-2 2-2h18c1.105 0 2 .9 2 2v14z"/><path fill="#bdc3c7" d="M1 19c0 1.1.895 2 2 2h18c1.105 0 2-.9 2-2V5c0-1.1-.895-2-2-2H3c-1.105 0-2 .9-2 2v14z"/><path fill="#f39c12" d="M3 5h18v14H3z"/><path fill="#e67e22" d="M16.625 8.625 6.281 19H21v-6l-4.375-4.375z"/><path fill="#f1c40f" d="M11 10a3.5 3.5 0 1 1-7 0 3.5 3.5 0 1 1 7 0z"/><path fill="#d35400" d="M8.094 11.094 3 16.188V19h13l-7.906-7.906z"/></svg>