<svg xmlns="http://www.w3.org/2000/svg" width="800" height="800" viewBox="0 0 24 24"><path fill="#95a5a6" d="M5 2c-1.105 0-2 .9-2 2v18c0 1.1.895 2 2 2h14c1.105 0 2-.9 2-2V8l-6-6H5z"/><path fill="#bdc3c7" d="M5 1c-1.105 0-2 .9-2 2v18c0 1.1.895 2 2 2h14c1.105 0 2-.9 2-2V7l-6-6H5z"/><path fill="#95a5a6" d="m21 7-6-6v4c0 1.1.895 2 2 2h4z"/><path fill="#bdc3c7" d="M12 13c-1.105 0-2 .9-2 2v4c0 1.1.895 2 2 2s2-.9 2-2v-4c0-1.1-.895-2-2-2zm0 1c.552 0 1 .4 1 1 0 .5-.448 1-1 1s-1-.5-1-1c0-.6.448-1 1-1zm0 3c.552 0 1 .4 1 1v1c0 .5-.448 1-1 1s-1-.5-1-1v-1c0-.6.448-1 1-1z"/><path fill="#7f8c8d" d="M10 1v10c0 1.1.895 2 2 2s2-.9 2-2V1h-4z"/><path fill="#95a5a6" d="M12 1v1h1V1h-1zm0 1h-1v1h1V2zm0 1v1h1V3h-1zm0 1h-1v1h1V4zm0 1v1h1V5h-1zm0 1h-1v1h1V6zm0 1v1h1V7h-1zm0 1h-1v1h1V8zm0 1v1h1V9h-1zm0 1h-1v1h1v-1zm0 1v1c.552 0 1-.5 1-1h-1z"/><path fill="#ecf0f1" d="M11 1v1h1V1h-1zm0 2v1h1V3h-1zm0 2v1h1V5h-1zm0 2v1h1V7h-1zm0 2v1h1V9h-1zm0 2c0 .5.448 1 1 1v-1h-1z"/><path fill="#95a5a6" d="M12 13c-1.105 0-2 .9-2 2v4c0 1.1.895 2 2 2s2-.9 2-2v-4c0-1.1-.895-2-2-2zm0 1c.552 0 1 .4 1 1 0 .5-.448 1-1 1s-1-.5-1-1c0-.6.448-1 1-1zm0 3c.552 0 1 .4 1 1v1c0 .5-.448 1-1 1s-1-.5-1-1v-1c0-.6.448-1 1-1z"/><path fill="#ecf0f1" d="M12 12c-1.105 0-2 .9-2 2v4c0 1.1.895 2 2 2s2-.9 2-2v-4c0-1.1-.895-2-2-2zm0 1c.552 0 1 .4 1 1 0 .5-.448 1-1 1s-1-.5-1-1c0-.6.448-1 1-1zm0 3c.552 0 1 .4 1 1v1c0 .5-.448 1-1 1s-1-.5-1-1v-1c0-.6.448-1 1-1z"/></svg>