<svg xmlns="http://www.w3.org/2000/svg" xml:space="preserve" style="enable-background:new 0 0 800 800" viewBox="0 0 800 800"><style>.st0{fill:#3e4347}</style><switch><g><g id="Layer_1"><path d="M200.2 799.7H51C51 765 84.3 737 125.6 737s74.6 28 74.6 62.7zM749 799.7H599.8c0-34.6 33.3-62.6 74.6-62.6S749 765 749 799.7M221.4 23.8l8.5-8.5 211.9 212-8.5 8.5-211.9-212z" class="st0"/><circle cx="226.8" cy="19" r="18.7" class="st0"/><path d="M357.1 227 569 15l8.5 8.5-212 212-8.4-8.5z" class="st0"/><circle cx="573.2" cy="19" r="18.7" class="st0"/><ellipse cx="400" cy="174.9" class="st0" rx="106.6" ry="62.6"/><path d="M761 734.4c-69.3 87.9-632.8 85.3-715.4 0-61.3-62.6-61.3-433 0-495.6 82.6-85.3 646.1-87.9 715.4 0 52 66.6 52 430.3 0 495.6" style="fill:#c28fef"/><path d="M633.1 675.8c-52 66.6-474.3 65.3-536.9 0-45.3-48-45.3-329.1 0-375.7 62.6-65.3 484.9-66.6 536.9 0 38.7 49.3 38.7 326.4 0 375.7" class="st0"/><circle cx="725.1" cy="362.7" r="37.3" class="st0"/><circle cx="725.1" cy="474.6" r="37.3" class="st0"/></g></g></switch></svg>