<svg xmlns="http://www.w3.org/2000/svg" width="800" height="800" viewBox="0 0 24 24"><path fill="#95a5a6" d="M5 2c-1.105 0-2 .9-2 2v18c0 1.1.895 2 2 2h14c1.105 0 2-.9 2-2V8l-6-6H5z"/><path fill="#bdc3c7" d="M5 1c-1.105 0-2 .9-2 2v18c0 1.1.895 2 2 2h14c1.105 0 2-.9 2-2V7l-6-6H5z"/><path fill="#3498db" d="M16.996 6.7v8.8c0 .2-.088.5-.266.7-.177.2-.401.3-.671.4l-.813.3c-.266 0-.516.1-.75.1s-.487-.1-.758-.1c-.265-.1-.534-.2-.804-.3-.271-.1-.495-.2-.672-.4s-.266-.5-.266-.7c0-.3.089-.5.266-.7s.401-.4.672-.5c.27-.1.539-.2.804-.3h.758c.547 0 1.047.1 1.5.3v-4.2l-6 1.8v5.6c0 .2-.089.5-.266.7-.177.2-.4.3-.671.4l-.813.3c-.266 0-.516.1-.75.1s-.487-.1-.758-.1c-.265-.1-.534-.2-.804-.3s-.495-.2-.672-.4-.266-.5-.266-.7c0-.3.089-.5.266-.7s.4-.4.672-.5.539-.2.804-.3h.758c.547 0 1.047.1 1.5.3V8.7c0-.1.05-.3.148-.4.1-.2.227-.3.383-.3l6.5-2h.219c.208 0 .385 0 .531.2.146.1.219.3.219.5"/><path fill="#95a5a6" d="m21 7-6-6v4c0 1.1.895 2 2 2h4z"/></svg>