<?xml version="1.0" encoding="UTF-8"?>
<svg id="Layer_1" data-name="Layer 1" xmlns="http://www.w3.org/2000/svg" viewBox="0 0 727.27 800">
  <defs>
    <style>
      .cls-1 {
        fill: #e74c3c;
      }

      .cls-2 {
        fill: #c0392b;
      }

      .cls-3 {
        fill: #ecf0f1;
      }
    </style>
  </defs>
  <path class="cls-1" d="m72.73,0C32.56,0,0,32.56,0,72.73v654.55c0,40.17,32.56,72.73,72.73,72.73h581.82c40.17,0,72.73-32.56,72.73-72.73V72.73c0-40.17-32.56-72.73-72.73-72.73H72.73Zm-18.18,72.73h36.36c10.04,0,18.18,8.14,18.18,18.18v36.36c0,10.04-8.14,18.18-18.18,18.18h-36.36c-10.04,0-18.18-8.14-18.18-18.18v-36.36c0-10.04,8.14-18.18,18.18-18.18Zm581.82,0h36.36c10.04,0,18.18,8.14,18.18,18.18v36.36c0,10.04-8.14,18.18-18.18,18.18h-36.36c-10.04,0-18.18-8.14-18.18-18.18v-36.36c0-10.04,8.14-18.18,18.18-18.18ZM54.55,181.82h36.36c10.04,0,18.18,8.14,18.18,18.18v36.36c0,10.04-8.14,18.18-18.18,18.18h-36.36c-10.04,0-18.18-8.14-18.18-18.18v-36.36c0-10.04,8.14-18.18,18.18-18.18Zm581.82,0h36.36c10.04,0,18.18,8.14,18.18,18.18v36.36c0,10.04-8.14,18.18-18.18,18.18h-36.36c-10.04,0-18.18-8.14-18.18-18.18v-36.36c0-10.04,8.14-18.18,18.18-18.18ZM54.55,290.91h36.36c10.04,0,18.18,8.14,18.18,18.18v36.36c0,10.04-8.14,18.18-18.18,18.18h-36.36c-10.04,0-18.18-8.14-18.18-18.18v-36.36c0-10.04,8.14-18.18,18.18-18.18Zm581.82,0h36.36c10.04,0,18.18,8.14,18.18,18.18v36.36c0,10.04-8.14,18.18-18.18,18.18h-36.36c-10.04,0-18.18-8.14-18.18-18.18v-36.36c0-10.04,8.14-18.18,18.18-18.18ZM54.55,400h36.36c10.04,0,18.18,8.14,18.18,18.18v36.36c0,10.04-8.14,18.18-18.18,18.18h-36.36c-10.04,0-18.18-8.14-18.18-18.18v-36.36c0-10.04,8.14-18.18,18.18-18.18Zm581.82,0h36.36c10.04,0,18.18,8.14,18.18,18.18v36.36c0,10.04-8.14,18.18-18.18,18.18h-36.36c-10.04,0-18.18-8.14-18.18-18.18v-36.36c0-10.04,8.14-18.18,18.18-18.18ZM54.55,509.09h36.36c10.04,0,18.18,8.14,18.18,18.18v36.36c0,10.04-8.14,18.18-18.18,18.18h-36.36c-10.04,0-18.18-8.14-18.18-18.18v-36.36c0-10.04,8.14-18.18,18.18-18.18Zm581.82,0h36.36c10.04,0,18.18,8.14,18.18,18.18v36.36c0,10.04-8.14,18.18-18.18,18.18h-36.36c-10.04,0-18.18-8.14-18.18-18.18v-36.36c0-10.04,8.14-18.18,18.18-18.18ZM54.55,618.18h36.36c10.04,0,18.18,8.14,18.18,18.18v36.36c0,10.04-8.14,18.18-18.18,18.18h-36.36c-10.04,0-18.18-8.14-18.18-18.18v-36.36c0-10.04,8.14-18.18,18.18-18.18Zm581.82,0h36.36c10.04,0,18.18,8.14,18.18,18.18v36.36c0,10.04-8.14,18.18-18.18,18.18h-36.36c-10.04,0-18.18-8.14-18.18-18.18v-36.36c0-10.04,8.14-18.18,18.18-18.18Z"/>
  <path class="cls-2" d="m0,400v327.27c0,40,32.55,72.73,72.73,72.73h581.82c40.18,0,72.73-32.73,72.73-72.73v-327.27h-54.55c10.04,0,18.18,7.27,18.18,18.18v36.36c0,7.27-8.15,18.18-18.18,18.18h-36.36c-10.04,0-18.18-10.91-18.18-18.18v-36.36c0-10.91,8.15-18.18,18.18-18.18H90.91c10.04,0,18.18,7.27,18.18,18.18v36.36c0,7.27-8.15,18.18-18.18,18.18h-36.36c-10.04,0-18.18-10.91-18.18-18.18v-36.36c0-10.91,8.15-18.18,18.18-18.18H0Zm54.55,109.09h36.36c10.04,0,18.18,7.27,18.18,18.18v36.36c0,7.27-8.15,18.18-18.18,18.18h-36.36c-10.04,0-18.18-10.91-18.18-18.18v-36.36c0-10.91,8.15-18.18,18.18-18.18Zm581.82,0h36.36c10.04,0,18.18,7.27,18.18,18.18v36.36c0,7.27-8.15,18.18-18.18,18.18h-36.36c-10.04,0-18.18-10.91-18.18-18.18v-36.36c0-10.91,8.15-18.18,18.18-18.18ZM54.55,618.18h36.36c10.04,0,18.18,7.27,18.18,18.18v36.36c0,7.27-8.15,18.18-18.18,18.18h-36.36c-10.04,0-18.18-10.91-18.18-18.18v-36.36c0-10.91,8.15-18.18,18.18-18.18Zm581.82,0h36.36c10.04,0,18.18,7.27,18.18,18.18v36.36c0,7.27-8.15,18.18-18.18,18.18h-36.36c-10.04,0-18.18-10.91-18.18-18.18v-36.36c0-10.91,8.15-18.18,18.18-18.18Z"/>
  <path class="cls-3" d="m290.91,506.76v-218.18l181.82,109.09-181.82,109.09Z"/>
</svg>