<?xml version="1.0" encoding="UTF-8"?>
<svg id="Layer_1" data-name="Layer 1" xmlns="http://www.w3.org/2000/svg" viewBox="0 0 14 34">
  <defs>
    <style>
      .cls-1, .cls-2 {
        fill: #fff;
      }

      .cls-2, .cls-3 {
        isolation: isolate;
        opacity: .3;
      }

      .cls-4 {
        opacity: .1;
      }

      .cls-5 {
        fill: #3b96d2;
      }

      .cls-6 {
        fill: #4eb96f;
      }
    </style>
  </defs>
  <g id="Circle_backround" data-name="Circle backround">
    <circle id="Bg" class="cls-6" cx="7" cy="7" r="7"/>
    <g id="Inner_Shadow" data-name="Inner Shadow" class="cls-4">
      <path d="m7,0C4.21,0,1.81,1.63.68,3.98,1.75,1.83,3.98.35,6.55.35c3.62,0,6.55,2.93,6.55,6.55s-2.93,6.54-6.55,6.54S.03,10.54,0,6.95v.05c0,3.87,3.13,7,7,7s7-3.13,7-7S10.87,0,7,0Z"/>
    </g>
    <path id="inner_glow" data-name="inner glow" class="cls-2" d="m2.27,2.9c.49-.78,1.54-1.42,2.64-1.62.27-.04.55-.07.78.02.17.07.32.23.22.42-.08.15-.28.22-.45.27-1.02.33-1.96.7-2.53,1.56-.22.33-.54,1.57-.94,1.35-.43-.25-.34-1.04.29-2h0Z"/>
  </g>
  <g id="Up">
    <path class="cls-3" d="m9.73,8.61l-2.24-3.88c-.08-.14-.22-.22-.38-.22s-.3.08-.38.22l-2.24,3.88c-.08.14-.08.3,0,.44.08.14.22.22.38.22h4.48c.16,0,.3-.08.38-.22.08-.14.08-.3,0-.44Z"/>
    <path class="cls-1" d="m9.73,8.09l-2.24-3.88c-.08-.14-.22-.22-.38-.22s-.3.08-.38.22l-2.24,3.88c-.08.14-.08.3,0,.44.08.14.22.22.38.22h4.48c.16,0,.3-.08.38-.22.08-.14.08-.3,0-.44Z"/>
  </g>
  <g>
    <g id="Circle_backround-2" data-name="Circle backround">
      <circle id="Bg-2" data-name="Bg" class="cls-5" cx="7" cy="27" r="7"/>
      <g id="Inner_Shadow-2" data-name="Inner Shadow" class="cls-4">
        <path d="m7,20c-2.79,0-5.19,1.63-6.32,3.98,1.07-2.15,3.3-3.63,5.86-3.63,3.62,0,6.55,2.93,6.55,6.55s-2.93,6.55-6.55,6.55S.03,30.54,0,26.95v.05c0,3.87,3.13,7,7,7s7-3.13,7-7-3.13-7-7-7Z"/>
      </g>
      <path id="inner_glow-2" data-name="inner glow" class="cls-2" d="m2.27,22.9c.49-.78,1.54-1.42,2.64-1.62.27-.04.55-.07.78.02.18.07.32.23.22.42-.08.15-.28.22-.45.27-1.02.33-1.96.7-2.53,1.56-.22.33-.54,1.57-.94,1.35-.43-.25-.34-1.04.29-2h0Z"/>
    </g>
    <g id="Down">
      <path class="cls-3" d="m4.47,25.99l2.1,3.63c.15.23.39.33.55.33s.38-.07.52-.33l2.12-3.63c.08-.14.08-.3,0-.44-.08-.14-.22-.22-.38-.22h-4.52c-.16,0-.3.08-.38.22-.08.14-.08.3,0,.44h0Z"/>
      <path class="cls-1" d="m4.47,25.29l2.26,3.92c.08.14.22.22.38.22s.3-.08.38-.22l2.26-3.91c.08-.14.08-.3,0-.44-.08-.14-.22-.22-.38-.22h-4.52c-.16,0-.3.08-.38.22-.08.14-.08.3,0,.44h0Z"/>
    </g>
  </g>
</svg>