<?xml version="1.0" encoding="UTF-8"?>
<svg id="Layer_1" data-name="Layer 1" xmlns="http://www.w3.org/2000/svg" xmlns:xlink="http://www.w3.org/1999/xlink" viewBox="0 0 14.07 364.65">
  <defs>
    <style>
      .cls-1 {
        fill: url(#linear-gradient-2);
      }

      .cls-2, .cls-3, .cls-4, .cls-5 {
        fill: #fff;
      }

      .cls-6 {
        opacity: .4;
      }

      .cls-6, .cls-4, .cls-7, .cls-8, .cls-9, .cls-10, .cls-5 {
        isolation: isolate;
      }

      .cls-6, .cls-9 {
        fill: #2a2d2f;
      }

      .cls-11 {
        fill: #edf0f1;
      }

      .cls-12 {
        fill: #2a2c2e;
      }

      .cls-3, .cls-13, .cls-7 {
        fill-rule: evenodd;
      }

      .cls-14 {
        clip-path: url(#clippath-2);
      }

      .cls-13, .cls-15 {
        fill: #bdc3c7;
      }

      .cls-16 {
        fill: #2a81ba;
      }

      .cls-17 {
        fill: #f6b44e;
      }

      .cls-4, .cls-7, .cls-8 {
        opacity: .3;
      }

      .cls-7, .cls-8, .cls-10, .cls-18 {
        fill: #010101;
      }

      .cls-19 {
        fill: #4fba6f;
      }

      .cls-20 {
        clip-path: url(#clippath-1);
      }

      .cls-21 {
        fill: #f0c419;
      }

      .cls-22 {
        fill: #535d5e;
      }

      .cls-23 {
        fill: #e64d3c;
      }

      .cls-24 {
        fill: #7f8c8d;
      }

      .cls-25 {
        clip-path: url(#clippath);
      }

      .cls-9, .cls-5 {
        opacity: .2;
      }

      .cls-26 {
        fill: none;
      }

      .cls-27 {
        fill: #3d97d3;
      }

      .cls-28 {
        fill: #95a5a6;
      }

      .cls-29, .cls-10 {
        opacity: .1;
      }

      .cls-30 {
        fill: #545e5f;
      }

      .cls-31 {
        fill: url(#linear-gradient);
      }

      .cls-32 {
        fill: #2ecc71;
      }

      .cls-33 {
        fill: #e57e25;
      }
    </style>
    <clipPath id="clippath">
      <path class="cls-26" d="m14.06,220.44c0,.86-.7,1.56-1.56,1.56H1.61c-.86,0-1.55-.7-1.55-1.56v-10.89c0-.86.69-1.56,1.55-1.56h10.89c.86,0,1.56.7,1.56,1.56v10.89h0Z"/>
    </clipPath>
    <clipPath id="clippath-1">
      <path class="cls-26" d="m14.06,252.44c0,.86-.7,1.56-1.56,1.56H1.61c-.86,0-1.55-.7-1.55-1.56v-10.89c0-.86.69-1.56,1.55-1.56h10.89c.86,0,1.56.7,1.56,1.56v10.89h0Z"/>
    </clipPath>
    <clipPath id="clippath-2">
      <path class="cls-26" d="m14.06,236.44c0,.86-.7,1.56-1.56,1.56H1.61c-.86,0-1.55-.7-1.55-1.56v-10.89c0-.86.69-1.56,1.55-1.56h10.89c.86,0,1.56.7,1.56,1.56v10.89h0Z"/>
    </clipPath>
    <linearGradient id="linear-gradient" x1="7.03" y1="20.32" x2="7.03" y2="30.29" gradientTransform="translate(0 366) scale(1 -1)" gradientUnits="userSpaceOnUse">
      <stop offset="0" stop-color="#eff1f2"/>
      <stop offset="1" stop-color="#f9fbfc"/>
    </linearGradient>
    <linearGradient id="linear-gradient-2" x1="7.03" y1="343.65" x2="7.03" y2="337.19" gradientUnits="userSpaceOnUse">
      <stop offset="0" stop-color="#3f3f3f"/>
      <stop offset="1" stop-color="#5d5d5d"/>
    </linearGradient>
  </defs>
  <g id="Layer_1-2" data-name="Layer 1">
    <g id="Circle_backround" data-name="Circle backround">
      <circle id="Bg" class="cls-19" cx="7.06" cy="23" r="7"/>
      <g id="Inner_Shadow" data-name="Inner Shadow" class="cls-29">
        <path class="cls-18" d="m7.06,16c-2.79,0-5.19,1.63-6.32,3.98,1.07-2.15,3.3-3.63,5.86-3.63,3.62,0,6.55,2.93,6.55,6.55s-2.93,6.55-6.55,6.55S.09,26.54.06,22.95v.05c0,3.87,3.13,7,7,7s7-3.13,7-7-3.13-7-7-7Z"/>
      </g>
      <path id="inner_glow" data-name="inner glow" class="cls-4" d="m2.34,18.9c.49-.78,1.54-1.42,2.64-1.62.27-.04.55-.07.78.02.17.07.32.23.22.42-.08.15-.28.22-.45.27-1.02.33-1.96.7-2.53,1.56-.22.33-.54,1.57-.94,1.35-.43-.25-.34-1.04.29-2h0Z"/>
    </g>
    <g id="Up">
      <path class="cls-8" d="m10.2,24.85l-2.58-4.47c-.09-.16-.25-.25-.44-.25s-.34.09-.44.25l-2.58,4.47c-.09.16-.09.35,0,.5.09.16.25.25.44.25h5.17c.18,0,.34-.09.44-.25.09-.16.09-.34,0-.5h-.01Z"/>
      <path class="cls-2" d="m10.2,24.25l-2.58-4.47c-.09-.16-.25-.25-.44-.25s-.34.09-.44.25l-2.58,4.47c-.09.16-.09.35,0,.5.09.16.25.25.44.25h5.17c.18,0,.34-.09.44-.25.09-.16.09-.34,0-.5h-.01Z"/>
    </g>
    <g>
      <g id="Circle_backround-2" data-name="Circle backround-2">
        <circle id="Bg-2" class="cls-24" cx="7.06" cy="39" r="7"/>
        <g id="Inner_Shadow-2" data-name="Inner Shadow-2" class="cls-29">
          <path class="cls-18" d="m7.06,32c-2.79,0-5.19,1.63-6.32,3.98,1.07-2.15,3.3-3.63,5.86-3.63,3.62,0,6.55,2.93,6.55,6.55s-2.93,6.55-6.55,6.55S.09,42.54.06,38.95v.05c0,3.87,3.13,7,7,7s7-3.13,7-7-3.13-7-7-7Z"/>
        </g>
        <path id="inner_glow-2" data-name="inner glow-2" class="cls-4" d="m2.34,34.9c.49-.78,1.54-1.42,2.64-1.62.27-.04.55-.07.78.02.17.07.32.23.22.42-.08.15-.28.22-.45.27-1.02.33-1.96.7-2.53,1.56-.22.33-.54,1.57-.94,1.35-.43-.25-.34-1.04.29-2h0Z"/>
      </g>
      <g id="Not_active" data-name="Not active">
        <circle id="Bg-2-2" data-name="Bg-2" class="cls-10" cx="7.06" cy="39.53" r="3.52"/>
        <circle id="Bg-3" class="cls-2" cx="7.06" cy="39" r="3"/>
        <path class="cls-30" d="m7.06,36c1.86,0,3.38,1.44,3.52,3.26,0-.09.01-.17.01-.26,0-1.95-1.58-3.52-3.52-3.52s-3.53,1.58-3.53,3.52c0,.09,0,.18,0,.26.13-1.82,1.66-3.26,3.51-3.26Z"/>
      </g>
    </g>
    <g>
      <g id="Circle_backround-3" data-name="Circle backround-3">
        <circle id="Bg-3-2" data-name="Bg-3" class="cls-24" cx="7.06" cy="199" r="7"/>
        <g id="Inner_Shadow-3" data-name="Inner Shadow-3" class="cls-29">
          <path class="cls-18" d="m7.06,192c-2.79,0-5.19,1.63-6.32,3.98,1.07-2.15,3.3-3.63,5.86-3.63,3.62,0,6.55,2.93,6.55,6.55s-2.93,6.55-6.55,6.55S.09,202.54.06,198.95v.05c0,3.87,3.13,7,7,7s7-3.13,7-7-3.13-7-7-7Z"/>
        </g>
        <path id="inner_glow-3" data-name="inner glow-3" class="cls-4" d="m2.34,194.9c.49-.78,1.54-1.42,2.64-1.62.27-.04.55-.07.78.02.17.07.32.23.22.42-.08.15-.28.22-.45.27-1.02.33-1.96.7-2.53,1.56-.22.33-.54,1.57-.94,1.35-.43-.25-.34-1.04.29-2h0Z"/>
      </g>
      <g id="Not_active-2" data-name="Not active-2">
        <circle id="Bg-2-2" class="cls-10" cx="7.06" cy="199.53" r="3.52"/>
        <circle id="Bg-3-2" class="cls-2" cx="7.06" cy="199" r="3"/>
        <path class="cls-30" d="m7.06,196c1.86,0,3.38,1.44,3.52,3.26,0-.09.01-.17.01-.26,0-1.95-1.58-3.52-3.52-3.52s-3.53,1.58-3.53,3.52c0,.09,0,.18,0,.26.13-1.82,1.66-3.26,3.51-3.26Z"/>
      </g>
    </g>
    <g>
      <g id="Rounded_bg" data-name="Rounded bg">
        <path id="Bg-4" class="cls-33" d="m14.06,220.44c0,.86-.7,1.56-1.56,1.56H1.61c-.86,0-1.55-.7-1.55-1.56v-10.89c0-.86.69-1.56,1.55-1.56h10.89c.86,0,1.56.7,1.56,1.56v10.89h0Z"/>
        <g id="Inner_Shadow-4" data-name="Inner Shadow-4">
          <g class="cls-25">
            <path class="cls-10" d="m13.12,208h-.71c.47,0,.85.4.84.88v11.42c0,.48-.39.87-.88.87H.93c-.48,0-.87-.39-.87-.87v.77c0,.51.42.93.93.93h12.13c.52,0,.93-.42.93-.93v-12.13c0-.51-.42-.93-.93-.93h0Z"/>
          </g>
        </g>
        <path class="cls-4" d="m4.22,209.24c0-.25-.18-.33-1.18-.3-.84.03-1.26.13-1.51.44s-.32.93-.33,1.67c0,.52,0,1.02.27,1.02.37,0,.37-.86.68-1.35.59-.95,2.07-1.16,2.07-1.49h0Z"/>
      </g>
      <g id="RSS">
        <path id="RSS-2" class="cls-8" d="m4.43,216.56c-.8,0-1.43.63-1.43,1.43s.63,1.43,1.43,1.43,1.43-.63,1.43-1.43-.63-1.43-1.43-1.43h0Zm-.06-5.73c-.34,0-.72.03-1.15.09-.11.03-.23.14-.23.29v1.46c0,.09.03.17.11.23s.14.09.23.06c.34-.06.69-.11,1.03-.11,2.87,0,5.19,2.32,5.19,5.19,0,.34-.03.69-.11,1.03-.03.09,0,.17.06.23s.14.11.23.11h1.46c.14,0,.26-.11.29-.23.06-.4.09-.77.09-1.15.03-3.95-3.21-7.19-7.19-7.19h-.01Zm.03,2.87c-.4,0-.8.06-1.17.17-.11.03-.2.14-.2.29v1.55c0,.09.06.2.14.23.09.06.2.06.29.03.31-.14.63-.23.97-.23,1.26,0,2.29,1.03,2.29,2.29,0,.34-.09.66-.23.97-.03.09-.03.2.03.29.06.09.14.14.23.14h1.58c.11,0,.23-.09.29-.2.11-.4.17-.8.17-1.17-.06-2.41-2.01-4.36-4.38-4.36h-.01Z"/>
        <path class="cls-2" d="m4.43,216c-.8,0-1.43.63-1.43,1.43s.63,1.43,1.43,1.43,1.43-.63,1.43-1.43-.63-1.43-1.43-1.43h0Zm-.06-5.73c-.34,0-.72.03-1.15.09-.11.03-.23.14-.23.29v1.46c0,.09.03.17.11.23s.14.09.23.06c.34-.06.69-.11,1.03-.11,2.87,0,5.19,2.32,5.19,5.19,0,.34-.03.69-.11,1.03-.03.09,0,.17.06.23s.14.11.23.11h1.46c.14,0,.26-.11.29-.23.06-.4.09-.77.09-1.15.03-3.95-3.21-7.19-7.19-7.19h-.01Zm.03,2.87c-.4,0-.8.06-1.17.17-.11.03-.2.14-.2.29v1.55c0,.09.06.2.14.23.09.06.2.06.29.03.31-.14.63-.23.97-.23,1.26,0,2.29,1.03,2.29,2.29,0,.34-.09.66-.23.97-.03.09-.03.2.03.29.06.09.14.14.23.14h1.58c.11,0,.23-.09.29-.2.11-.4.17-.8.17-1.17-.06-2.41-2.01-4.36-4.38-4.36h-.01Z"/>
      </g>
    </g>
    <g>
      <g id="Rounded_bg-2" data-name="Rounded bg-2">
        <path id="Bg-5" class="cls-33" d="m14.06,252.44c0,.86-.7,1.56-1.56,1.56H1.61c-.86,0-1.55-.7-1.55-1.56v-10.89c0-.86.69-1.56,1.55-1.56h10.89c.86,0,1.56.7,1.56,1.56v10.89h0Z"/>
        <g id="Inner_Shadow-5" data-name="Inner Shadow-5">
          <g class="cls-20">
            <path class="cls-10" d="m13.12,240h-.71c.47,0,.85.4.84.88v11.42c0,.48-.39.87-.88.87H.93c-.48,0-.87-.39-.87-.88v.77c0,.51.42.93.93.93h12.13c.52,0,.93-.42.93-.93v-12.13c0-.51-.42-.93-.93-.93h0Z"/>
          </g>
        </g>
        <path class="cls-4" d="m4.22,241.24c0-.25-.18-.33-1.18-.3-.84.03-1.26.13-1.51.44s-.32.93-.33,1.67c0,.52,0,1.02.27,1.02.37,0,.37-.86.68-1.35.59-.95,2.07-1.16,2.07-1.49h0Z"/>
      </g>
      <g id="RSS-2-2" data-name="RSS-2">
        <g>
          <path class="cls-8" d="m4.43,248.56c-.8,0-1.43.63-1.43,1.43s.63,1.43,1.43,1.43,1.43-.63,1.43-1.43-.63-1.43-1.43-1.43h0Z"/>
          <path class="cls-8" d="m4.4,245.69c-.4,0-.8.06-1.17.17-.11.03-.2.14-.2.29v1.55c0,.09.06.2.14.23.09.06.2.06.29.03.31-.14.63-.23.97-.23,1.26,0,2.29,1.03,2.29,2.29,0,.34-.09.66-.23.97-.03.09-.03.2.03.29.06.09.14.14.23.14h1.58c.11,0,.23-.09.29-.2.11-.4.17-.8.17-1.17-.06-2.41-2.01-4.36-4.38-4.36h-.01Z"/>
        </g>
        <path class="cls-2" d="m4.43,248c-.8,0-1.43.63-1.43,1.43s.63,1.43,1.43,1.43,1.43-.63,1.43-1.43-.63-1.43-1.43-1.43h0Zm-.03-2.87c-.4,0-.8.06-1.17.17-.11.03-.2.14-.2.29v1.55c0,.09.06.2.14.23.09.06.2.06.29.03.31-.14.63-.23.97-.23,1.26,0,2.29,1.03,2.29,2.29,0,.34-.09.66-.23.97-.03.09-.03.2.03.29.06.09.14.14.23.14h1.58c.11,0,.23-.09.29-.2.11-.4.17-.8.17-1.17-.06-2.41-2.01-4.36-4.38-4.36h-.01Z"/>
      </g>
    </g>
    <g>
      <g id="Rounded_bg-3" data-name="Rounded bg-3">
        <path id="Bg-6" class="cls-33" d="m14.06,236.44c0,.86-.7,1.56-1.56,1.56H1.61c-.86,0-1.55-.7-1.55-1.56v-10.89c0-.86.69-1.56,1.55-1.56h10.89c.86,0,1.56.7,1.56,1.56v10.89h0Z"/>
        <g id="Inner_Shadow-6" data-name="Inner Shadow-6">
          <g class="cls-14">
            <path class="cls-10" d="m13.12,224h-.71c.47,0,.85.4.84.88v11.42c0,.48-.39.87-.88.87H.93c-.48,0-.87-.39-.87-.88v.77c0,.51.42.93.93.93h12.13c.52,0,.93-.42.93-.93v-12.13c0-.51-.42-.93-.93-.93h0Z"/>
          </g>
        </g>
        <path class="cls-4" d="m4.22,225.24c0-.25-.18-.33-1.18-.3-.84.03-1.26.13-1.51.44s-.32.93-.33,1.67c0,.52,0,1.02.27,1.02.37,0,.37-.86.68-1.35.59-.95,2.07-1.16,2.07-1.49h0Z"/>
      </g>
      <g id="RSS-3">
        <path class="cls-8" d="m4.43,232.56c-.8,0-1.43.63-1.43,1.43s.63,1.43,1.43,1.43,1.43-.63,1.43-1.43-.63-1.43-1.43-1.43h0Z"/>
        <path class="cls-2" d="m4.43,232c-.8,0-1.43.63-1.43,1.43s.63,1.43,1.43,1.43,1.43-.63,1.43-1.43-.63-1.43-1.43-1.43h0Z"/>
      </g>
    </g>
    <g>
      <path class="cls-16" d="m1.23,274.25c-.64,0-1.17.53-1.17,1.17v8.17c0,.64.52,1.17,1.17,1.17h11.67c.64,0,1.17-.53,1.17-1.17v-8.17c0-.64-.52-1.17-1.17-1.17H1.23Z"/>
      <path class="cls-16" d="m1.81,271.92c-.64,0-1.17.53-1.17,1.17v8.17c0,.64.52,1.17,1.17,1.17h10.5c.64,0,1.17-.53,1.17-1.17v-7c0-.64-.52-1.17-1.17-1.17h-4.67l-1.75-1.17H1.81Z"/>
      <path class="cls-15" d="m13.48,279.5v-4.67c0-.64-.52-1.17-1.17-1.17H1.81c-.64,0-1.17.53-1.17,1.17v4.67h12.84Z"/>
      <path class="cls-27" d="m1.23,274.25c-.64,0-1.17.53-1.17,1.17v7.58c0,.64.52,1.17,1.17,1.17h11.67c.64,0,1.17-.53,1.17-1.17v-7.58c0-.64-.52-1.17-1.17-1.17H1.23Z"/>
    </g>
    <g>
      <path class="cls-28" d="m3.06,256.61c-.67,0-1.22.55-1.22,1.22v10.96c0,.67.55,1.22,1.22,1.22h8.52c.67,0,1.22-.55,1.22-1.22v-8.52l-3.65-3.65H3.06Z"/>
      <path class="cls-15" d="m3.06,256c-.67,0-1.22.55-1.22,1.22v10.96c0,.67.55,1.22,1.22,1.22h8.52c.67,0,1.22-.55,1.22-1.22v-8.52l-3.65-3.65H3.06Z"/>
      <path class="cls-28" d="m12.8,259.65l-3.65-3.65v2.43c0,.67.54,1.22,1.22,1.22h2.43Z"/>
    </g>
    <g>
      <path class="cls-28" d="m7.88,360.23l1.76-1.76,4.41,4.41-1.76,1.77-4.41-4.41h0Z"/>
      <path class="cls-24" d="m7.88,360.23l1.76-1.76,1.32,1.32-1.76,1.77-1.32-1.32h0Z"/>
      <path class="cls-15" d="m1.7,352.3c-2.19,2.18-2.19,5.74,0,7.92,2.19,2.18,5.75,2.18,7.94,0,2.19-2.18,2.19-5.74,0-7.92s-5.75-2.18-7.94,0Zm1.32,1.31c1.46-1.44,3.83-1.44,5.29,0,1.46,1.5,1.46,3.87,0,5.3-1.46,1.44-3.83,1.44-5.29,0s-1.46-3.81,0-5.3h0Z"/>
      <path class="cls-11" d="m9.69,356.35c0,2.24-1.82,4.06-4.06,4.06s-4.06-1.82-4.06-4.06,1.82-4.06,4.06-4.06,4.06,1.82,4.06,4.06Z"/>
    </g>
    <path class="cls-13" d="m7.91,286.61c-.26-.11-.59-.11-1.25-.11s-.99,0-1.25.11c-.35.14-.62.41-.76.76-.07.16-.09.34-.1.6-.01.39-.22.75-.56.95-.34.2-.76.19-1.11,0-.24-.12-.41-.19-.58-.22-.37-.05-.75.05-1.04.28-.22.17-.39.45-.72,1.02-.33.56-.49.85-.53,1.12-.05.37.05.74.28,1.04.1.13.25.25.48.39.33.21.55.56.55.95s-.21.74-.55.95c-.23.14-.37.25-.48.39-.23.29-.33.67-.28,1.03.04.28.2.56.53,1.12.33.56.49.85.72,1.02.3.23.67.33,1.04.28.17-.02.34-.09.58-.22.35-.18.76-.19,1.11,0,.34.2.54.56.56.95.01.27.04.45.1.6.14.34.42.62.76.76.26.11.59.11,1.25.11s.99,0,1.25-.11c.35-.14.62-.41.76-.76.07-.16.09-.34.1-.6.01-.39.22-.75.56-.95s.76-.19,1.11,0c.24.12.41.19.58.22.37.05.75-.05,1.04-.28.22-.17.39-.45.72-1.02.33-.56.49-.85.53-1.12.05-.37-.05-.74-.28-1.04-.1-.13-.25-.25-.48-.39-.33-.21-.55-.56-.55-.95s.21-.74.55-.95c.23-.14.37-.25.48-.39.23-.29.33-.67.28-1.03-.04-.28-.2-.56-.53-1.12s-.49-.85-.72-1.02c-.3-.23-.67-.33-1.04-.28-.17.02-.34.09-.58.22-.35.18-.76.19-1.11,0-.34-.2-.54-.56-.56-.95-.01-.27-.04-.45-.1-.6-.14-.34-.42-.62-.76-.76Zm.87,6.89c0,1.16-.95,2.1-2.12,2.1s-2.12-.94-2.12-2.1.95-2.1,2.12-2.1,2.12.94,2.12,2.1Z"/>
    <g id="surface1">
      <path class="cls-22" d="m1.23,303.11c-.67,0-1.21.54-1.21,1.21v4.36c0,.3.15.6.36.85l6.65,6.61c.22.24.53.36.87.36s.65-.12.87-.36l4.28-4.24c.25-.24.4-.54.4-.91s-.15-.72-.4-.91l-6.61-6.61c-.22-.24-.53-.36-.85-.36H1.23Zm1.82,1.82c.67,0,1.21.54,1.21,1.21s-.54,1.21-1.21,1.21-1.21-.54-1.21-1.21.54-1.21,1.21-1.21Z"/>
      <path class="cls-15" d="m1.23,302.5c-.67,0-1.21.54-1.21,1.21v4.38c0,.32.15.63.36.83l6.65,6.65c.22.23.53.36.87.36s.65-.13.87-.36l4.28-4.28c.25-.22.4-.55.4-.91s-.15-.69-.4-.91l-6.61-6.61c-.22-.21-.53-.36-.85-.36H1.23Zm1.82,1.82c.67,0,1.21.54,1.21,1.21s-.54,1.21-1.21,1.21-1.21-.54-1.21-1.21.54-1.21,1.21-1.21Z"/>
      <path class="cls-22" d="m7.9,315.23l4.24-4.24-4.85-4.85-4.24,4.24s4.85,4.85,4.85,4.85Z"/>
      <path class="cls-11" d="m7.9,314.62l4.24-4.24-4.85-4.85-4.24,4.24s4.85,4.85,4.85,4.85Z"/>
      <path class="cls-24" d="m7.29,307.35l-2.12,2.12-.31.3.31.3,2.42-2.42-.3-.31h0Zm1.21,1.21l-2.42,2.42.3.31,2.43-2.43-.31-.3h0Zm1.21,1.21l-2.12,2.12-.3.31.3.3,2.43-2.43-.3-.3h-.01Z"/>
    </g>
    <g>
      <path class="cls-15" d="m1.11,334.5h11.85v14H1.11v-14Z"/>
      <path class="cls-9" d="m11.07,346.88h1.88v1.62h-1.88v-1.62Zm-9.96,0h1.88v1.62h-1.88s0-1.62,0-1.62Z"/>
      <path class="cls-12" d="m2.72,346.88h8.62v1.62H2.72v-1.62Z"/>
      <path class="cls-17" d="m3.8,347.42h3.77v.54h-3.77v-.54Zm4.31,0h2.15v.54h-2.15v-.54Z"/>
      <rect class="cls-31" x="2.22" y="335.71" width="9.62" height="9.97" rx="2.41" ry="2.41"/>
      <path class="cls-6" d="m1.11,348.23h11.85v.27H1.11v-.27Z"/>
      <path class="cls-1" d="m7.03,343.12h3.23v.54h-3.23v-.54Zm0-5.92l-3.23,6.46h1.08l3.23-6.46h-1.08Z"/>
    </g>
    <path class="cls-32" d="m12.78,328.43h-.96v-2.33h.96c.19,0,.35-.15.35-.34s-.16-.34-.35-.34h-.96v-.5h-2.19v3.62c0,.25-.18.47-.44.51h-4.81v-.86h4.37v-3.27h-.34c-.89,0-1.62-.69-1.63-1.57,0-.28.07-.56.21-.8l1-1.68h-.85v-.95c0-.19-.16-.34-.35-.34s-.35.15-.35.34v.95h-2.36v-.95c0-.19-.16-.34-.35-.34s-.35.15-.35.34v.95h-1.16c-.51,0-.92.41-.92.9h0v.62H.35c-.19,0-.35.15-.35.34s.16.34.35.34h.96v2.33H.35c-.19,0-.35.15-.35.34s.16.34.35.34h.96v2.33H.35c-.19,0-.35.15-.35.34s.16.34.35.34h.96v1.18c0,.5.41.9.92.9h1.16v.95c0,.19.16.34.35.34s.35-.15.35-.34v-.95h2.36v.95c0,.19.16.34.35.34s.35-.15.35-.34v-.95h2.36v.95c0,.19.16.34.35.34s.35-.15.35-.34v-.95h.68c.51,0,.92-.41.92-.9h0v-1.18h.96c.19,0,.35-.15.35-.34s-.16-.34-.35-.34Z"/>
    <path class="cls-32" d="m10.44,318.77l-2.5,4.25c-.17.25-.11.59.15.77.1.07.22.1.33.1h5.01c.31.01.57-.23.58-.53,0-.12-.03-.23-.1-.33l-2.5-4.25c-.16-.26-.5-.35-.77-.2-.08.05-.15.12-.2.2Z"/>
  </g>
  <g id="Layer_2" data-name="Layer 2">
    <g>
      <g id="Circle_backround-4" data-name="Circle backround-4">
        <circle id="Bg-7" class="cls-27" cx="7.06" cy="7" r="7"/>
        <g id="Inner_Shadow-7" data-name="Inner Shadow-7" class="cls-29">
          <path class="cls-18" d="m7.06,0C4.27,0,1.87,1.63.74,3.98,1.81,1.83,4.04.35,6.61.35c3.62,0,6.55,2.93,6.55,6.55s-2.93,6.55-6.55,6.55S.09,10.54.06,6.95v.05c0,3.87,3.13,7,7,7s7-3.13,7-7S10.93,0,7.06,0Z"/>
        </g>
        <path id="inner_glow-4" data-name="inner glow-4" class="cls-4" d="m2.34,2.9c.49-.78,1.54-1.42,2.64-1.62.27-.04.55-.07.78.02.18.07.32.23.22.42-.08.15-.28.22-.45.27-1.02.33-1.96.7-2.53,1.56-.22.33-.54,1.57-.94,1.35-.43-.25-.34-1.04.29-2h0Z"/>
      </g>
      <g id="Down">
        <path class="cls-8" d="m4.53,5.99l2.1,3.63c.15.23.39.33.55.33s.38-.07.52-.33l2.12-3.63c.08-.14.08-.3,0-.44s-.22-.22-.38-.22h-4.52c-.16,0-.3.08-.38.22s-.08.3,0,.44h0Z"/>
        <path class="cls-2" d="m4.53,5.29l2.26,3.92c.08.14.22.22.38.22s.3-.08.38-.22l2.26-3.91c.08-.14.08-.3,0-.44s-.22-.22-.38-.22h-4.52c-.16,0-.3.08-.38.22s-.08.3,0,.44h0Z"/>
      </g>
    </g>
    <g>
      <g id="Circle_backround-5" data-name="Circle backround-5">
        <circle id="Bg-8" class="cls-21" cx="7.06" cy="55" r="7"/>
        <g id="Inner_Shadow-8" data-name="Inner Shadow-8" class="cls-29">
          <path class="cls-18" d="m7.06,48c-2.79,0-5.19,1.63-6.32,3.98,1.07-2.15,3.3-3.63,5.86-3.63,3.62,0,6.55,2.93,6.55,6.55s-2.93,6.54-6.55,6.54S.09,58.54.06,54.95v.05c0,3.87,3.13,7,7,7s7-3.13,7-7-3.13-7-7-7Z"/>
        </g>
        <path id="inner_glow-5" data-name="inner glow-5" class="cls-4" d="m2.34,50.9c.49-.78,1.54-1.42,2.64-1.62.27-.04.55-.07.78.02.18.07.32.23.22.42-.08.15-.28.22-.45.27-1.02.33-1.96.7-2.53,1.56-.22.33-.54,1.57-.94,1.35-.43-.25-.34-1.04.29-2h0Z"/>
      </g>
      <path id="Pause" class="cls-7" d="m9.07,51.51c.55,0,1,.45,1,1v6.02c0,.55-.45,1-1,1s-1-.45-1-1v-6.02c0-.55.45-1,1-1Zm-4.01,0c.55,0,1,.45,1,1v6.02c0,.55-.45,1-1,1s-1-.45-1-1v-6.02c0-.55.45-1,1-1Z"/>
      <path id="Pause-2" class="cls-3" d="m9.07,50.99c.55,0,1,.45,1,1v6.02c0,.55-.45,1-1,1s-1-.45-1-1v-6.02c0-.55.45-1,1-1Zm-4.01,0c.55,0,1,.45,1,1v6.02c0,.55-.45,1-1,1s-1-.45-1-1v-6.02c0-.55.45-1,1-1Z"/>
    </g>
    <g>
      <g id="Circle_backround-6" data-name="Circle backround-6">
        <circle id="Bg-9" class="cls-23" cx="7.06" cy="71" r="7"/>
        <g id="Inner_Shadow-9" data-name="Inner Shadow-9" class="cls-29">
          <path class="cls-18" d="m7.06,64c-2.79,0-5.19,1.63-6.32,3.98,1.07-2.15,3.3-3.63,5.86-3.63,3.62,0,6.55,2.93,6.55,6.55s-2.93,6.55-6.55,6.55S.09,74.54.06,70.95v.05c0,3.87,3.13,7,7,7s7-3.13,7-7-3.13-7-7-7Z"/>
        </g>
        <path id="inner_glow-6" data-name="inner glow-6" class="cls-4" d="m2.34,66.9c.49-.78,1.54-1.42,2.64-1.62.27-.04.55-.07.78.02.18.07.32.23.22.42-.08.15-.28.22-.45.27-1.02.33-1.96.7-2.53,1.56-.22.33-.54,1.57-.94,1.35-.43-.25-.34-1.04.29-2h0Z"/>
      </g>
      <g id="Down-2">
        <path class="cls-8" d="m4.53,69.99l2.1,3.63c.15.23.39.33.55.33s.38-.07.52-.33l2.12-3.63c.08-.14.08-.3,0-.44s-.22-.22-.38-.22h-4.52c-.16,0-.3.08-.38.22s-.08.3,0,.44h0Z"/>
        <path class="cls-2" d="m4.53,69.29l2.26,3.92c.08.14.22.22.38.22s.3-.08.38-.22l2.26-3.91c.08-.14.08-.3,0-.44s-.22-.22-.38-.22h-4.52c-.16,0-.3.08-.38.22s-.08.3,0,.44h0Z"/>
      </g>
    </g>
    <g>
      <g id="Circle_backround-7" data-name="Circle backround-7">
        <circle id="Bg-10" class="cls-23" cx="7.06" cy="87" r="7"/>
        <g id="Inner_Shadow-10" data-name="Inner Shadow-10" class="cls-29">
          <path class="cls-18" d="m7.06,80c-2.79,0-5.19,1.63-6.32,3.98,1.07-2.15,3.3-3.63,5.86-3.63,3.62,0,6.55,2.93,6.55,6.55s-2.93,6.55-6.55,6.55S.09,90.54.06,86.95v.05c0,3.87,3.13,7,7,7s7-3.13,7-7-3.13-7-7-7Z"/>
        </g>
        <path id="inner_glow-7" data-name="inner glow-7" class="cls-4" d="m2.34,82.9c.49-.78,1.54-1.42,2.64-1.62.27-.04.55-.07.78.02.18.07.32.23.22.42-.08.15-.28.22-.45.27-1.02.33-1.96.7-2.53,1.56-.22.33-.54,1.57-.94,1.35-.43-.25-.34-1.04.29-2h0Z"/>
      </g>
      <g id="Up-2">
        <path class="cls-8" d="m9.81,88.59l-2.26-3.91c-.08-.14-.22-.22-.38-.22s-.3.08-.38.22l-2.26,3.91c-.08.14-.08.3,0,.44s.22.22.38.22h4.52c.16,0,.3-.08.38-.22s.08-.3,0-.44h0Z"/>
        <path class="cls-2" d="m9.81,88.06l-2.26-3.91c-.08-.14-.22-.22-.38-.22s-.3.08-.38.22l-2.26,3.91c-.08.14-.08.3,0,.44s.22.22.38.22h4.52c.16,0,.3-.08.38-.22s.08-.3,0-.44h0Z"/>
      </g>
    </g>
    <g>
      <g id="Circle_backround-8" data-name="Circle backround-8">
        <circle id="Bg-11" class="cls-23" cx="7.06" cy="103" r="7"/>
        <g id="Inner_Shadow-11" data-name="Inner Shadow-11" class="cls-29">
          <path class="cls-18" d="m7.06,96c-2.79,0-5.19,1.63-6.32,3.98,1.07-2.15,3.3-3.63,5.86-3.63,3.62,0,6.55,2.93,6.55,6.55s-2.93,6.55-6.55,6.55S.09,106.54.06,102.95v.05c0,3.87,3.13,7,7,7s7-3.13,7-7-3.13-7-7-7Z"/>
        </g>
        <path id="inner_glow-8" data-name="inner glow-8" class="cls-4" d="m2.34,98.9c.49-.78,1.54-1.42,2.64-1.62.27-.04.55-.07.78.02.17.07.32.23.22.42-.08.15-.28.22-.45.27-1.02.33-1.96.7-2.53,1.56-.22.33-.54,1.57-.94,1.35-.43-.25-.34-1.04.29-2h0Z"/>
      </g>
      <g id="Abort">
        <path id="X_Shadow" data-name="X Shadow" class="cls-8" d="m5.12,100.08c-.5.09-1.24.95-.91,1.28l2,2-2,2c-.4.4.8,1.6,1.2,1.2l2-2,2,2c.4.4,1.6-.8,1.2-1.2l-2-2,2-2c.4-.4-.8-1.6-1.2-1.2l-2,2-2-2c-.08-.08-.17-.1-.29-.08h0Z"/>
        <path id="X" class="cls-2" d="m4.6,99.55c-.5.09-1.24.95-.91,1.28l2,2-2,2c-.4.4.8,1.6,1.2,1.2l2-2,2,2c.4.4,1.6-.8,1.2-1.2l-2-2,2-2c.4-.4-.8-1.6-1.2-1.2l-2,2-2-2c-.08-.08-.17-.1-.29-.08h0Z"/>
      </g>
    </g>
    <g>
      <g id="Circle_backround-9" data-name="Circle backround-9">
        <circle id="Bg-12" class="cls-19" cx="7.06" cy="119" r="7"/>
        <g id="Inner_Shadow-12" data-name="Inner Shadow-12" class="cls-29">
          <path class="cls-18" d="m7.06,112c-2.79,0-5.19,1.63-6.32,3.98,1.07-2.15,3.3-3.63,5.86-3.63,3.62,0,6.55,2.93,6.55,6.55s-2.93,6.55-6.55,6.55S.09,122.54.06,118.95v.05c0,3.87,3.13,7,7,7s7-3.13,7-7-3.13-7-7-7Z"/>
        </g>
        <path id="inner_glow-9" data-name="inner glow-9" class="cls-4" d="m2.34,114.9c.49-.78,1.54-1.42,2.64-1.62.27-.04.55-.07.78.02.17.07.32.23.22.42-.08.15-.28.22-.45.27-1.02.33-1.96.7-2.53,1.56-.22.33-.54,1.57-.94,1.35-.43-.25-.34-1.04.29-2h0Z"/>
      </g>
      <g id="Layer_6" data-name="Layer 6">
        <path class="cls-8" d="m11.12,117.63c0,.14-.05.26-.15.36l-3.79,3.79-.71.71c-.1.1-.22.15-.36.15s-.26-.05-.36-.15l-.71-.71-1.9-1.9c-.1-.1-.15-.22-.15-.36s.05-.26.15-.36l.71-.71c.1-.1.22-.15.36-.15s.26.05.36.15l1.54,1.55,3.44-3.44c.1-.1.22-.15.36-.15s.26.05.36.15l.71.71c.1.1.15.22.15.36h0Z"/>
        <path class="cls-2" d="m11.12,117.1c0,.14-.05.26-.15.36l-3.79,3.79-.71.71c-.1.1-.22.15-.36.15s-.26-.05-.36-.15l-.71-.71-1.9-1.9c-.1-.1-.15-.22-.15-.36s.05-.26.15-.36l.71-.71c.1-.1.22-.15.36-.15s.26.05.36.15l1.54,1.55,3.44-3.44c.1-.1.22-.15.36-.15s.26.05.36.15l.71.71c.1.1.15.22.15.36h0Z"/>
      </g>
    </g>
    <g>
      <g id="Circle_backround-10" data-name="Circle backround-10">
        <circle id="Bg-13" class="cls-24" cx="7.06" cy="135" r="7"/>
        <g id="Inner_Shadow-13" data-name="Inner Shadow-13" class="cls-29">
          <path class="cls-18" d="m7.06,128c-2.79,0-5.19,1.63-6.32,3.98,1.07-2.15,3.3-3.63,5.86-3.63,3.62,0,6.54,2.93,6.54,6.55s-2.93,6.55-6.54,6.55S.09,138.54.06,134.95v.05c0,3.87,3.13,7,7,7s7-3.13,7-7-3.13-7-7-7Z"/>
        </g>
        <path id="inner_glow-10" data-name="inner glow-10" class="cls-4" d="m2.34,130.9c.49-.78,1.54-1.42,2.64-1.62.27-.04.55-.07.78.02.17.07.32.23.22.42-.08.15-.28.22-.45.27-1.02.33-1.96.7-2.53,1.56-.22.33-.54,1.57-.94,1.35-.43-.25-.34-1.04.29-2h0Z"/>
      </g>
      <g id="Up-3">
        <path class="cls-8" d="m9.81,136.59l-2.26-3.91c-.08-.14-.22-.22-.38-.22s-.3.08-.38.22l-2.26,3.91c-.08.14-.08.3,0,.44s.22.22.38.22h4.52c.16,0,.3-.08.38-.22s.08-.3,0-.44h0Z"/>
        <path class="cls-2" d="m9.81,136.06l-2.26-3.91c-.08-.14-.22-.22-.38-.22s-.3.08-.38.22l-2.26,3.91c-.08.14-.08.3,0,.44s.22.22.38.22h4.52c.16,0,.3-.08.38-.22s.08-.3,0-.44h0Z"/>
      </g>
    </g>
    <g>
      <g id="Circle_backround-11" data-name="Circle backround-11">
        <circle id="Bg-14" class="cls-24" cx="7.06" cy="151" r="7"/>
        <g id="Inner_Shadow-14" data-name="Inner Shadow-14" class="cls-29">
          <path class="cls-18" d="m7.06,144c-2.79,0-5.19,1.63-6.32,3.98,1.07-2.15,3.3-3.63,5.86-3.63,3.62,0,6.54,2.93,6.54,6.55s-2.93,6.55-6.54,6.55S.09,154.54.06,150.95v.05c0,3.87,3.13,7,7,7s7-3.13,7-7-3.13-7-7-7Z"/>
        </g>
        <path id="inner_glow-11" data-name="inner glow-11" class="cls-4" d="m2.34,146.9c.49-.78,1.54-1.42,2.64-1.62.27-.04.55-.07.78.02.17.07.32.23.22.42-.08.15-.28.22-.45.27-1.02.33-1.96.7-2.53,1.56-.22.33-.54,1.57-.94,1.35-.43-.25-.34-1.04.29-2h0Z"/>
      </g>
      <g id="Down-3">
        <path class="cls-8" d="m4.53,149.99l2.1,3.63c.15.23.39.33.55.33s.38-.07.52-.33l2.12-3.63c.08-.14.08-.3,0-.44s-.22-.22-.38-.22h-4.52c-.16,0-.3.08-.38.22s-.08.3,0,.44h0Z"/>
        <path class="cls-2" d="m4.53,149.29l2.26,3.92c.08.14.22.22.38.22s.3-.08.38-.22l2.26-3.91c.08-.14.08-.3,0-.44s-.22-.22-.38-.22h-4.52c-.16,0-.3.08-.38.22s-.08.3,0,.44h0Z"/>
      </g>
    </g>
    <g>
      <g id="Circle_backround-12" data-name="Circle backround-12">
        <circle id="Bg-15" class="cls-33" cx="7.06" cy="167" r="7"/>
        <g id="Inner_Shadow-15" data-name="Inner Shadow-15" class="cls-29">
          <path class="cls-18" d="m7.06,160c-2.79,0-5.19,1.63-6.32,3.98,1.07-2.15,3.3-3.63,5.86-3.63,3.62,0,6.54,2.93,6.54,6.55s-2.93,6.55-6.54,6.55S.09,170.54.06,166.95v.05c0,3.87,3.13,7,7,7s7-3.13,7-7-3.13-7-7-7Z"/>
        </g>
        <path id="inner_glow-12" data-name="inner glow-12" class="cls-4" d="m2.34,162.9c.49-.78,1.54-1.42,2.64-1.62.27-.04.55-.07.78.02.17.07.32.23.22.42-.08.15-.28.22-.45.27-1.02.33-1.96.7-2.53,1.56-.22.33-.54,1.57-.94,1.35-.43-.25-.34-1.04.29-2h0Z"/>
      </g>
      <g id="Up-Down">
        <path class="cls-8" d="m4.53,168.52c.08-.14.22-.22.38-.22h4.52c.16,0,.3.08.38.22s.08.3,0,.44l-2.14,3.21c-.13.21-.34.29-.5.29s-.39-.09-.5-.29l-2.14-3.21c-.08-.14-.08-.3,0-.44h0Zm5.28-2.39l-2.26-3.39c-.08-.14-.22-.22-.38-.22s-.3.08-.38.22l-2.26,3.39c-.08.14-.08.3,0,.44s.22.22.38.22h4.52c.16,0,.3-.08.38-.22s.08-.3,0-.44h0Z"/>
        <path class="cls-2" d="m4.53,167.82c.08-.14.22-.22.38-.22h4.52c.16,0,.3.08.38.22s.08.3,0,.44l-2.26,3.39c-.08.14-.22.22-.38.22s-.3-.08-.38-.22l-2.26-3.39c-.08-.14-.08-.3,0-.44h0Zm5.28-2.21l-2.26-3.39c-.08-.14-.22-.22-.38-.22s-.3.08-.38.22l-2.26,3.39c-.08.14-.08.3,0,.44s.22.22.38.22h4.52c.16,0,.3-.08.38-.22s.08-.3,0-.44h0Z"/>
      </g>
    </g>
    <g>
      <g id="Circle_backround-13" data-name="Circle backround-13">
        <circle id="Bg-16" class="cls-15" cx="7.06" cy="183" r="7"/>
        <g id="Inner_Shadow-16" data-name="Inner Shadow-16" class="cls-29">
          <path class="cls-18" d="m7.06,176c-2.79,0-5.19,1.63-6.32,3.98,1.07-2.15,3.3-3.63,5.86-3.63,3.62,0,6.55,2.93,6.55,6.55s-2.93,6.54-6.55,6.54S.09,186.54.06,182.95v.05c0,3.87,3.13,7,7,7s7-3.13,7-7-3.13-7-7-7Z"/>
        </g>
        <path id="inner_glow-13" data-name="inner glow-13" class="cls-4" d="m2.34,178.9c.49-.78,1.54-1.42,2.64-1.62.27-.04.55-.07.78.02.17.07.32.23.22.42-.08.15-.28.22-.45.27-1.02.33-1.96.7-2.53,1.56-.22.33-.54,1.58-.94,1.35-.43-.25-.34-1.04.29-2h0Z"/>
      </g>
      <g id="Asterisk">
        <path id="Asterisk-2" class="cls-5" d="m7.06,178.97c.4,0,.72.32.72.72v2.59l2.24-1.29c.34-.2.78-.08.98.26s.08.78-.26.98l-2.24,1.3,2.24,1.3c.34.2.46.64.26.98s-.64.46-.98.26l-2.24-1.3v2.59c0,.4-.32.72-.72.72s-.72-.32-.72-.72v-2.59l-2.24,1.3c-.34.2-.78.08-.98-.26s-.08-.78.26-.98l2.24-1.3-2.24-1.29c-.34-.2-.46-.64-.26-.98s.64-.46.98-.26l2.24,1.3v-2.59c0-.4.32-.72.72-.72h0v-.02Z"/>
        <path id="Asterisk-3" class="cls-30" d="m7.06,178.45c.4,0,.72.32.72.72v2.59l2.24-1.3c.34-.2.78-.08.98.26s.08.78-.26.98l-2.24,1.3,2.24,1.29c.34.2.46.64.26.98s-.64.46-.98.26l-2.24-1.3v2.59c0,.4-.32.72-.72.72s-.72-.32-.72-.72v-2.59l-2.24,1.3c-.34.2-.78.08-.98-.26s-.08-.78.26-.98l2.24-1.3-2.24-1.3c-.34-.2-.46-.64-.26-.98s.64-.46.98-.26l2.24,1.29v-2.59c0-.4.32-.72.72-.72h0v.02Z"/>
      </g>
    </g>
  </g>
</svg>