<?xml version="1.0" encoding="UTF-8"?>
<svg xmlns="http://www.w3.org/2000/svg" xmlns:xlink="http://www.w3.org/1999/xlink" viewBox="0 0 309.5 47.81">
  <defs>
    <style>
      .cls-1 {
        fill: #2b3b47;
      }

      .cls-2 {
        fill: #e74c3c;
      }

      .cls-3, .cls-4, .cls-5 {
        fill: #fff;
      }

      .cls-6, .cls-7 {
        opacity: .2;
      }

      .cls-4, .cls-8, .cls-9, .cls-10 {
        fill-rule: evenodd;
      }

      .cls-8, .cls-5, .cls-11 {
        opacity: .3;
      }

      .cls-8, .cls-5, .cls-11, .cls-7, .cls-12 {
        isolation: isolate;
      }

      .cls-13, .cls-14, .cls-15, .cls-16, .cls-17, .cls-10 {
        opacity: .3;
      }

      .cls-13, .cls-18 {
        fill: #95a5a6;
      }

      .cls-19 {
        clip-path: url(#clippath-2);
      }

      .cls-9, .cls-16, .cls-10, .cls-20 {
        fill: #bdc3c7;
      }

      .cls-21 {
        fill: #ffb636;
      }

      .cls-22 {
        clip-path: url(#clippath-6);
      }

      .cls-23 {
        fill: #adbbbc;
      }

      .cls-24 {
        clip-path: url(#clippath-7);
      }

      .cls-25 {
        fill: #3498db;
      }

      .cls-26 {
        clip-path: url(#clippath-1);
      }

      .cls-27 {
        clip-path: url(#clippath-4);
      }

      .cls-28 {
        fill: #f1c40f;
      }

      .cls-14, .cls-29 {
        fill: #7f8c8d;
      }

      .cls-30 {
        fill: #e67e22;
      }

      .cls-31 {
        fill: #f28618;
      }

      .cls-17, .cls-32 {
        fill: #ecf0f1;
      }

      .cls-33 {
        clip-path: url(#clippath-9);
      }

      .cls-34 {
        clip-path: url(#clippath);
      }

      .cls-35, .cls-12 {
        opacity: .1;
      }

      .cls-36 {
        fill: none;
      }

      .cls-37 {
        clip-path: url(#clippath-3);
      }

      .cls-38 {
        clip-path: url(#clippath-8);
      }

      .cls-39 {
        fill: #27ae60;
      }

      .cls-40 {
        clip-path: url(#clippath-5);
      }

      .cls-41 {
        fill: #c0392b;
      }

      .cls-42 {
        fill: #2ecc71;
      }

      .cls-43 {
        fill: #ff9f19;
      }

      .cls-44 {
        fill: #ff473e;
      }
    </style>
    <clipPath id="clippath">
      <path class="cls-36" d="m92,19.59c0,1.23-1,2.22-2.22,2.22h-15.56c-1.23,0-2.22-1-2.22-2.22V4.03c0-1.23.99-2.22,2.22-2.22h15.56c1.23,0,2.22,1,2.22,2.22v15.56h0Z"/>
    </clipPath>
    <clipPath id="clippath-1">
      <path class="cls-36" d="m260.01,19.59c0,1.23-.99,2.22-2.22,2.22h-15.55c-1.23,0-2.22-.99-2.22-2.22V4.03c0-1.23.99-2.22,2.22-2.22h15.55c1.23,0,2.22.99,2.22,2.22v15.56h0Z"/>
    </clipPath>
    <clipPath id="clippath-2">
      <path class="cls-36" d="m236.01,19.59c0,1.23-.99,2.22-2.22,2.22h-15.55c-1.23,0-2.22-.99-2.22-2.22V4.03c0-1.23.99-2.22,2.22-2.22h15.55c1.23,0,2.22.99,2.22,2.22v15.56h0Z"/>
    </clipPath>
    <clipPath id="clippath-3">
      <path class="cls-36" d="m140,19.59c0,1.23-.99,2.22-2.22,2.22h-15.55c-1.23,0-2.22-.99-2.22-2.22V4.03c0-1.23.99-2.22,2.22-2.22h15.56c1.23,0,2.22.99,2.22,2.22v15.56h0Z"/>
    </clipPath>
    <clipPath id="clippath-4">
      <path class="cls-36" d="m116,19.59c0,1.23-.99,2.22-2.22,2.22h-15.55c-1.23,0-2.22-.99-2.22-2.22V4.03c0-1.23.99-2.22,2.22-2.22h15.55c1.23,0,2.22.99,2.22,2.22v15.56h0Z"/>
    </clipPath>
    <clipPath id="clippath-5">
      <path class="cls-36" d="m92,43.59c0,1.23-1,2.22-2.22,2.22h-15.56c-1.23,0-2.22-1-2.22-2.22v-15.56c0-1.23.99-2.22,2.22-2.22h15.56c1.23,0,2.22,1,2.22,2.22v15.56h0Z"/>
    </clipPath>
    <clipPath id="clippath-6">
      <path class="cls-36" d="m260.01,43.59c0,1.23-.99,2.22-2.22,2.22h-15.55c-1.23,0-2.22-.99-2.22-2.22v-15.55c0-1.23.99-2.22,2.22-2.22h15.55c1.23,0,2.22.99,2.22,2.22v15.56h0Z"/>
    </clipPath>
    <clipPath id="clippath-7">
      <path class="cls-36" d="m236.01,43.59c0,1.23-.99,2.22-2.22,2.22h-15.55c-1.23,0-2.22-.99-2.22-2.22v-15.55c0-1.23.99-2.22,2.22-2.22h15.55c1.23,0,2.22.99,2.22,2.22v15.56h0Z"/>
    </clipPath>
    <clipPath id="clippath-8">
      <path class="cls-36" d="m140,43.59c0,1.23-.99,2.22-2.22,2.22h-15.55c-1.23,0-2.22-.99-2.22-2.22v-15.55c0-1.23.99-2.22,2.22-2.22h15.56c1.23,0,2.22.99,2.22,2.22v15.56h0Z"/>
    </clipPath>
    <clipPath id="clippath-9">
      <path class="cls-36" d="m116,43.59c0,1.23-.99,2.22-2.22,2.22h-15.55c-1.23,0-2.22-.99-2.22-2.22v-15.55c0-1.23.99-2.22,2.22-2.22h15.55c1.23,0,2.22.99,2.22,2.22v15.56h0Z"/>
    </clipPath>
  </defs>
  <g id="Layer_1" data-name="Layer 1">
    <g>
      <path class="cls-21" d="m32.03,13.9l.03.07s.02.05.03.08l.04.11s.03.09.04.13c.02.05.03.1.05.16l.05.18c.02.06.03.12.05.19.07.29.12.59.15.89.02.16.02.32.03.48,0,.16,0,.32-.02.48-.01.16-.04.32-.07.47-.03.15-.08.3-.13.45-.11.29-.26.56-.46.8-.1.12-.21.23-.33.34-.12.11-.23.22-.36.32-.25.22-.51.42-.78.61-.27.19-.56.37-.86.53-.15.08-.3.16-.45.23-.15.07-.3.14-.46.21-.31.13-.62.24-.93.33-.3.09-.6.16-.9.22-.58.12-1.12.16-1.51.17h-.14s-.13,0-.13,0h-.21s-.13-.01-.13-.01h-.05s0-.05,0-.05v-.13s-.01-.21-.01-.21v-.13s0-.14,0-.14c.01-.4.06-.93.17-1.51.06-.3.14-.61.22-.9.09-.31.2-.62.33-.93.07-.15.13-.31.21-.46.07-.15.15-.3.23-.45.16-.3.34-.58.53-.86.19-.27.39-.53.61-.78.11-.12.22-.24.32-.36.11-.11.22-.23.34-.33.24-.2.51-.35.8-.46.15-.05.3-.1.45-.13.16-.03.31-.06.47-.07.16-.01.32-.02.48-.02.16,0,.32.01.48.03.3.03.59.08.89.15.07.02.13.03.19.05l.18.05c.05.01.11.03.16.05.05.02.09.03.13.04l.11.04s.06.02.08.03c.05.02.07.03.07.03Z"/>
      <path class="cls-44" d="m26.96,8.83l-2.87,2.87c-.2.2-.06.54.22.54h2.41c.08,0,.16.03.22.09l1.57,1.57,2.54-5.16h-3.88c-.08,0-.16.03-.22.09h0Z"/>
      <path class="cls-44" d="m32.48,17.18l1.57,1.57c.06.06.09.14.09.22v2.41c0,.28.34.42.54.22l2.87-2.87c.06-.06.09-.14.09-.22v-3.88l-5.16,2.54h0Z"/>
      <path class="cls-23" d="m43.94,2.34v.03s0,.04.01.07c0,.06.02.16.02.28.02.24.03.58.02.99,0,.41-.04.89-.1,1.41-.01.13-.03.26-.05.4-.02.14-.04.27-.07.41-.05.28-.11.56-.18.85-.14.6-.33,1.19-.55,1.77-.23.59-.5,1.19-.82,1.77-.32.58-.68,1.14-1.09,1.67-.41.54-.86,1.04-1.34,1.52-.48.48-.99.92-1.53,1.32-.13.1-.27.2-.41.29-.14.1-.28.19-.42.28-.28.18-.57.35-.86.51-.57.31-1.16.58-1.77.82-.58.22-1.17.4-1.77.55-.29.07-.57.13-.85.18l-.21.04c-.07.01-.14.02-.2.03l-.2.03-.2.03c-.52.07-.99.1-1.4.11-.41.01-.75,0-.98-.01-.12,0-.21-.02-.28-.02-.03,0-.06,0-.07,0h-.02c-.19-.02-.33-.17-.35-.36v-.02s0-.04-.01-.07c0-.06-.02-.16-.02-.28-.02-.24-.03-.58-.01-.98.01-.41.04-.88.11-1.4l.03-.2.03-.2c.01-.07.02-.14.03-.2l.04-.21c.05-.28.11-.56.18-.85.15-.6.33-1.19.55-1.77.23-.61.5-1.2.82-1.77.16-.29.33-.58.51-.86.09-.14.18-.28.28-.42.09-.14.19-.27.29-.41.4-.54.85-1.05,1.32-1.53.48-.48.98-.93,1.52-1.34.53-.41,1.1-.77,1.67-1.09.58-.32,1.17-.59,1.77-.82.58-.22,1.17-.4,1.77-.55.29-.07.57-.13.85-.18.14-.02.27-.05.41-.07.14-.02.27-.04.4-.05.52-.06,1-.09,1.41-.1.41,0,.75,0,.99.02.12,0,.22.02.28.02.03,0,.06,0,.07,0h.03c.19.03.33.18.35.36h0Z"/>
      <path class="cls-44" d="m33.55,12.38l.02.06s.03.09.04.16c.03.13.04.29-.01.42-.03.07-.07.13-.12.19l-.15.22-.35.53c-.14.21-.28.41-.42.62-.16.23-.32.45-.48.68l-.26.35-.27.36c-.18.24-.37.48-.56.72-.19.24-.38.48-.57.71-.19.23-.37.46-.56.68l-.27.32c-.09.1-.17.21-.26.3-.09.09-.2.16-.32.21-.12.05-.26.08-.39.12-.24.06-.49.1-.74.14-.11.02-.22.03-.33.04-.1,0-.2.01-.29.02-.09,0-.17,0-.24,0-.07,0-.14,0-.19,0-.05,0-.09,0-.12,0h-.04s0-.05,0-.05c0-.03,0-.07,0-.12,0-.05,0-.11,0-.19,0-.07,0-.15,0-.24,0-.09.01-.19.02-.29,0-.1.02-.21.04-.33.03-.25.08-.5.14-.74.03-.13.06-.26.12-.39.05-.12.12-.23.21-.32.09-.09.2-.17.3-.26l.32-.27c.22-.18.45-.37.68-.56.23-.19.47-.38.71-.57.24-.19.48-.38.72-.56l.36-.27.35-.26c.23-.16.45-.32.68-.48.22-.15.43-.29.62-.42l.53-.35.22-.15c.07-.04.13-.09.19-.12.14-.05.29-.04.42-.01.06.01.12.03.16.04l.06.02h0Z"/>
      <path class="cls-1" d="m38.26,9.81c0,1.18-.96,2.14-2.14,2.14s-2.14-.96-2.14-2.14.96-2.14,2.14-2.14,2.14.96,2.14,2.14h0Zm1.08-4.59c-.75,0-1.37.61-1.37,1.37s.61,1.37,1.37,1.37,1.37-.61,1.37-1.37-.61-1.37-1.37-1.37Z"/>
    </g>
    <g>
      <path class="cls-20" d="m48.95,3.81v17c0,1.1.9,2,2,2h14c1.1,0,2-.9,2-2V3.81c0,1.1-.89,2-2,2h-14c-1.1,0-2-.9-2-2Z"/>
      <path class="cls-18" d="m48.95,4.81v4.7c.29.2.64.3,1,.3h16c.37,0,.7-.1,1-.3v-4.7c0,1.1-.89,2-2,2h-14c-1.1,0-2-.9-2-2Z"/>
      <path class="cls-39" d="m57.95,8.81h-1.16l-1.94,3.3,1.75,1,1.34-2.3,1,1.7-.88.5,2.75.8.72-2.8-.88.5-1.56-2.7h-1.16Zm-2.56,5l-2.75.8.88.5-1.59,2.7,1.16,2h3.88v-2h-2.72l1-1.7.87.5-.72-2.8h0Zm6.94.6l-1.72,1,1.34,2.4h-2v-1l-2,2,2,2v-1h3.19l1.12-2-1.94-3.4h0Z"/>
      <path class="cls-18" d="m48.95,20.81v1c0,1.1.9,2,2,2h14c1.1,0,2-.9,2-2v-1c0,1.1-.89,2-2,2h-14c-1.1,0-2-.9-2-2Z"/>
      <path class="cls-20" d="m49.95.81c-1.1,0-2,.9-2,2v4c0,1.1.9,2,2,2h16c1.1,0,2-.9,2-2v-4c0-1.1-.89-2-2-2h-16Z"/>
      <path class="cls-29" d="m50.95,1.81c-.55,0-1,.4-1,1v3c0,.5.45,1,1,1h14c.55,0,1-.5,1-1v-3c0-.6-.45-1-1-1h-14Z"/>
      <path class="cls-29" d="m57.95,8.81h-1.16l-.56,1h3.44l-.56-1h-1.16Z"/>
      <path class="cls-32" d="m56.38,1.25l-.78.56-.37.28-.28-.28-1,1h-1l-1-1-2,2v2c0,.55.45,1,1,1h14c.55,0,1-.45,1-1l-1-1v-1h-1l-1-1h-2v-.5h-1l-.31-.5-.28-.41-.41.41-1,1-1-1-.56-.56h0Z"/>
    </g>
    <g>
      <g id="Circle_backround" data-name="Circle backround">
        <circle id="Bg" class="cls-42" cx="10" cy="11.81" r="10"/>
        <g id="Inner_Shadow" data-name="Inner Shadow" class="cls-35">
          <path d="m10,1.81C6.02,1.81,2.58,4.14.97,7.5c1.53-3.08,4.71-5.19,8.38-5.19,5.16,0,9.35,4.18,9.35,9.35s-4.19,9.35-9.35,9.35S.04,16.87,0,11.74v.07c0,5.52,4.48,10,10,10s10-4.48,10-10S15.52,1.81,10,1.81Z"/>
        </g>
        <path id="inner_glow" data-name="inner glow" class="cls-5" d="m3.25,5.95c.7-1.11,2.2-2.03,3.77-2.31.39-.06.78-.1,1.11.03.25.1.45.33.31.6-.11.22-.41.31-.64.39-1.45.47-2.8,1-3.61,2.24-.31.47-.77,2.25-1.35,1.92-.61-.36-.48-1.48.41-2.86h0Z"/>
      </g>
      <g id="Add">
        <path id="Add_Shadow" data-name="Add Shadow" class="cls-11" d="m16.54,12.23c0,.6-.49,1.08-1.09,1.08h-4.37v4.37c-.03.6-.53,1.06-1.13,1.04-.56-.02-1.01-.47-1.03-1.04v-4.37h-4.37c-.6.02-1.1-.45-1.12-1.05s.45-1.1,1.05-1.12h4.44v-4.37c.03-.6.53-1.06,1.13-1.04.56.02,1.01.47,1.03,1.03v4.37h4.37c.6,0,1.08.48,1.08,1.08h0Z"/>
        <path id="Add-2" class="cls-3" d="m16.54,11.48c0,.6-.49,1.08-1.09,1.08h-4.37v4.37c-.03.6-.53,1.06-1.13,1.04-.56-.03-1.01-.48-1.03-1.04v-4.37h-4.37c-.6.02-1.1-.45-1.12-1.05s.45-1.1,1.05-1.12h4.44v-4.37c.03-.6.53-1.06,1.13-1.04.56.02,1.01.47,1.03,1.04v4.37h4.37c.6,0,1.08.48,1.08,1.08h0Z"/>
      </g>
    </g>
    <g>
      <g id="Rounded_bg" data-name="Rounded bg">
        <path id="Bg-2" data-name="Bg" class="cls-42" d="m92,19.59c0,1.23-1,2.22-2.22,2.22h-15.56c-1.23,0-2.22-1-2.22-2.22V4.03c0-1.23.99-2.22,2.22-2.22h15.56c1.23,0,2.22,1,2.22,2.22v15.56h0Z"/>
        <g id="Inner_Shadow-2" data-name="Inner Shadow">
          <g class="cls-34">
            <path class="cls-12" d="m90.66,1.81h-1.01c.68.02,1.21.58,1.2,1.25v16.32c0,.69-.56,1.25-1.25,1.25h-16.36c-.69,0-1.25-.56-1.25-1.25v1.1c0,.74.6,1.33,1.33,1.33h17.33c.74,0,1.33-.6,1.33-1.33V3.14c0-.74-.6-1.33-1.33-1.33h0Z"/>
          </g>
        </g>
        <path class="cls-5" d="m77.95,3.58c0-.36-.25-.47-1.69-.42-1.2.05-1.8.19-2.16.63s-.45,1.33-.47,2.39c0,.75,0,1.45.39,1.45.53,0,.53-1.24.97-1.92.85-1.36,2.96-1.65,2.96-2.12h0Z"/>
      </g>
      <g id="Play">
        <path class="cls-7" d="m87.18,10.9c1.32.72,1.32,2.58,0,3.3l-7.99,4.35c-1.29.7-2.87-.21-2.87-1.65v-8.69c0-1.44,1.58-2.35,2.87-1.65l7.99,4.35Z"/>
        <path class="cls-3" d="m87.18,10.15c1.32.72,1.32,2.58,0,3.3l-7.99,4.35c-1.29.7-2.87-.21-2.87-1.65V7.45c0-1.44,1.58-2.35,2.87-1.65l7.99,4.35Z"/>
      </g>
    </g>
    <path class="cls-18" d="m202.85,15.73l2.9-2.9,7.25,7.25-2.9,2.9-7.25-7.25Z"/>
    <path class="cls-29" d="m202.85,15.73l2.9-2.9,2.17,2.17-2.9,2.9-2.17-2.18Z"/>
    <path class="cls-20" d="m192.7,2.69c-3.6,3.59-3.6,9.43,0,13.02,3.6,3.59,9.44,3.59,13.05,0,3.6-3.59,3.6-9.43,0-13.02s-9.44-3.59-13.05,0Zm2.17,2.15c2.4-2.36,6.3-2.36,8.7,0,2.4,2.46,2.4,6.36,0,8.71-2.4,2.36-6.3,2.36-8.7,0s-2.4-6.25,0-8.71h0Z"/>
    <path class="cls-32" d="m205.82,9.35c0,3.68-2.98,6.66-6.66,6.66s-6.66-2.98-6.66-6.66,2.98-6.66,6.66-6.66,6.66,2.98,6.66,6.66Z"/>
    <g>
      <path class="cls-32" d="m298,.81c-6.35,0-11.5,5.15-11.5,11.5s5.15,11.5,11.5,11.5,11.5-5.15,11.5-11.5-5.15-11.5-11.5-11.5Zm0,6.71c2.65,0,4.79,2.15,4.79,4.79s-2.15,4.79-4.79,4.79-4.79-2.15-4.79-4.79,2.15-4.79,4.79-4.79Z"/>
      <path class="cls-20" d="m286.59,10.87c-.06.48-.09.96-.09,1.44,0,6.33,5.15,11.5,11.5,11.5s11.5-5.17,11.5-11.5c0-.48-.03-.96-.09-1.44-.71,5.65-5.55,10.06-11.41,10.06s-10.7-4.41-11.41-10.06h0Z"/>
      <path class="cls-20" d="m298,4.65c-2.65,0-4.79,2.15-4.79,4.79,0,.51.09.98.24,1.44.61-1.94,2.41-3.35,4.55-3.35s3.94,1.42,4.55,3.35c.15-.46.24-.93.24-1.44,0-2.65-2.15-4.79-4.79-4.79h0Z"/>
      <path class="cls-2" d="m306.13,4.17c-1.12-1.15-2.41-2.01-3.79-2.49l-2.54,6.23c.58.19,1.12.48,1.59.96.47.48.8,1.05,1.04,1.63l6.23-2.59c-.56-1.34-1.4-2.59-2.52-3.74h0Zm-12.47-2.49c-1.38.48-2.67,1.34-3.79,2.49s-1.96,2.4-2.52,3.74l6.23,2.59c.23-.57.57-1.15,1.04-1.63.47-.48,1.01-.77,1.59-.96l-2.54-6.23h0Zm14.99,14.95l-6.23-2.59c-.23.57-.57,1.15-1.04,1.63-.47.48-1.01.77-1.59,1.05l2.54,6.23c1.38-.58,2.67-1.44,3.79-2.49,1.12-1.15,1.96-2.49,2.52-3.83h0Zm-15.08-2.59l-6.23,2.59c.56,1.34,1.4,2.68,2.52,3.83,1.12,1.05,2.41,1.92,3.79,2.49l2.54-6.23c-.58-.29-1.12-.57-1.59-1.05-.47-.48-.8-1.05-1.04-1.63h0Z"/>
      <path class="cls-41" d="m288.66,16.05l-1.32.58c.56,1.34,1.39,2.68,2.52,3.83,1.12,1.05,2.42,1.92,3.8,2.49l1.02-2.49c-2.46-.77-4.56-2.3-6.02-4.41h0Zm18.69,0c-1.46,2.11-3.56,3.64-6.02,4.41l1.02,2.49c1.38-.58,2.65-1.44,3.77-2.49,1.12-1.15,1.98-2.49,2.55-3.83l-1.32-.58h0Z"/>
      <path class="cls-41" d="m295.24,5.51c-1.22.86-2.04,2.3-2.04,3.93,0,.29.03.57.09.96l.27.1c.23-.57.58-1.15,1.05-1.63.47-.48,1.01-.77,1.59-1.05l-.96-2.3h0Zm5.51,0l-.96,2.3c.58.29,1.12.58,1.59,1.05.47.48.81,1.05,1.05,1.63l.27-.1c.06-.38.09-.67.09-.96,0-1.63-.82-3.07-2.04-3.93h0Z"/>
    </g>
    <g>
      <g id="Rounded_bg-2" data-name="Rounded bg">
        <path id="Bg-3" data-name="Bg" class="cls-30" d="m260.01,19.59c0,1.23-.99,2.22-2.22,2.22h-15.55c-1.23,0-2.22-.99-2.22-2.22V4.03c0-1.23.99-2.22,2.22-2.22h15.55c1.23,0,2.22.99,2.22,2.22v15.56h0Z"/>
        <g class="cls-26">
          <g id="Inner_Shadow-3" data-name="Inner Shadow">
            <path class="cls-12" d="m258.67,1.81h-1.01c.67.02,1.21.57,1.2,1.25v16.32c0,.69-.56,1.25-1.25,1.25h-16.36c-.69,0-1.25-.56-1.25-1.25v1.1c0,.73.6,1.33,1.33,1.33h17.33c.74,0,1.33-.6,1.33-1.33V3.14c0-.73-.59-1.33-1.33-1.33Z"/>
          </g>
        </g>
        <path class="cls-5" d="m245.96,3.58c0-.36-.25-.47-1.69-.42-1.2.05-1.8.19-2.16.63s-.45,1.33-.47,2.39c0,.75,0,1.45.39,1.45.53,0,.53-1.23.97-1.92.85-1.36,2.95-1.65,2.95-2.12h0Z"/>
      </g>
      <g id="RSS">
        <g class="cls-6">
          <path d="m245.94,14.71c-1.21,0-2.17.95-2.17,2.16s.95,2.16,2.17,2.16,2.17-.95,2.17-2.16-.95-2.16-2.17-2.16Zm-.08-8.66c-.52,0-1.08.04-1.73.13-.17.04-.35.22-.35.43v2.21c0,.13.04.26.17.35s.22.13.35.09c.52-.09,1.04-.17,1.56-.17,4.33,0,7.83,3.51,7.83,7.84,0,.52-.04,1.04-.17,1.56-.04.13,0,.26.09.35s.22.17.35.17h2.21c.22,0,.39-.17.43-.35.09-.61.13-1.17.13-1.73.04-5.97-4.85-10.87-10.87-10.87h0Z"/>
          <path d="m245.9,10.38c-.6,0-1.21.09-1.78.26-.17.04-.3.22-.3.43v2.34c0,.13.09.3.22.35.13.09.3.09.43.04.47-.22.95-.35,1.47-.35,1.91,0,3.46,1.56,3.46,3.46,0,.52-.13.99-.35,1.47-.04.13-.04.3.04.43s.22.22.35.22h2.38c.17,0,.35-.13.43-.3.17-.61.26-1.21.26-1.77-.08-3.63-3.03-6.58-6.62-6.58h0Z"/>
        </g>
        <path class="cls-3" d="m245.94,13.96c-1.21,0-2.17.95-2.17,2.17s.95,2.16,2.17,2.16,2.17-.95,2.17-2.16-.95-2.17-2.17-2.17Zm-.08-8.66c-.52,0-1.08.04-1.73.13-.17.04-.35.22-.35.43v2.21c0,.13.04.26.17.35s.22.13.35.09c.52-.09,1.04-.17,1.56-.17,4.33,0,7.83,3.51,7.83,7.84,0,.52-.04,1.04-.17,1.56-.04.13,0,.26.09.35s.22.17.35.17h2.21c.22,0,.39-.17.43-.35.09-.61.13-1.17.13-1.73.04-5.97-4.85-10.87-10.87-10.87h0Z"/>
        <path class="cls-3" d="m245.9,9.63c-.6,0-1.21.09-1.78.26-.17.04-.3.22-.3.43v2.34c0,.13.09.3.22.35.13.09.3.09.43.04.47-.22.95-.35,1.47-.35,1.91,0,3.46,1.56,3.46,3.46,0,.52-.13.99-.35,1.47-.04.13-.04.3.04.43.09.13.22.22.35.22h2.38c.17,0,.35-.13.43-.3.17-.61.26-1.21.26-1.78-.08-3.63-3.03-6.58-6.62-6.58h0Z"/>
      </g>
    </g>
    <g>
      <g id="Rounded_bg-3" data-name="Rounded bg">
        <path id="Bg-4" data-name="Bg" class="cls-28" d="m236.01,19.59c0,1.23-.99,2.22-2.22,2.22h-15.55c-1.23,0-2.22-.99-2.22-2.22V4.03c0-1.23.99-2.22,2.22-2.22h15.55c1.23,0,2.22.99,2.22,2.22v15.56h0Z"/>
        <g class="cls-19">
          <g id="Inner_Shadow-4" data-name="Inner Shadow">
            <path class="cls-12" d="m234.67,1.81h-1.01c.67.02,1.21.57,1.2,1.25v16.32c0,.69-.56,1.25-1.25,1.25h-16.36c-.69,0-1.25-.56-1.25-1.25v1.1c0,.73.6,1.33,1.33,1.33h17.33c.74,0,1.33-.6,1.33-1.33V3.14c0-.73-.59-1.33-1.33-1.33Z"/>
          </g>
        </g>
        <path class="cls-5" d="m221.96,3.58c0-.36-.25-.47-1.69-.42-1.2.05-1.8.19-2.16.63s-.45,1.33-.47,2.39c0,.75,0,1.45.39,1.45.53,0,.53-1.23.97-1.92.85-1.36,2.95-1.65,2.95-2.12h0Z"/>
      </g>
      <g id="RSS-2" data-name="RSS">
        <g class="cls-6">
          <path d="m221.94,14.71c-1.21,0-2.17.95-2.17,2.16s.95,2.16,2.17,2.16,2.17-.95,2.17-2.16-.95-2.16-2.17-2.16Zm-.08-8.66c-.52,0-1.08.04-1.73.13-.17.04-.35.22-.35.43v2.21c0,.13.04.26.17.35s.22.13.35.09c.52-.09,1.04-.17,1.56-.17,4.33,0,7.83,3.51,7.83,7.84,0,.52-.04,1.04-.17,1.56-.04.13,0,.26.09.35s.22.17.35.17h2.21c.22,0,.39-.17.43-.35.09-.61.13-1.17.13-1.73.04-5.97-4.85-10.87-10.87-10.87h0Z"/>
          <path d="m221.9,10.38c-.6,0-1.21.09-1.78.26-.17.04-.3.22-.3.43v2.34c0,.13.09.3.22.35.13.09.3.09.43.04.47-.22.95-.35,1.47-.35,1.91,0,3.46,1.56,3.46,3.46,0,.52-.13.99-.35,1.47-.04.13-.04.3.04.43s.22.22.35.22h2.38c.17,0,.35-.13.43-.3.17-.61.26-1.21.26-1.77-.08-3.63-3.03-6.58-6.62-6.58h0Z"/>
        </g>
        <path class="cls-3" d="m221.94,13.96c-1.21,0-2.17.95-2.17,2.17s.95,2.16,2.17,2.16,2.17-.95,2.17-2.16-.95-2.17-2.17-2.17Zm-.08-8.66c-.52,0-1.08.04-1.73.13-.17.04-.35.22-.35.43v2.21c0,.13.04.26.17.35s.22.13.35.09c.52-.09,1.04-.17,1.56-.17,4.33,0,7.83,3.51,7.83,7.84,0,.52-.04,1.04-.17,1.56-.04.13,0,.26.09.35s.22.17.35.17h2.21c.22,0,.39-.17.43-.35.09-.61.13-1.17.13-1.73.04-5.97-4.85-10.87-10.87-10.87h0Z"/>
        <path class="cls-3" d="m221.9,9.63c-.6,0-1.21.09-1.78.26-.17.04-.3.22-.3.43v2.34c0,.13.09.3.22.35.13.09.3.09.43.04.47-.22.95-.35,1.47-.35,1.91,0,3.46,1.56,3.46,3.46,0,.52-.13.99-.35,1.47-.04.13-.04.3.04.43.09.13.22.22.35.22h2.38c.17,0,.35-.13.43-.3.17-.61.26-1.21.26-1.78-.08-3.63-3.03-6.58-6.62-6.58h0Z"/>
      </g>
    </g>
    <g>
      <g id="Rounded_bg-4" data-name="Rounded bg">
        <path id="Bg-5" data-name="Bg" class="cls-2" d="m140,19.59c0,1.23-.99,2.22-2.22,2.22h-15.55c-1.23,0-2.22-.99-2.22-2.22V4.03c0-1.23.99-2.22,2.22-2.22h15.56c1.23,0,2.22.99,2.22,2.22v15.56h0Z"/>
        <g id="Inner_Shadow-5" data-name="Inner Shadow">
          <g class="cls-37">
            <path class="cls-12" d="m138.66,1.81h-1.01c.68.02,1.21.57,1.2,1.25v16.32c0,.69-.56,1.25-1.25,1.25h-16.36c-.69,0-1.25-.56-1.25-1.25v1.1c0,.74.6,1.33,1.33,1.33h17.33c.74,0,1.33-.6,1.33-1.33V3.14c0-.73-.59-1.33-1.33-1.33Z"/>
          </g>
        </g>
        <path class="cls-5" d="m125.95,3.58c0-.36-.25-.47-1.69-.42-1.2.05-1.8.19-2.16.62s-.45,1.33-.47,2.39c0,.75,0,1.45.39,1.45.53,0,.53-1.23.97-1.92.85-1.36,2.95-1.65,2.95-2.12h0Z"/>
      </g>
      <g id="Stop">
        <path class="cls-11" d="m133.72,18.14h-7.44c-1.02,0-1.85-.83-1.85-1.85v-7.44c0-1.02.83-1.85,1.85-1.85h7.44c1.02,0,1.85.83,1.85,1.85v7.44c0,1.02-.83,1.85-1.85,1.85Z"/>
        <path class="cls-3" d="m133.72,17.39h-7.44c-1.02,0-1.85-.83-1.85-1.85v-7.44c0-1.02.83-1.85,1.85-1.85h7.44c1.02,0,1.85.83,1.85,1.85v7.44c0,1.02-.83,1.85-1.85,1.85Z"/>
      </g>
    </g>
    <g>
      <g id="Rounded_bg-5" data-name="Rounded bg">
        <path id="Bg-6" data-name="Bg" class="cls-25" d="m116,19.59c0,1.23-.99,2.22-2.22,2.22h-15.55c-1.23,0-2.22-.99-2.22-2.22V4.03c0-1.23.99-2.22,2.22-2.22h15.55c1.23,0,2.22.99,2.22,2.22v15.56h0Z"/>
        <g id="Inner_Shadow-6" data-name="Inner Shadow">
          <g class="cls-27">
            <path class="cls-12" d="m114.66,1.81h-1.01c.68.02,1.21.57,1.2,1.25v16.32c0,.69-.56,1.25-1.25,1.25h-16.36c-.69,0-1.25-.56-1.25-1.25v1.1c0,.74.6,1.33,1.33,1.33h17.33c.74,0,1.33-.6,1.33-1.33V3.14c0-.73-.59-1.33-1.33-1.33h0Z"/>
          </g>
        </g>
        <path class="cls-5" d="m101.94,3.58c0-.36-.25-.47-1.69-.42-1.2.05-1.8.19-2.16.62s-.45,1.33-.47,2.39c0,.75,0,1.45.39,1.45.53,0,.53-1.23.97-1.92.85-1.36,2.95-1.65,2.95-2.12h0Z"/>
      </g>
      <path id="Pause" class="cls-8" d="m108.84,6.44c.79,0,1.43.64,1.43,1.43v8.6c0,.79-.64,1.43-1.43,1.43s-1.43-.64-1.43-1.43V7.87c0-.79.64-1.43,1.43-1.43Zm-5.73,0c.79,0,1.43.64,1.43,1.43v8.6c0,.79-.64,1.43-1.43,1.43s-1.43-.64-1.43-1.43V7.87c0-.79.64-1.43,1.43-1.43Z"/>
      <path id="Pause-2" class="cls-4" d="m108.84,5.69c.79,0,1.43.64,1.43,1.43v8.6c0,.79-.64,1.43-1.43,1.43s-1.43-.64-1.43-1.43V7.12c0-.79.64-1.43,1.43-1.43Zm-5.73,0c.79,0,1.43.64,1.43,1.43v8.6c0,.79-.64,1.43-1.43,1.43s-1.43-.64-1.43-1.43V7.12c0-.79.64-1.43,1.43-1.43Z"/>
    </g>
    <path class="cls-9" d="m275.78,1.96c-.38-.15-.84-.15-1.78-.15s-1.42,0-1.78.15c-.5.2-.89.59-1.09,1.09-.09.23-.13.49-.15.86-.03.56-.31,1.08-.8,1.35-.49.28-1.09.26-1.58,0-.34-.18-.59-.28-.83-.31-.53-.08-1.06.08-1.49.4-.31.24-.55.65-1.03,1.45-.48.83-.7,1.23-.76,1.62-.08.53.08,1.06.4,1.48.15.19.36.35.68.55.48.3.79.8.79,1.37s-.31,1.06-.79,1.37c-.33.2-.54.36-.68.55-.33.43-.48.95-.4,1.48.05.4.29.8.76,1.6.48.81.7,1.21,1.03,1.45.43.33.96.46,1.49.4.24-.04.49-.13.83-.31.5-.26,1.09-.28,1.58,0s.78.8.8,1.35c.01.38.05.64.15.86.2.49.6.88,1.09,1.09.38.15.84.15,1.78.15s1.42,0,1.78-.15c.5-.2.89-.59,1.09-1.09.09-.23.13-.49.15-.86.03-.56.31-1.08.8-1.35s1.09-.26,1.58,0c.34.18.59.28.83.31.53.08,1.06-.08,1.49-.4.31-.24.55-.65,1.03-1.45.48-.81.7-1.21.76-1.6.08-.53-.08-1.06-.4-1.48-.15-.19-.36-.35-.69-.55-.48-.3-.79-.8-.79-1.37s.31-1.06.79-1.37c.33-.2.54-.36.69-.55.33-.43.48-.95.4-1.48-.05-.4-.29-.8-.76-1.6s-.7-1.21-1.03-1.45c-.43-.33-.96-.46-1.49-.4-.24.04-.49.13-.83.31-.5.26-1.09.28-1.58,0s-.78-.8-.8-1.35c-.01-.38-.05-.64-.15-.86-.2-.49-.6-.88-1.09-1.09h0Zm1.25,9.87c0,1.67-1.35,3.01-3.03,3.01s-3.03-1.34-3.03-3.01,1.35-3.01,3.03-3.01,3.03,1.34,3.03,3.01Z"/>
    <g>
      <path class="cls-43" d="m161.83,21.81h-15.65c-1.2,0-2.17-.98-2.17-2.17V3.99c0-1.2.98-2.17,2.17-2.17h15.65c1.2,0,2.17.98,2.17,2.17v15.65c0,1.2-.98,2.17-2.17,2.17Z"/>
      <path class="cls-31" d="m161.83,1.81h-7.83v20h7.83c1.2,0,2.17-.98,2.17-2.17V3.99c0-1.2-.98-2.17-2.17-2.17Z"/>
      <g id="Upp">
        <path id="Up" class="cls-7" d="m156.36,12.41v4.9c0,.68-.55,1.23-1.23,1.23h-2.45c-.67,0-1.23-.55-1.23-1.23v-4.89h-1c-.67,0-1.22-.55-1.22-1.22,0-.29.1-.57.3-.79l3.45-4c.44-.51,1.21-.58,1.73-.13.05.04.09.09.13.13l3.45,4c.44.51.38,1.29-.14,1.72-.22.19-.51.29-.79.29h-1.01,0Z"/>
        <path id="Up-2" class="cls-3" d="m156.36,11.66v4.9c0,.68-.55,1.23-1.23,1.23h-2.45c-.67,0-1.23-.55-1.23-1.23v-4.89h-1c-.67,0-1.22-.55-1.22-1.22,0-.29.1-.57.3-.79l3.45-4c.44-.51,1.21-.58,1.73-.13.05.04.09.09.13.13l3.45,4c.44.51.38,1.29-.14,1.72-.22.19-.51.29-.79.29h-1.01,0Z"/>
      </g>
    </g>
    <g>
      <path class="cls-43" d="m185.83,21.81h-15.65c-1.2,0-2.17-.98-2.17-2.17V3.99c0-1.2.98-2.17,2.17-2.17h15.65c1.2,0,2.17.98,2.17,2.17v15.65c0,1.2-.98,2.17-2.17,2.17Z"/>
      <path class="cls-31" d="m185.83,1.81h-7.83v20h7.83c1.2,0,2.17-.98,2.17-2.17V3.99c0-1.2-.98-2.17-2.17-2.17Z"/>
      <path id="Down" class="cls-3" d="m181.66,11.55c.71,0,1.27.57,1.27,1.28,0,.31-.11.6-.31.83l-3.6,4.17c-.46.54-1.26.6-1.8.14-.05-.04-.1-.09-.14-.14l-3.59-4.17c-.46-.53-.4-1.34.14-1.8.23-.2.52-.31.83-.31h1.04s0,0,0,0v-5.1c0-.7.57-1.28,1.27-1.28h2.55c.71,0,1.27.57,1.27,1.28v5.1"/>
      <g id="Downn">
        <path id="Down_SHadow" data-name="Down SHadow" class="cls-7" d="m175.45,12.32v-5.1c0-.7.57-1.28,1.27-1.28h2.55c.71,0,1.28.57,1.28,1.28v5.1h1.04c.71,0,1.28.57,1.28,1.28,0,.3-.11.6-.31.83l-3.6,4.17c-.46.54-1.26.6-1.8.14-.05-.04-.1-.09-.14-.14l-3.59-4.17c-.46-.53-.4-1.34.14-1.8.23-.2.53-.31.83-.31h1.04s0,0,0,0Z"/>
        <path id="Down-2" data-name="Down" class="cls-3" d="m175.45,11.57v-5.1c0-.7.57-1.28,1.27-1.28h2.55c.71,0,1.28.57,1.28,1.28v5.1h1.04c.71,0,1.28.57,1.28,1.28,0,.3-.11.6-.31.83l-3.6,4.17c-.46.54-1.26.6-1.8.14-.05-.04-.1-.09-.14-.14l-3.59-4.17c-.46-.53-.4-1.34.14-1.8.23-.2.53-.31.83-.31h1.04s0,0,0,0Z"/>
      </g>
    </g>
  </g>
  <g id="Layer_2" data-name="Layer 2">
    <g class="cls-15">
      <path class="cls-21" d="m32.03,37.9l.03.07s.02.05.03.08l.04.11s.03.09.04.13c.02.05.03.1.05.16l.05.18c.02.06.03.12.05.19.07.29.12.59.15.89.02.16.02.32.03.48,0,.16,0,.32-.02.48-.01.16-.04.32-.07.47-.03.15-.08.3-.13.45-.11.29-.26.56-.46.8-.1.12-.21.23-.33.34-.12.11-.23.22-.36.32-.25.22-.51.42-.78.61-.27.19-.56.37-.86.53-.15.08-.3.16-.45.23-.15.07-.3.14-.46.21-.31.13-.62.24-.93.33-.3.09-.6.16-.9.22-.58.12-1.12.16-1.51.17h-.14s-.13,0-.13,0h-.21s-.13-.01-.13-.01h-.05s0-.05,0-.05v-.13s-.01-.21-.01-.21v-.13s0-.14,0-.14c.01-.4.06-.93.17-1.51.06-.3.14-.61.22-.9.09-.31.2-.62.33-.93.07-.15.13-.31.21-.46.07-.15.15-.3.23-.45.16-.3.34-.58.53-.86.19-.27.39-.53.61-.78.11-.12.22-.24.32-.36.11-.11.22-.23.34-.33.24-.2.51-.35.8-.46.15-.05.3-.1.45-.13.16-.03.31-.06.47-.07.16-.01.32-.02.48-.02.16,0,.32.01.48.03.3.03.59.08.89.15.07.02.13.03.19.05l.18.05c.05.01.11.03.16.05.05.02.09.03.13.04l.11.04s.06.02.08.03c.05.02.07.03.07.03Z"/>
      <path class="cls-44" d="m26.96,32.83l-2.87,2.87c-.2.2-.06.54.22.54h2.41c.08,0,.16.03.22.09l1.57,1.57,2.54-5.16h-3.88c-.08,0-.16.03-.22.09h0Z"/>
      <path class="cls-44" d="m32.48,41.18l1.57,1.57c.06.06.09.14.09.22v2.41c0,.28.34.42.54.22l2.87-2.87c.06-.06.09-.14.09-.22v-3.88l-5.16,2.54h0Z"/>
      <path class="cls-23" d="m43.94,26.34v.03s0,.04.01.07c0,.06.02.16.02.28.02.24.03.58.02.99,0,.41-.04.89-.1,1.41-.01.13-.03.26-.05.4-.02.14-.04.27-.07.41-.05.28-.11.56-.18.85-.14.6-.33,1.19-.55,1.77-.23.59-.5,1.19-.82,1.77-.32.58-.68,1.14-1.09,1.67-.41.54-.86,1.04-1.34,1.52-.48.48-.99.92-1.53,1.32-.13.1-.27.2-.41.29-.14.1-.28.19-.42.28-.28.18-.57.35-.86.51-.57.31-1.16.58-1.77.82-.58.22-1.17.4-1.77.55-.29.07-.57.13-.85.18l-.21.04c-.07.01-.14.02-.2.03l-.2.03-.2.03c-.52.07-.99.1-1.4.11-.41.01-.75,0-.98-.01-.12,0-.21-.02-.28-.02-.03,0-.06,0-.07,0h-.02c-.19-.02-.33-.17-.35-.36v-.02s0-.04-.01-.07c0-.06-.02-.16-.02-.28-.02-.24-.03-.58-.01-.98.01-.41.04-.88.11-1.4l.03-.2.03-.2c.01-.07.02-.14.03-.2l.04-.21c.05-.28.11-.56.18-.85.15-.6.33-1.19.55-1.77.23-.61.5-1.2.82-1.77.16-.29.33-.58.51-.86.09-.14.18-.28.28-.42.09-.14.19-.27.29-.41.4-.54.85-1.05,1.32-1.53.48-.48.98-.93,1.52-1.34.53-.41,1.1-.77,1.67-1.09.58-.32,1.17-.59,1.77-.82.58-.22,1.17-.4,1.77-.55.29-.07.57-.13.85-.18.14-.02.27-.05.41-.07.14-.02.27-.04.4-.05.52-.06,1-.09,1.41-.1.41,0,.75,0,.99.02.12,0,.22.02.28.02.03,0,.06,0,.07,0h.03c.19.03.33.18.35.36h0Z"/>
      <path class="cls-44" d="m33.55,36.38l.02.06s.03.09.04.16c.03.13.04.29-.01.42-.03.07-.07.13-.12.19l-.15.22-.35.53c-.14.21-.28.41-.42.62-.16.23-.32.45-.48.68l-.26.35-.27.36c-.18.24-.37.48-.56.72-.19.24-.38.48-.57.71-.19.23-.37.46-.56.68l-.27.32c-.09.1-.17.21-.26.3-.09.09-.2.16-.32.21-.12.05-.26.08-.39.12-.24.06-.49.1-.74.14-.11.02-.22.03-.33.04-.1,0-.2.01-.29.02-.09,0-.17,0-.24,0-.07,0-.14,0-.19,0-.05,0-.09,0-.12,0h-.04s0-.05,0-.05c0-.03,0-.07,0-.12,0-.05,0-.11,0-.19,0-.07,0-.15,0-.24,0-.09.01-.19.02-.29,0-.1.02-.21.04-.33.03-.25.08-.5.14-.74.03-.13.06-.26.12-.39.05-.12.12-.23.21-.32.09-.09.2-.17.3-.26l.32-.27c.22-.18.45-.37.68-.56.23-.19.47-.38.71-.57.24-.19.48-.38.72-.56l.36-.27.35-.26c.23-.16.45-.32.68-.48.22-.15.43-.29.62-.42l.53-.35.22-.15c.07-.04.13-.09.19-.12.14-.05.29-.04.42-.01.06.01.12.03.16.04l.06.02h0Z"/>
      <path class="cls-1" d="m38.26,33.81c0,1.18-.96,2.14-2.14,2.14s-2.14-.96-2.14-2.14.96-2.14,2.14-2.14,2.14.96,2.14,2.14h0Zm1.08-4.59c-.75,0-1.37.61-1.37,1.37s.61,1.37,1.37,1.37,1.37-.61,1.37-1.37-.61-1.37-1.37-1.37Z"/>
    </g>
    <g class="cls-15">
      <path class="cls-20" d="m48.95,27.81v17c0,1.1.9,2,2,2h14c1.1,0,2-.9,2-2v-17c0,1.1-.89,2-2,2h-14c-1.1,0-2-.9-2-2Z"/>
      <path class="cls-18" d="m48.95,28.81v4.7c.29.2.64.3,1,.3h16c.37,0,.7-.1,1-.3v-4.7c0,1.1-.89,2-2,2h-14c-1.1,0-2-.9-2-2Z"/>
      <path class="cls-39" d="m57.95,32.81h-1.16l-1.94,3.3,1.75,1,1.34-2.3,1,1.7-.88.5,2.75.8.72-2.8-.88.5-1.56-2.7h-1.16Zm-2.56,5l-2.75.8.88.5-1.59,2.7,1.16,2h3.88v-2h-2.72l1-1.7.87.5-.72-2.8h0Zm6.94.6l-1.72,1,1.34,2.4h-2v-1l-2,2,2,2v-1h3.19l1.12-2-1.94-3.4h0Z"/>
      <path class="cls-18" d="m48.95,44.81v1c0,1.1.9,2,2,2h14c1.1,0,2-.9,2-2v-1c0,1.1-.89,2-2,2h-14c-1.1,0-2-.9-2-2Z"/>
      <path class="cls-20" d="m49.95,24.81c-1.1,0-2,.9-2,2v4c0,1.1.9,2,2,2h16c1.1,0,2-.9,2-2v-4c0-1.1-.89-2-2-2h-16Z"/>
      <path class="cls-29" d="m50.95,25.81c-.55,0-1,.4-1,1v3c0,.5.45,1,1,1h14c.55,0,1-.5,1-1v-3c0-.6-.45-1-1-1h-14Z"/>
      <path class="cls-29" d="m57.95,32.81h-1.16l-.56,1h3.44l-.56-1h-1.16Z"/>
      <path class="cls-32" d="m56.38,25.25l-.78.56-.37.28-.28-.28-1,1h-1l-1-1-2,2v2c0,.55.45,1,1,1h14c.55,0,1-.45,1-1l-1-1v-1h-1l-1-1h-2v-.5h-1l-.31-.5-.28-.41-.41.41-1,1-1-1-.56-.56h0Z"/>
    </g>
    <g class="cls-15">
      <g id="Circle_backround-2" data-name="Circle backround">
        <circle id="Bg-7" data-name="Bg" class="cls-42" cx="10" cy="35.31" r="10"/>
        <g id="Inner_Shadow-7" data-name="Inner Shadow" class="cls-35">
          <path d="m10,25.31c-3.98,0-7.42,2.32-9.03,5.69,1.53-3.08,4.71-5.19,8.38-5.19,5.16,0,9.35,4.18,9.35,9.35s-4.19,9.35-9.35,9.35S.04,40.37,0,35.24v.07c0,5.52,4.48,10,10,10s10-4.48,10-10-4.48-10-10-10Z"/>
        </g>
        <path id="inner_glow-2" data-name="inner glow" class="cls-5" d="m3.25,29.45c.7-1.11,2.2-2.03,3.77-2.31.39-.06.78-.1,1.11.03.25.1.45.33.31.6-.11.22-.41.31-.64.39-1.45.47-2.8,1-3.61,2.24-.31.47-.77,2.25-1.35,1.92-.61-.36-.48-1.48.41-2.86h0Z"/>
      </g>
      <g id="Add-2" data-name="Add">
        <path id="Add_Shadow-2" data-name="Add Shadow" class="cls-11" d="m16.54,35.73c0,.6-.49,1.08-1.09,1.08h-4.37v4.37c-.03.6-.53,1.06-1.13,1.04-.56-.02-1.01-.47-1.03-1.04v-4.37h-4.37c-.6.02-1.1-.45-1.12-1.05s.45-1.1,1.05-1.12h4.44v-4.37c.03-.6.53-1.06,1.13-1.04.56.02,1.01.47,1.03,1.03v4.37h4.37c.6,0,1.08.48,1.08,1.08h0Z"/>
        <path id="Add-2-2" data-name="Add-2" class="cls-3" d="m16.54,34.98c0,.6-.49,1.08-1.09,1.08h-4.37v4.37c-.03.6-.53,1.06-1.13,1.04-.56-.03-1.01-.48-1.03-1.04v-4.37h-4.37c-.6.02-1.1-.45-1.12-1.05s.45-1.1,1.05-1.12h4.44v-4.37c.03-.6.53-1.06,1.13-1.04.56.02,1.01.47,1.03,1.04v4.37h4.37c.6,0,1.08.48,1.08,1.08h0Z"/>
      </g>
    </g>
    <g class="cls-15">
      <g id="Rounded_bg-6" data-name="Rounded bg">
        <path id="Bg-8" data-name="Bg" class="cls-42" d="m92,43.59c0,1.23-1,2.22-2.22,2.22h-15.56c-1.23,0-2.22-1-2.22-2.22v-15.56c0-1.23.99-2.22,2.22-2.22h15.56c1.23,0,2.22,1,2.22,2.22v15.56h0Z"/>
        <g id="Inner_Shadow-8" data-name="Inner Shadow">
          <g class="cls-40">
            <path class="cls-12" d="m90.66,25.81h-1.01c.68.02,1.21.58,1.2,1.25v16.32c0,.69-.56,1.25-1.25,1.25h-16.36c-.69,0-1.25-.56-1.25-1.25v1.1c0,.74.6,1.33,1.33,1.33h17.33c.74,0,1.33-.6,1.33-1.33v-17.34c0-.74-.6-1.33-1.33-1.33h0Z"/>
          </g>
        </g>
        <path class="cls-5" d="m77.95,27.58c0-.36-.25-.47-1.69-.42-1.2.05-1.8.19-2.16.63s-.45,1.33-.47,2.39c0,.75,0,1.45.39,1.45.53,0,.53-1.24.97-1.92.85-1.36,2.96-1.65,2.96-2.12h0Z"/>
      </g>
      <g id="Play-2" data-name="Play">
        <path class="cls-7" d="m87.18,34.9c1.32.72,1.32,2.58,0,3.3l-7.99,4.35c-1.29.7-2.87-.21-2.87-1.65v-8.69c0-1.44,1.58-2.35,2.87-1.65l7.99,4.35Z"/>
        <path class="cls-3" d="m87.18,34.15c1.32.72,1.32,2.58,0,3.3l-7.99,4.35c-1.29.7-2.87-.21-2.87-1.65v-8.69c0-1.44,1.58-2.35,2.87-1.65l7.99,4.35Z"/>
      </g>
    </g>
    <path class="cls-13" d="m202.85,39.73l2.9-2.9,7.25,7.25-2.9,2.9-7.25-7.25Z"/>
    <path class="cls-14" d="m202.85,39.73l2.9-2.9,2.17,2.17-2.9,2.9-2.17-2.18Z"/>
    <path class="cls-16" d="m192.7,26.69c-3.6,3.59-3.6,9.43,0,13.02,3.6,3.59,9.44,3.59,13.05,0,3.6-3.59,3.6-9.43,0-13.02s-9.44-3.59-13.05,0Zm2.17,2.15c2.4-2.36,6.3-2.36,8.7,0,2.4,2.46,2.4,6.36,0,8.71-2.4,2.36-6.3,2.36-8.7,0s-2.4-6.25,0-8.71h0Z"/>
    <path class="cls-17" d="m205.82,33.35c0,3.68-2.98,6.66-6.66,6.66s-6.66-2.98-6.66-6.66,2.98-6.66,6.66-6.66,6.66,2.98,6.66,6.66Z"/>
    <g class="cls-15">
      <path class="cls-32" d="m298,24.81c-6.35,0-11.5,5.15-11.5,11.5s5.15,11.5,11.5,11.5,11.5-5.15,11.5-11.5-5.15-11.5-11.5-11.5Zm0,6.71c2.65,0,4.79,2.15,4.79,4.79s-2.15,4.79-4.79,4.79-4.79-2.15-4.79-4.79,2.15-4.79,4.79-4.79Z"/>
      <path class="cls-20" d="m286.59,34.87c-.06.48-.09.96-.09,1.44,0,6.33,5.15,11.5,11.5,11.5s11.5-5.17,11.5-11.5c0-.48-.03-.96-.09-1.44-.71,5.65-5.55,10.06-11.41,10.06s-10.7-4.41-11.41-10.06h0Z"/>
      <path class="cls-20" d="m298,28.65c-2.65,0-4.79,2.15-4.79,4.79,0,.51.09.98.24,1.44.61-1.94,2.41-3.35,4.55-3.35s3.94,1.42,4.55,3.35c.15-.46.24-.93.24-1.44,0-2.65-2.15-4.79-4.79-4.79h0Z"/>
      <path class="cls-2" d="m306.13,28.17c-1.12-1.15-2.41-2.01-3.79-2.49l-2.54,6.23c.58.19,1.12.48,1.59.96.47.48.8,1.05,1.04,1.63l6.23-2.59c-.56-1.34-1.4-2.59-2.52-3.74h0Zm-12.47-2.49c-1.38.48-2.67,1.34-3.79,2.49s-1.96,2.4-2.52,3.74l6.23,2.59c.23-.57.57-1.15,1.04-1.63.47-.48,1.01-.77,1.59-.96l-2.54-6.23h0Zm14.99,14.95l-6.23-2.59c-.23.57-.57,1.15-1.04,1.63-.47.48-1.01.77-1.59,1.05l2.54,6.23c1.38-.58,2.67-1.44,3.79-2.49,1.12-1.15,1.96-2.49,2.52-3.83h0Zm-15.08-2.59l-6.23,2.59c.56,1.34,1.4,2.68,2.52,3.83,1.12,1.05,2.41,1.92,3.79,2.49l2.54-6.23c-.58-.29-1.12-.57-1.59-1.05-.47-.48-.8-1.05-1.04-1.63h0Z"/>
      <path class="cls-41" d="m288.66,40.05l-1.32.58c.56,1.34,1.39,2.68,2.52,3.83,1.12,1.05,2.42,1.92,3.8,2.49l1.02-2.49c-2.46-.77-4.56-2.3-6.02-4.41h0Zm18.69,0c-1.46,2.11-3.56,3.64-6.02,4.41l1.02,2.49c1.38-.58,2.65-1.44,3.77-2.49,1.12-1.15,1.98-2.49,2.55-3.83l-1.32-.58h0Z"/>
      <path class="cls-41" d="m295.24,29.51c-1.22.86-2.04,2.3-2.04,3.93,0,.29.03.57.09.96l.27.1c.23-.57.58-1.15,1.05-1.63.47-.48,1.01-.77,1.59-1.05l-.96-2.3h0Zm5.51,0l-.96,2.3c.58.29,1.12.58,1.59,1.05.47.48.81,1.05,1.05,1.63l.27-.1c.06-.38.09-.67.09-.96,0-1.63-.82-3.07-2.04-3.93h0Z"/>
    </g>
    <g class="cls-15">
      <g id="Rounded_bg-7" data-name="Rounded bg">
        <path id="Bg-9" data-name="Bg" class="cls-30" d="m260.01,43.59c0,1.23-.99,2.22-2.22,2.22h-15.55c-1.23,0-2.22-.99-2.22-2.22v-15.55c0-1.23.99-2.22,2.22-2.22h15.55c1.23,0,2.22.99,2.22,2.22v15.56h0Z"/>
        <g class="cls-22">
          <g id="Inner_Shadow-9" data-name="Inner Shadow">
            <path class="cls-12" d="m258.67,25.81h-1.01c.67.02,1.21.57,1.2,1.25v16.32c0,.69-.56,1.25-1.25,1.25h-16.36c-.69,0-1.25-.56-1.25-1.25v1.1c0,.73.6,1.33,1.33,1.33h17.33c.74,0,1.33-.6,1.33-1.33v-17.34c0-.73-.59-1.33-1.33-1.33Z"/>
          </g>
        </g>
        <path class="cls-5" d="m245.96,27.58c0-.36-.25-.47-1.69-.42-1.2.05-1.8.19-2.16.63s-.45,1.33-.47,2.39c0,.75,0,1.45.39,1.45.53,0,.53-1.23.97-1.92.85-1.36,2.95-1.65,2.95-2.12h0Z"/>
      </g>
      <g id="RSS-3" data-name="RSS">
        <g class="cls-6">
          <path d="m245.94,38.71c-1.21,0-2.17.95-2.17,2.16s.95,2.16,2.17,2.16,2.17-.95,2.17-2.16-.95-2.16-2.17-2.16Zm-.08-8.66c-.52,0-1.08.04-1.73.13-.17.04-.35.22-.35.43v2.21c0,.13.04.26.17.35s.22.13.35.09c.52-.09,1.04-.17,1.56-.17,4.33,0,7.83,3.51,7.83,7.84,0,.52-.04,1.04-.17,1.56-.04.13,0,.26.09.35s.22.17.35.17h2.21c.22,0,.39-.17.43-.35.09-.61.13-1.17.13-1.73.04-5.97-4.85-10.87-10.87-10.87h0Z"/>
          <path d="m245.9,34.38c-.6,0-1.21.09-1.78.26-.17.04-.3.22-.3.43v2.34c0,.13.09.3.22.35.13.09.3.09.43.04.47-.22.95-.35,1.47-.35,1.91,0,3.46,1.56,3.46,3.46,0,.52-.13.99-.35,1.47-.04.13-.04.3.04.43s.22.22.35.22h2.38c.17,0,.35-.13.43-.3.17-.61.26-1.21.26-1.77-.08-3.63-3.03-6.58-6.62-6.58h0Z"/>
        </g>
        <path class="cls-3" d="m245.94,37.96c-1.21,0-2.17.95-2.17,2.17s.95,2.16,2.17,2.16,2.17-.95,2.17-2.16-.95-2.17-2.17-2.17Zm-.08-8.66c-.52,0-1.08.04-1.73.13-.17.04-.35.22-.35.43v2.21c0,.13.04.26.17.35s.22.13.35.09c.52-.09,1.04-.17,1.56-.17,4.33,0,7.83,3.51,7.83,7.84,0,.52-.04,1.04-.17,1.56-.04.13,0,.26.09.35s.22.17.35.17h2.21c.22,0,.39-.17.43-.35.09-.61.13-1.17.13-1.73.04-5.97-4.85-10.87-10.87-10.87h0Z"/>
        <path class="cls-3" d="m245.9,33.63c-.6,0-1.21.09-1.78.26-.17.04-.3.22-.3.43v2.34c0,.13.09.3.22.35.13.09.3.09.43.04.47-.22.95-.35,1.47-.35,1.91,0,3.46,1.56,3.46,3.46,0,.52-.13.99-.35,1.47-.04.13-.04.3.04.43.09.13.22.22.35.22h2.38c.17,0,.35-.13.43-.3.17-.61.26-1.21.26-1.78-.08-3.63-3.03-6.58-6.62-6.58h0Z"/>
      </g>
    </g>
    <g class="cls-15">
      <g id="Rounded_bg-8" data-name="Rounded bg">
        <path id="Bg-10" data-name="Bg" class="cls-28" d="m236.01,43.59c0,1.23-.99,2.22-2.22,2.22h-15.55c-1.23,0-2.22-.99-2.22-2.22v-15.55c0-1.23.99-2.22,2.22-2.22h15.55c1.23,0,2.22.99,2.22,2.22v15.56h0Z"/>
        <g class="cls-24">
          <g id="Inner_Shadow-10" data-name="Inner Shadow">
            <path class="cls-12" d="m234.67,25.81h-1.01c.67.02,1.21.57,1.2,1.25v16.32c0,.69-.56,1.25-1.25,1.25h-16.36c-.69,0-1.25-.56-1.25-1.25v1.1c0,.73.6,1.33,1.33,1.33h17.33c.74,0,1.33-.6,1.33-1.33v-17.34c0-.73-.59-1.33-1.33-1.33Z"/>
          </g>
        </g>
        <path class="cls-5" d="m221.96,27.58c0-.36-.25-.47-1.69-.42-1.2.05-1.8.19-2.16.63s-.45,1.33-.47,2.39c0,.75,0,1.45.39,1.45.53,0,.53-1.23.97-1.92.85-1.36,2.95-1.65,2.95-2.12h0Z"/>
      </g>
      <g id="RSS-4" data-name="RSS">
        <g class="cls-6">
          <path d="m221.94,38.71c-1.21,0-2.17.95-2.17,2.16s.95,2.16,2.17,2.16,2.17-.95,2.17-2.16-.95-2.16-2.17-2.16Zm-.08-8.66c-.52,0-1.08.04-1.73.13-.17.04-.35.22-.35.43v2.21c0,.13.04.26.17.35s.22.13.35.09c.52-.09,1.04-.17,1.56-.17,4.33,0,7.83,3.51,7.83,7.84,0,.52-.04,1.04-.17,1.56-.04.13,0,.26.09.35s.22.17.35.17h2.21c.22,0,.39-.17.43-.35.09-.61.13-1.17.13-1.73.04-5.97-4.85-10.87-10.87-10.87h0Z"/>
          <path d="m221.9,34.38c-.6,0-1.21.09-1.78.26-.17.04-.3.22-.3.43v2.34c0,.13.09.3.22.35.13.09.3.09.43.04.47-.22.95-.35,1.47-.35,1.91,0,3.46,1.56,3.46,3.46,0,.52-.13.99-.35,1.47-.04.13-.04.3.04.43s.22.22.35.22h2.38c.17,0,.35-.13.43-.3.17-.61.26-1.21.26-1.77-.08-3.63-3.03-6.58-6.62-6.58h0Z"/>
        </g>
        <path class="cls-3" d="m221.94,37.96c-1.21,0-2.17.95-2.17,2.17s.95,2.16,2.17,2.16,2.17-.95,2.17-2.16-.95-2.17-2.17-2.17Zm-.08-8.66c-.52,0-1.08.04-1.73.13-.17.04-.35.22-.35.43v2.21c0,.13.04.26.17.35s.22.13.35.09c.52-.09,1.04-.17,1.56-.17,4.33,0,7.83,3.51,7.83,7.84,0,.52-.04,1.04-.17,1.56-.04.13,0,.26.09.35s.22.17.35.17h2.21c.22,0,.39-.17.43-.35.09-.61.13-1.17.13-1.73.04-5.97-4.85-10.87-10.87-10.87h0Z"/>
        <path class="cls-3" d="m221.9,33.63c-.6,0-1.21.09-1.78.26-.17.04-.3.22-.3.43v2.34c0,.13.09.3.22.35.13.09.3.09.43.04.47-.22.95-.35,1.47-.35,1.91,0,3.46,1.56,3.46,3.46,0,.52-.13.99-.35,1.47-.04.13-.04.3.04.43.09.13.22.22.35.22h2.38c.17,0,.35-.13.43-.3.17-.61.26-1.21.26-1.78-.08-3.63-3.03-6.58-6.62-6.58h0Z"/>
      </g>
    </g>
    <g class="cls-15">
      <g>
        <g id="Rounded_bg-9" data-name="Rounded bg">
          <path id="Bg-11" data-name="Bg" class="cls-2" d="m140,43.59c0,1.23-.99,2.22-2.22,2.22h-15.55c-1.23,0-2.22-.99-2.22-2.22v-15.55c0-1.23.99-2.22,2.22-2.22h15.56c1.23,0,2.22.99,2.22,2.22v15.56h0Z"/>
          <g id="Inner_Shadow-11" data-name="Inner Shadow">
            <g class="cls-38">
              <path class="cls-12" d="m138.66,25.81h-1.01c.68.02,1.21.57,1.2,1.25v16.32c0,.69-.56,1.25-1.25,1.25h-16.36c-.69,0-1.25-.56-1.25-1.25v1.1c0,.74.6,1.33,1.33,1.33h17.33c.74,0,1.33-.6,1.33-1.33v-17.34c0-.73-.59-1.33-1.33-1.33Z"/>
            </g>
          </g>
          <path class="cls-5" d="m125.95,27.58c0-.36-.25-.47-1.69-.42-1.2.05-1.8.19-2.16.62s-.45,1.33-.47,2.39c0,.75,0,1.45.39,1.45.53,0,.53-1.23.97-1.92.85-1.36,2.95-1.65,2.95-2.12h0Z"/>
        </g>
        <g id="Stop-2" data-name="Stop">
          <path class="cls-11" d="m133.72,42.14h-7.44c-1.02,0-1.85-.83-1.85-1.85v-7.44c0-1.02.83-1.85,1.85-1.85h7.44c1.02,0,1.85.83,1.85,1.85v7.44c0,1.02-.83,1.85-1.85,1.85Z"/>
          <path class="cls-3" d="m133.72,41.39h-7.44c-1.02,0-1.85-.83-1.85-1.85v-7.44c0-1.02.83-1.85,1.85-1.85h7.44c1.02,0,1.85.83,1.85,1.85v7.44c0,1.02-.83,1.85-1.85,1.85Z"/>
        </g>
      </g>
    </g>
    <g class="cls-15">
      <g id="Rounded_bg-10" data-name="Rounded bg">
        <path id="Bg-12" data-name="Bg" class="cls-25" d="m116,43.59c0,1.23-.99,2.22-2.22,2.22h-15.55c-1.23,0-2.22-.99-2.22-2.22v-15.55c0-1.23.99-2.22,2.22-2.22h15.55c1.23,0,2.22.99,2.22,2.22v15.56h0Z"/>
        <g id="Inner_Shadow-12" data-name="Inner Shadow">
          <g class="cls-33">
            <path class="cls-12" d="m114.66,25.81h-1.01c.68.02,1.21.57,1.2,1.25v16.32c0,.69-.56,1.25-1.25,1.25h-16.36c-.69,0-1.25-.56-1.25-1.25v1.1c0,.74.6,1.33,1.33,1.33h17.33c.74,0,1.33-.6,1.33-1.33v-17.34c0-.73-.59-1.33-1.33-1.33h0Z"/>
          </g>
        </g>
        <path class="cls-5" d="m101.94,27.58c0-.36-.25-.47-1.69-.42-1.2.05-1.8.19-2.16.62s-.45,1.33-.47,2.39c0,.75,0,1.45.39,1.45.53,0,.53-1.23.97-1.92.85-1.36,2.95-1.65,2.95-2.12h0Z"/>
      </g>
      <path id="Pause-2" data-name="Pause" class="cls-8" d="m108.84,30.44c.79,0,1.43.64,1.43,1.43v8.6c0,.79-.64,1.43-1.43,1.43s-1.43-.64-1.43-1.43v-8.6c0-.79.64-1.43,1.43-1.43Zm-5.73,0c.79,0,1.43.64,1.43,1.43v8.6c0,.79-.64,1.43-1.43,1.43s-1.43-.64-1.43-1.43v-8.6c0-.79.64-1.43,1.43-1.43Z"/>
      <path id="Pause-2-2" data-name="Pause-2" class="cls-4" d="m108.84,29.69c.79,0,1.43.64,1.43,1.43v8.6c0,.79-.64,1.43-1.43,1.43s-1.43-.64-1.43-1.43v-8.6c0-.79.64-1.43,1.43-1.43Zm-5.73,0c.79,0,1.43.64,1.43,1.43v8.6c0,.79-.64,1.43-1.43,1.43s-1.43-.64-1.43-1.43v-8.6c0-.79.64-1.43,1.43-1.43Z"/>
    </g>
    <path class="cls-10" d="m275.78,25.96c-.38-.15-.84-.15-1.78-.15s-1.42,0-1.78.15c-.5.2-.89.59-1.09,1.09-.09.23-.13.49-.15.86-.03.56-.31,1.08-.8,1.35-.49.28-1.09.26-1.58,0-.34-.18-.59-.28-.83-.31-.53-.08-1.06.08-1.49.4-.31.24-.55.65-1.03,1.45-.48.83-.7,1.23-.76,1.62-.08.53.08,1.06.4,1.48.15.19.36.35.68.55.48.3.79.8.79,1.37s-.31,1.06-.79,1.37c-.33.2-.54.36-.68.55-.33.43-.48.95-.4,1.48.05.4.29.8.76,1.6.48.81.7,1.21,1.03,1.45.43.33.96.46,1.49.4.24-.04.49-.13.83-.31.5-.26,1.09-.28,1.58,0s.78.8.8,1.35c.01.38.05.64.15.86.2.49.6.88,1.09,1.09.38.15.84.15,1.78.15s1.42,0,1.78-.15c.5-.2.89-.59,1.09-1.09.09-.23.13-.49.15-.86.03-.56.31-1.08.8-1.35s1.09-.26,1.58,0c.34.18.59.28.83.31.53.08,1.06-.08,1.49-.4.31-.24.55-.65,1.03-1.45.48-.81.7-1.21.76-1.6.08-.53-.08-1.06-.4-1.48-.15-.19-.36-.35-.69-.55-.48-.3-.79-.8-.79-1.37s.31-1.06.79-1.37c.33-.2.54-.36.69-.55.33-.43.48-.95.4-1.48-.05-.4-.29-.8-.76-1.6s-.7-1.21-1.03-1.45c-.43-.33-.96-.46-1.49-.4-.24.04-.49.13-.83.31-.5.26-1.09.28-1.58,0s-.78-.8-.8-1.35c-.01-.38-.05-.64-.15-.86-.2-.49-.6-.88-1.09-1.09h0Zm1.25,9.87c0,1.67-1.35,3.01-3.03,3.01s-3.03-1.34-3.03-3.01,1.35-3.01,3.03-3.01,3.03,1.34,3.03,3.01Z"/>
    <g class="cls-15">
      <path class="cls-43" d="m161.83,45.81h-15.65c-1.2,0-2.17-.98-2.17-2.17v-15.65c0-1.2.98-2.17,2.17-2.17h15.65c1.2,0,2.17.98,2.17,2.17v15.65c0,1.2-.98,2.17-2.17,2.17Z"/>
      <path class="cls-31" d="m161.83,25.81h-7.83v20h7.83c1.2,0,2.17-.98,2.17-2.17v-15.65c0-1.2-.98-2.17-2.17-2.17Z"/>
      <g id="Upp-2" data-name="Upp">
        <path id="Up-2" data-name="Up" class="cls-7" d="m156.36,36.41v4.9c0,.68-.55,1.23-1.23,1.23h-2.45c-.67,0-1.23-.55-1.23-1.23v-4.89h-1c-.67,0-1.22-.55-1.22-1.22,0-.29.1-.57.3-.79l3.45-4c.44-.51,1.21-.58,1.73-.13.05.04.09.09.13.13l3.45,4c.44.51.38,1.29-.14,1.72-.22.19-.51.29-.79.29h-1.01,0Z"/>
        <path id="Up-2-2" data-name="Up-2" class="cls-3" d="m156.36,35.66v4.9c0,.68-.55,1.23-1.23,1.23h-2.45c-.67,0-1.23-.55-1.23-1.23v-4.89h-1c-.67,0-1.22-.55-1.22-1.22,0-.29.1-.57.3-.79l3.45-4c.44-.51,1.21-.58,1.73-.13.05.04.09.09.13.13l3.45,4c.44.51.38,1.29-.14,1.72-.22.19-.51.29-.79.29h-1.01,0Z"/>
      </g>
    </g>
    <g class="cls-15">
      <path class="cls-43" d="m185.83,45.81h-15.65c-1.2,0-2.17-.98-2.17-2.17v-15.65c0-1.2.98-2.17,2.17-2.17h15.65c1.2,0,2.17.98,2.17,2.17v15.65c0,1.2-.98,2.17-2.17,2.17Z"/>
      <path class="cls-31" d="m185.83,25.81h-7.83v20h7.83c1.2,0,2.17-.98,2.17-2.17v-15.65c0-1.2-.98-2.17-2.17-2.17Z"/>
      <path id="Down-3" data-name="Down" class="cls-3" d="m181.66,35.55c.71,0,1.27.57,1.27,1.28,0,.31-.11.6-.31.83l-3.6,4.17c-.46.54-1.26.6-1.8.14-.05-.04-.1-.09-.14-.14l-3.59-4.17c-.46-.53-.4-1.34.14-1.8.23-.2.52-.31.83-.31h1.04s0,0,0,0v-5.1c0-.7.57-1.28,1.27-1.28h2.55c.71,0,1.27.57,1.27,1.28v5.1"/>
      <g id="Downn-2" data-name="Downn">
        <path id="Down_SHadow-2" data-name="Down SHadow" class="cls-7" d="m175.45,36.32v-5.1c0-.7.57-1.28,1.27-1.28h2.55c.71,0,1.28.57,1.28,1.28v5.1h1.04c.71,0,1.28.57,1.28,1.28,0,.3-.11.6-.31.83l-3.6,4.17c-.46.54-1.26.6-1.8.14-.05-.04-.1-.09-.14-.14l-3.59-4.17c-.46-.53-.4-1.34.14-1.8.23-.2.53-.31.83-.31h1.04s0,0,0,0Z"/>
        <path id="Down-4" data-name="Down" class="cls-3" d="m175.45,35.57v-5.1c0-.7.57-1.28,1.27-1.28h2.55c.71,0,1.28.57,1.28,1.28v5.1h1.04c.71,0,1.28.57,1.28,1.28,0,.3-.11.6-.31.83l-3.6,4.17c-.46.54-1.26.6-1.8.14-.05-.04-.1-.09-.14-.14l-3.59-4.17c-.46-.53-.4-1.34.14-1.8.23-.2.53-.31.83-.31h1.04s0,0,0,0Z"/>
      </g>
    </g>
  </g>
</svg>