<?xml version="1.0" encoding="utf-8"?>
<!-- Generator: Adobe Illustrator 27.3.1, SVG Export Plug-In . SVG Version: 6.00 Build 0)  -->
<svg version="1.1" xmlns="http://www.w3.org/2000/svg" xmlns:xlink="http://www.w3.org/1999/xlink" x="0px" y="0px"
	 viewBox="0 0 310 24" style="enable-background:new 0 0 310 24;" xml:space="preserve">
<style type="text/css">
	.st0{fill:#FFB636;}
	.st1{fill:#FF473E;}
	.st2{fill:#ADBBBC;}
	.st3{fill:#2B3B47;}
	.st4{fill:#BDC3C7;}
	.st5{fill:#95A5A6;}
	.st6{fill:#27AE60;}
	.st7{fill:#7F8C8D;}
	.st8{fill:#ECF0F1;}
	.st9{fill:#2ECC71;}
	.st10{opacity:0.1;}
	.st11{opacity:0.3;fill:#FFFFFF;enable-background:new    ;}
	.st12{opacity:0.3;enable-background:new    ;}
	.st13{fill:#FFFFFF;}
	.st14{clip-path:url(#SVGID_00000154413795226361065600000016466245191174880904_);}
	.st15{opacity:0.1;enable-background:new    ;}
	.st16{opacity:0.2;enable-background:new    ;}
	.st17{fill:#E74C3C;}
	.st18{fill:#C0392B;}
	.st19{fill:#E67E22;}
	.st20{clip-path:url(#SVGID_00000134942372643608182970000012066802303800221872_);}
	.st21{opacity:0.2;}
	.st22{fill:#F1C40F;}
	.st23{clip-path:url(#SVGID_00000152260917207069855370000012727663957738223503_);}
	.st24{clip-path:url(#SVGID_00000129172014410874072470000011874259530531310468_);}
	.st25{fill:#3498DB;}
	.st26{clip-path:url(#SVGID_00000040560357507235853780000017861884830282149517_);}
	.st27{opacity:0.3;fill-rule:evenodd;clip-rule:evenodd;enable-background:new    ;}
	.st28{fill-rule:evenodd;clip-rule:evenodd;fill:#FFFFFF;}
	.st29{fill:#FF9F19;}
	.st30{fill:#F28618;}
	.st31{fill-rule:evenodd;clip-rule:evenodd;fill:#BDC3C7;}
	.st32{fill:none;}
</style>
<g id="Layer_1">
	<g id="Layer_1_00000080897141681023375710000010439379975947680184_">
		<g>
			<path class="st0" d="M32.1,14.1L32.1,14.1c0,0.1,0.1,0.1,0.1,0.2l0,0.1c0,0,0,0.1,0,0.1c0,0.1,0,0.1,0.1,0.2l0.1,0.2
				c0,0.1,0,0.1,0.1,0.2c0.1,0.3,0.1,0.6,0.2,0.9c0,0.2,0,0.3,0,0.5c0,0.2,0,0.3,0,0.5c0,0.2,0,0.3-0.1,0.5c0,0.2-0.1,0.3-0.1,0.5
				c-0.1,0.3-0.3,0.6-0.5,0.8c-0.1,0.1-0.2,0.2-0.3,0.3c-0.1,0.1-0.2,0.2-0.4,0.3c-0.3,0.2-0.5,0.4-0.8,0.6
				c-0.3,0.2-0.6,0.4-0.9,0.5c-0.2,0.1-0.3,0.2-0.5,0.2s-0.3,0.1-0.5,0.2c-0.3,0.1-0.6,0.2-0.9,0.3c-0.3,0.1-0.6,0.2-0.9,0.2
				c-0.6,0.1-1.1,0.2-1.5,0.2h-0.1h-0.1h-0.2l-0.1,0h-0.1v-0.1v-0.1l0-0.2v-0.1v-0.1c0-0.4,0.1-0.9,0.2-1.5c0.1-0.3,0.1-0.6,0.2-0.9
				c0.1-0.3,0.2-0.6,0.3-0.9c0.1-0.2,0.1-0.3,0.2-0.5c0.1-0.2,0.2-0.3,0.2-0.5c0.2-0.3,0.3-0.6,0.5-0.9c0.2-0.3,0.4-0.5,0.6-0.8
				c0.1-0.1,0.2-0.2,0.3-0.4c0.1-0.1,0.2-0.2,0.3-0.3c0.2-0.2,0.5-0.4,0.8-0.5c0.2-0.1,0.3-0.1,0.5-0.1c0.2,0,0.3-0.1,0.5-0.1
				c0.2,0,0.3,0,0.5,0c0.2,0,0.3,0,0.5,0c0.3,0,0.6,0.1,0.9,0.2c0.1,0,0.1,0,0.2,0.1l0.2,0.1c0.1,0,0.1,0,0.2,0.1c0.1,0,0.1,0,0.1,0
				l0.1,0C32,14.1,32,14.1,32.1,14.1C32.1,14.1,32.1,14.1,32.1,14.1L32.1,14.1z"/>
			<path class="st1" d="M27,9l-2.9,2.9c-0.2,0.2-0.1,0.5,0.2,0.5h2.4c0.1,0,0.2,0,0.2,0.1l1.6,1.6L31.2,9h-3.9C27.2,9,27.1,9,27,9
				L27,9L27,9z"/>
			<path class="st1" d="M32.6,17.4l1.6,1.6c0.1,0.1,0.1,0.1,0.1,0.2v2.4c0,0.3,0.3,0.4,0.5,0.2l2.9-2.9c0.1-0.1,0.1-0.1,0.1-0.2
				v-3.9L32.6,17.4L32.6,17.4L32.6,17.4z"/>
			<path class="st2" d="M44.1,2.5L44.1,2.5c0,0,0,0.1,0,0.1c0,0.1,0,0.2,0,0.3c0,0.2,0,0.6,0,1c0,0.4,0,0.9-0.1,1.4
				c0,0.1,0,0.3-0.1,0.4c0,0.1,0,0.3-0.1,0.4c-0.1,0.3-0.1,0.6-0.2,0.9c-0.1,0.6-0.3,1.2-0.6,1.8c-0.2,0.6-0.5,1.2-0.8,1.8
				c-0.3,0.6-0.7,1.1-1.1,1.7c-0.4,0.5-0.9,1-1.3,1.5c-0.5,0.5-1,0.9-1.5,1.3c-0.1,0.1-0.3,0.2-0.4,0.3c-0.1,0.1-0.3,0.2-0.4,0.3
				c-0.3,0.2-0.6,0.4-0.9,0.5c-0.6,0.3-1.2,0.6-1.8,0.8c-0.6,0.2-1.2,0.4-1.8,0.6c-0.3,0.1-0.6,0.1-0.9,0.2l-0.2,0
				c-0.1,0-0.1,0-0.2,0l-0.2,0l-0.2,0c-0.5,0.1-1,0.1-1.4,0.1s-0.8,0-1,0c-0.1,0-0.2,0-0.3,0c0,0-0.1,0-0.1,0h0
				c-0.2,0-0.3-0.2-0.4-0.4v0c0,0,0,0,0-0.1c0-0.1,0-0.2,0-0.3c0-0.2,0-0.6,0-1c0-0.4,0-0.9,0.1-1.4l0-0.2l0-0.2c0-0.1,0-0.1,0-0.2
				l0-0.2c0.1-0.3,0.1-0.6,0.2-0.9c0.2-0.6,0.3-1.2,0.6-1.8c0.2-0.6,0.5-1.2,0.8-1.8c0.2-0.3,0.3-0.6,0.5-0.9
				c0.1-0.1,0.2-0.3,0.3-0.4C31,8.2,31.1,8,31.2,7.9c0.4-0.5,0.9-1.1,1.3-1.5C33,5.9,33.5,5.4,34,5c0.5-0.4,1.1-0.8,1.7-1.1
				c0.6-0.3,1.2-0.6,1.8-0.8c0.6-0.2,1.2-0.4,1.8-0.6c0.3-0.1,0.6-0.1,0.9-0.2c0.1,0,0.3-0.1,0.4-0.1c0.1,0,0.3,0,0.4-0.1
				c0.5-0.1,1-0.1,1.4-0.1c0.4,0,0.8,0,1,0c0.1,0,0.2,0,0.3,0c0,0,0.1,0,0.1,0h0C43.9,2.2,44.1,2.4,44.1,2.5
				C44.1,2.5,44.1,2.5,44.1,2.5z"/>
			<path class="st1" d="M33.7,12.6L33.7,12.6c0,0.1,0.1,0.2,0.1,0.2c0,0.1,0,0.3,0,0.4c0,0.1-0.1,0.1-0.1,0.2l-0.2,0.2l-0.4,0.5
				c-0.1,0.2-0.3,0.4-0.4,0.6c-0.2,0.2-0.3,0.5-0.5,0.7l-0.3,0.4l-0.3,0.4c-0.2,0.2-0.4,0.5-0.6,0.7c-0.2,0.2-0.4,0.5-0.6,0.7
				c-0.2,0.2-0.4,0.5-0.6,0.7l-0.3,0.3c-0.1,0.1-0.2,0.2-0.3,0.3c-0.1,0.1-0.2,0.2-0.3,0.2c-0.1,0.1-0.3,0.1-0.4,0.1
				c-0.2,0.1-0.5,0.1-0.7,0.1c-0.1,0-0.2,0-0.3,0c-0.1,0-0.2,0-0.3,0c-0.1,0-0.2,0-0.2,0c-0.1,0-0.1,0-0.2,0c-0.1,0-0.1,0-0.1,0h0
				v-0.1c0,0,0-0.1,0-0.1c0-0.1,0-0.1,0-0.2c0-0.1,0-0.2,0-0.2c0-0.1,0-0.2,0-0.3c0-0.1,0-0.2,0-0.3c0-0.3,0.1-0.5,0.1-0.7
				c0-0.1,0.1-0.3,0.1-0.4c0.1-0.1,0.1-0.2,0.2-0.3c0.1-0.1,0.2-0.2,0.3-0.3l0.3-0.3c0.2-0.2,0.5-0.4,0.7-0.6
				c0.2-0.2,0.5-0.4,0.7-0.6c0.2-0.2,0.5-0.4,0.7-0.6l0.4-0.3l0.4-0.3c0.2-0.2,0.5-0.3,0.7-0.5c0.2-0.2,0.4-0.3,0.6-0.4l0.5-0.4
				l0.2-0.2c0.1,0,0.1-0.1,0.2-0.1c0.1-0.1,0.3,0,0.4,0C33.5,12.5,33.5,12.5,33.7,12.6L33.7,12.6L33.7,12.6L33.7,12.6z"/>
			<path class="st3" d="M38.4,10c0,1.2-1,2.1-2.1,2.1s-2.1-1-2.1-2.1s1-2.1,2.1-2.1S38.4,8.8,38.4,10L38.4,10z M39.5,5.4
				c-0.8,0-1.4,0.6-1.4,1.4s0.6,1.4,1.4,1.4c0.8,0,1.4-0.6,1.4-1.4S40.2,5.4,39.5,5.4z"/>
		</g>
		<g>
			<path class="st4" d="M49.1,4v17.1c0,1.1,0.9,2,2,2h14c1.1,0,2-0.9,2-2V4c0,1.1-0.9,2-2,2h-14C50,6,49.1,5.1,49.1,4z"/>
			<path class="st5" d="M49.1,5v4.7c0.3,0.2,0.6,0.3,1,0.3h16.1c0.4,0,0.7-0.1,1-0.3V5c0,1.1-0.9,2-2,2h-14C50,7,49.1,6.1,49.1,5z"
				/>
			<path class="st6" d="M58.1,9H57L55,12.3l1.8,1l1.3-2.3l1,1.7l-0.9,0.5L61,14l0.7-2.8l-0.9,0.5L59.3,9H58.1L58.1,9z M55.6,14
				l-2.8,0.8l0.9,0.5l-1.6,2.7l1.2,2h3.9v-2h-2.7l1-1.7l0.9,0.5L55.6,14L55.6,14L55.6,14z M62.5,14.6l-1.7,1l1.3,2.4h-2v-1l-2,2l2,2
				v-1h3.2l1.1-2L62.5,14.6L62.5,14.6L62.5,14.6z"/>
			<path class="st5" d="M49.1,21.1v1c0,1.1,0.9,2,2,2h14c1.1,0,2-0.9,2-2v-1c0,1.1-0.9,2-2,2h-14C50,23.1,49.1,22.2,49.1,21.1z"/>
			<path class="st4" d="M50.1,1c-1.1,0-2,0.9-2,2v4c0,1.1,0.9,2,2,2h16.1c1.1,0,2-0.9,2-2V3c0-1.1-0.9-2-2-2C66.2,1,50.1,1,50.1,1z"
				/>
			<path class="st7" d="M51.1,2c-0.6,0-1,0.4-1,1v3c0,0.5,0.5,1,1,1h14c0.6,0,1-0.5,1-1V3c0-0.6-0.5-1-1-1C65.2,2,51.1,2,51.1,2z"/>
			<path class="st7" d="M58.1,9H57l-0.6,1h3.5l-0.6-1C59.3,9,58.1,9,58.1,9z"/>
			<path class="st8" d="M56.6,1.4L55.8,2l-0.4,0.3L55.1,2l-1,1h-1l-1-1l-2,2v2c0,0.6,0.5,1,1,1h14c0.6,0,1-0.5,1-1l-1-1V4h-1l-1-1
				h-2V2.5h-1L59.8,2l-0.3-0.4L59.1,2l-1,1l-1-1L56.6,1.4L56.6,1.4L56.6,1.4z"/>
		</g>
		<g>
			<g id="Circle_backround">
				<circle id="Bg" class="st9" cx="10" cy="12" r="10"/>
				<g id="Inner_Shadow" class="st10">
					<path d="M10,2C6,2,2.6,4.3,1,7.7c1.5-3.1,4.7-5.2,8.4-5.2c5.2,0,9.4,4.2,9.4,9.4s-4.2,9.4-9.4,9.4S0,17.1,0,12V12
						c0,5.5,4.5,10,10,10s10-4.5,10-10S15.6,2,10,2z"/>
				</g>
				<path id="inner_glow" class="st11" d="M3.3,6.2C4,5,5.5,4.1,7,3.8c0.4-0.1,0.8-0.1,1.1,0C8.4,4,8.6,4.2,8.5,4.5
					C8.4,4.7,8.1,4.8,7.8,4.9C6.4,5.3,5,5.9,4.2,7.1C3.9,7.6,3.4,9.4,2.8,9C2.2,8.7,2.4,7.6,3.3,6.2L3.3,6.2L3.3,6.2z"/>
			</g>
			<g id="Add">
				<path id="Add_Shadow" class="st12" d="M16.6,12.5c0,0.6-0.5,1.1-1.1,1.1h-4.4v4.4c0,0.6-0.5,1.1-1.1,1c-0.6,0-1-0.5-1-1v-4.4
					H4.6c-0.6,0-1.1-0.5-1.1-1.1c0-0.6,0.5-1.1,1.1-1.1h4.5V7c0-0.6,0.5-1.1,1.1-1c0.6,0,1,0.5,1,1v4.4h4.4
					C16.1,11.4,16.6,11.8,16.6,12.5L16.6,12.5L16.6,12.5z"/>
				<path id="Add-2" class="st13" d="M16.6,11.7c0,0.6-0.5,1.1-1.1,1.1h-4.4v4.4c0,0.6-0.5,1.1-1.1,1c-0.6,0-1-0.5-1-1v-4.4H4.6
					c-0.6,0-1.1-0.5-1.1-1.1c0-0.6,0.5-1.1,1.1-1.1h4.5V6.2c0-0.6,0.5-1.1,1.1-1c0.6,0,1,0.5,1,1v4.4h4.4
					C16.1,10.6,16.6,11.1,16.6,11.7L16.6,11.7L16.6,11.7z"/>
			</g>
		</g>
		<g>
			<g id="Rounded_bg">
				<path id="Bg-2" class="st9" d="M92.3,19.8c0,1.2-1,2.2-2.2,2.2H74.5c-1.2,0-2.2-1-2.2-2.2V4.2c0-1.2,1-2.2,2.2-2.2h15.6
					c1.2,0,2.2,1,2.2,2.2V19.8L92.3,19.8z"/>
				<g id="Inner_Shadow-2">
					<g>
						<defs>
							<path id="SVGID_1_" d="M92.3,19.8c0,1.2-1,2.2-2.2,2.2H74.5c-1.2,0-2.2-1-2.2-2.2V4.2c0-1.2,1-2.2,2.2-2.2h15.6
								c1.2,0,2.2,1,2.2,2.2V19.8L92.3,19.8z"/>
						</defs>
						<clipPath id="SVGID_00000072244333001716849300000003562134670717884339_">
							<use xlink:href="#SVGID_1_"  style="overflow:visible;"/>
						</clipPath>
						<g style="clip-path:url(#SVGID_00000072244333001716849300000003562134670717884339_);">
							<path class="st15" d="M91,2h-1c0.7,0,1.2,0.6,1.2,1.3v16.4c0,0.7-0.6,1.3-1.3,1.3H73.5c-0.7,0-1.3-0.6-1.3-1.3v1.1
								c0,0.7,0.6,1.3,1.3,1.3h17.4c0.7,0,1.3-0.6,1.3-1.3V3.3C92.3,2.6,91.7,2,91,2L91,2L91,2z"/>
						</g>
					</g>
				</g>
				<path class="st11" d="M78.2,3.8c0-0.4-0.3-0.5-1.7-0.4c-1.2,0.1-1.8,0.2-2.2,0.6s-0.5,1.3-0.5,2.4c0,0.8,0,1.5,0.4,1.5
					c0.5,0,0.5-1.2,1-1.9C76.1,4.5,78.2,4.3,78.2,3.8L78.2,3.8L78.2,3.8z"/>
			</g>
			<g id="Play">
				<path class="st16" d="M87.5,11.1c1.3,0.7,1.3,2.6,0,3.3l-8,4.4c-1.3,0.7-2.9-0.2-2.9-1.7V8.4c0-1.4,1.6-2.4,2.9-1.7L87.5,11.1z"
					/>
				<path class="st13" d="M87.5,10.4c1.3,0.7,1.3,2.6,0,3.3l-8,4.4c-1.3,0.7-2.9-0.2-2.9-1.7V7.7c0-1.4,1.6-2.4,2.9-1.7L87.5,10.4z"
					/>
			</g>
		</g>
		<g>
			<path class="st5" d="M204.4,15.9l2.7-2.7l6.6,6.6l-2.7,2.7C211.1,22.6,204.4,15.9,204.4,15.9z"/>
			<path class="st7" d="M204.4,15.9l2.7-2.7l2,2l-2.7,2.7C206.4,17.9,204.4,15.9,204.4,15.9z"/>
			<path class="st4" d="M195.1,4c-3.3,3.3-3.3,8.6,0,11.9s8.7,3.3,12,0c3.3-3.3,3.3-8.6,0-11.9C203.8,0.7,198.4,0.7,195.1,4z
				 M197.1,5.9c2.2-2.2,5.8-2.2,8,0c2.2,2.3,2.2,5.8,0,8c-2.2,2.2-5.8,2.2-8,0C194.9,11.8,194.9,8.2,197.1,5.9L197.1,5.9z"/>
			<path class="st8" d="M207.1,10.1c0,3.4-2.7,6.1-6.1,6.1c-3.4,0-6.1-2.7-6.1-6.1S197.6,4,201,4C204.4,4,207.1,6.7,207.1,10.1z"/>
		</g>
		<g>
			<path class="st8" d="M299,1c-6.1,0-11,4.9-11,11s4.9,11,11,11c6.1,0,11-4.9,11-11S305.1,1,299,1z M299,7.4c2.5,0,4.6,2.1,4.6,4.6
				s-2.1,4.6-4.6,4.6c-2.5,0-4.6-2.1-4.6-4.6S296.4,7.4,299,7.4z"/>
			<path class="st4" d="M288,10.7c-0.1,0.5-0.1,0.9-0.1,1.4c0,6.1,4.9,11,11,11c6.1,0,11-5,11-11c0-0.5,0-0.9-0.1-1.4
				c-0.7,5.4-5.3,9.7-10.9,9.7C293.3,20.3,288.7,16.1,288,10.7L288,10.7z"/>
			<path class="st4" d="M299,4.7c-2.5,0-4.6,2.1-4.6,4.6c0,0.5,0.1,0.9,0.2,1.4c0.6-1.9,2.3-3.2,4.4-3.2c2,0,3.8,1.4,4.4,3.2
				c0.1-0.4,0.2-0.9,0.2-1.4C303.6,6.7,301.5,4.7,299,4.7L299,4.7L299,4.7z"/>
			<path class="st17" d="M306.8,4.2c-1.1-1.1-2.3-1.9-3.6-2.4l-2.4,6c0.6,0.2,1.1,0.5,1.5,0.9c0.5,0.5,0.8,1,1,1.6l6-2.5
				C308.6,6.5,307.8,5.3,306.8,4.2L306.8,4.2L306.8,4.2z M294.8,1.8c-1.3,0.5-2.6,1.3-3.6,2.4c-1.1,1.1-1.9,2.3-2.4,3.6l6,2.5
				c0.2-0.6,0.6-1.1,1-1.6c0.5-0.5,1-0.7,1.5-0.9L294.8,1.8L294.8,1.8L294.8,1.8z M309.2,16.2l-6-2.5c-0.2,0.6-0.5,1.1-1,1.6
				c-0.5,0.5-1,0.7-1.5,1l2.4,6c1.3-0.6,2.6-1.4,3.6-2.4C307.8,18.8,308.6,17.5,309.2,16.2L309.2,16.2L309.2,16.2z M294.7,13.7
				l-6,2.5c0.5,1.3,1.3,2.6,2.4,3.7c1.1,1,2.3,1.8,3.6,2.4l2.4-6c-0.6-0.3-1.1-0.6-1.5-1C295.3,14.8,294.9,14.2,294.7,13.7
				L294.7,13.7L294.7,13.7z"/>
			<path class="st18" d="M290,15.6l-1.3,0.6c0.5,1.3,1.3,2.6,2.4,3.7c1.1,1,2.3,1.8,3.7,2.4l1-2.4C293.4,19.1,291.4,17.7,290,15.6
				L290,15.6z M307.9,15.6c-1.4,2-3.4,3.5-5.8,4.2l1,2.4c1.3-0.6,2.5-1.4,3.6-2.4c1.1-1.1,1.9-2.4,2.4-3.7L307.9,15.6L307.9,15.6
				L307.9,15.6z"/>
			<path class="st18" d="M296.3,5.5c-1.2,0.8-2,2.2-2,3.8c0,0.3,0,0.6,0.1,0.9l0.3,0.1c0.2-0.6,0.6-1.1,1-1.6c0.5-0.5,1-0.7,1.5-1
				L296.3,5.5L296.3,5.5L296.3,5.5z M301.6,5.5l-0.9,2.2c0.6,0.3,1.1,0.6,1.5,1c0.5,0.5,0.8,1,1,1.6l0.3-0.1
				c0.1-0.4,0.1-0.6,0.1-0.9C303.6,7.7,302.8,6.3,301.6,5.5L301.6,5.5L301.6,5.5z"/>
		</g>
		<g>
			<g id="Rounded_bg-2">
				<path id="Bg-3" class="st19" d="M260.9,19.8c0,1.2-1,2.2-2.2,2.2H243c-1.2,0-2.2-1-2.2-2.2V4.2c0-1.2,1-2.2,2.2-2.2h15.6
					c1.2,0,2.2,1,2.2,2.2V19.8L260.9,19.8z"/>
				<g>
					<defs>
						<path id="SVGID_00000089564466159340219960000007577096089613670299_" d="M260.9,19.8c0,1.2-1,2.2-2.2,2.2H243
							c-1.2,0-2.2-1-2.2-2.2V4.2c0-1.2,1-2.2,2.2-2.2h15.6c1.2,0,2.2,1,2.2,2.2V19.8L260.9,19.8z"/>
					</defs>
					<clipPath id="SVGID_00000178896316626873264250000008794772626342719655_">
						<use xlink:href="#SVGID_00000089564466159340219960000007577096089613670299_"  style="overflow:visible;"/>
					</clipPath>
					<g style="clip-path:url(#SVGID_00000178896316626873264250000008794772626342719655_);">
						<g id="Inner_Shadow-3">
							<path class="st15" d="M259.5,2h-1c0.7,0,1.2,0.6,1.2,1.3v16.4c0,0.7-0.6,1.3-1.3,1.3H242c-0.7,0-1.3-0.6-1.3-1.3v1.1
								c0,0.7,0.6,1.3,1.3,1.3h17.4c0.7,0,1.3-0.6,1.3-1.3V3.3C260.8,2.6,260.2,2,259.5,2L259.5,2z"/>
						</g>
					</g>
				</g>
				<path class="st11" d="M246.8,3.8c0-0.4-0.3-0.5-1.7-0.4c-1.2,0.1-1.8,0.2-2.2,0.6c-0.4,0.4-0.5,1.3-0.5,2.4c0,0.8,0,1.5,0.4,1.5
					c0.5,0,0.5-1.2,1-1.9C244.6,4.5,246.7,4.2,246.8,3.8L246.8,3.8L246.8,3.8z"/>
			</g>
			<g id="RSS">
				<g class="st21">
					<path d="M246.7,14.9c-1.2,0-2.2,1-2.2,2.2c0,1.2,1,2.2,2.2,2.2c1.2,0,2.2-1,2.2-2.2S248,14.9,246.7,14.9z M246.7,6.3
						c-0.5,0-1.1,0-1.7,0.1c-0.2,0-0.4,0.2-0.4,0.4V9c0,0.1,0,0.3,0.2,0.4c0.1,0.1,0.2,0.1,0.4,0.1c0.5-0.1,1-0.2,1.6-0.2
						c4.3,0,7.9,3.5,7.9,7.9c0,0.5,0,1-0.2,1.6c0,0.1,0,0.3,0.1,0.4s0.2,0.2,0.4,0.2h2.2c0.2,0,0.4-0.2,0.4-0.4
						c0.1-0.6,0.1-1.2,0.1-1.7C257.6,11.2,252.7,6.3,246.7,6.3L246.7,6.3L246.7,6.3z"/>
					<path d="M246.7,10.6c-0.6,0-1.2,0.1-1.8,0.3c-0.2,0-0.3,0.2-0.3,0.4v2.3c0,0.1,0.1,0.3,0.2,0.4c0.1,0.1,0.3,0.1,0.4,0
						c0.5-0.2,1-0.4,1.5-0.4c1.9,0,3.5,1.6,3.5,3.5c0,0.5-0.1,1-0.4,1.5c0,0.1,0,0.3,0,0.4s0.2,0.2,0.4,0.2h2.4
						c0.2,0,0.4-0.1,0.4-0.3c0.2-0.6,0.3-1.2,0.3-1.8C253.2,13.6,250.3,10.6,246.7,10.6L246.7,10.6L246.7,10.6z"/>
				</g>
				<path class="st13" d="M246.7,14.2c-1.2,0-2.2,1-2.2,2.2s1,2.2,2.2,2.2c1.2,0,2.2-1,2.2-2.2S248,14.2,246.7,14.2z M246.7,5.5
					c-0.5,0-1.1,0-1.7,0.1c-0.2,0-0.4,0.2-0.4,0.4v2.2c0,0.1,0,0.3,0.2,0.4c0.1,0.1,0.2,0.1,0.4,0.1c0.5-0.1,1-0.2,1.6-0.2
					c4.3,0,7.9,3.5,7.9,7.9c0,0.5,0,1-0.2,1.6c0,0.1,0,0.3,0.1,0.4c0.1,0.1,0.2,0.2,0.4,0.2h2.2c0.2,0,0.4-0.2,0.4-0.4
					c0.1-0.6,0.1-1.2,0.1-1.7C257.6,10.4,252.7,5.5,246.7,5.5L246.7,5.5L246.7,5.5z"/>
				<path class="st13" d="M246.7,9.8c-0.6,0-1.2,0.1-1.8,0.3c-0.2,0-0.3,0.2-0.3,0.4v2.3c0,0.1,0.1,0.3,0.2,0.4
					c0.1,0.1,0.3,0.1,0.4,0c0.5-0.2,1-0.4,1.5-0.4c1.9,0,3.5,1.6,3.5,3.5c0,0.5-0.1,1-0.4,1.5c0,0.1,0,0.3,0,0.4
					c0.1,0.1,0.2,0.2,0.4,0.2h2.4c0.2,0,0.4-0.1,0.4-0.3c0.2-0.6,0.3-1.2,0.3-1.8C253.2,12.8,250.3,9.8,246.7,9.8L246.7,9.8
					L246.7,9.8z"/>
			</g>
		</g>
		<g>
			<g id="Rounded_bg-3">
				<path id="Bg-4" class="st22" d="M236.8,19.8c0,1.2-1,2.2-2.2,2.2h-15.6c-1.2,0-2.2-1-2.2-2.2V4.2c0-1.2,1-2.2,2.2-2.2h15.6
					c1.2,0,2.2,1,2.2,2.2V19.8L236.8,19.8z"/>
				<g>
					<defs>
						<path id="SVGID_00000080893740395659904940000017844632360623779504_" d="M236.8,19.8c0,1.2-1,2.2-2.2,2.2h-15.6
							c-1.2,0-2.2-1-2.2-2.2V4.2c0-1.2,1-2.2,2.2-2.2h15.6c1.2,0,2.2,1,2.2,2.2V19.8L236.8,19.8z"/>
					</defs>
					<clipPath id="SVGID_00000149382447638412588890000003553761033409907612_">
						<use xlink:href="#SVGID_00000080893740395659904940000017844632360623779504_"  style="overflow:visible;"/>
					</clipPath>
					<g style="clip-path:url(#SVGID_00000149382447638412588890000003553761033409907612_);">
						<g id="Inner_Shadow-4">
							<path class="st15" d="M235.4,2h-1c0.7,0,1.2,0.6,1.2,1.3v16.4c0,0.7-0.6,1.3-1.3,1.3H218c-0.7,0-1.3-0.6-1.3-1.3v1.1
								c0,0.7,0.6,1.3,1.3,1.3h17.4c0.7,0,1.3-0.6,1.3-1.3V3.3C236.8,2.6,236.2,2,235.4,2L235.4,2z"/>
						</g>
					</g>
				</g>
				<path class="st11" d="M222.7,3.8c0-0.4-0.3-0.5-1.7-0.4c-1.2,0.1-1.8,0.2-2.2,0.6s-0.5,1.3-0.5,2.4c0,0.8,0,1.5,0.4,1.5
					c0.5,0,0.5-1.2,1-1.9C220.6,4.5,222.7,4.2,222.7,3.8L222.7,3.8L222.7,3.8z"/>
			</g>
			<g id="RSS-2">
				<g class="st21">
					<path d="M222.7,14.9c-1.2,0-2.2,1-2.2,2.2c0,1.2,1,2.2,2.2,2.2c1.2,0,2.2-1,2.2-2.2S223.9,14.9,222.7,14.9z M222.6,6.3
						c-0.5,0-1.1,0-1.7,0.1c-0.2,0-0.4,0.2-0.4,0.4V9c0,0.1,0,0.3,0.2,0.4c0.1,0.1,0.2,0.1,0.4,0.1c0.5-0.1,1-0.2,1.6-0.2
						c4.3,0,7.9,3.5,7.9,7.9c0,0.5,0,1-0.2,1.6c0,0.1,0,0.3,0.1,0.4s0.2,0.2,0.4,0.2h2.2c0.2,0,0.4-0.2,0.4-0.4
						c0.1-0.6,0.1-1.2,0.1-1.7C233.5,11.2,228.6,6.3,222.6,6.3L222.6,6.3L222.6,6.3z"/>
					<path d="M222.6,10.6c-0.6,0-1.2,0.1-1.8,0.3c-0.2,0-0.3,0.2-0.3,0.4v2.3c0,0.1,0.1,0.3,0.2,0.4c0.1,0.1,0.3,0.1,0.4,0
						c0.5-0.2,1-0.4,1.5-0.4c1.9,0,3.5,1.6,3.5,3.5c0,0.5-0.1,1-0.4,1.5c0,0.1,0,0.3,0,0.4c0.1,0.1,0.2,0.2,0.4,0.2h2.4
						c0.2,0,0.4-0.1,0.4-0.3c0.2-0.6,0.3-1.2,0.3-1.8C229.2,13.6,226.2,10.6,222.6,10.6L222.6,10.6L222.6,10.6z"/>
				</g>
				<path class="st13" d="M222.7,14.2c-1.2,0-2.2,1-2.2,2.2s1,2.2,2.2,2.2c1.2,0,2.2-1,2.2-2.2S223.9,14.2,222.7,14.2z M222.6,5.5
					c-0.5,0-1.1,0-1.7,0.1c-0.2,0-0.4,0.2-0.4,0.4v2.2c0,0.1,0,0.3,0.2,0.4c0.1,0.1,0.2,0.1,0.4,0.1c0.5-0.1,1-0.2,1.6-0.2
					c4.3,0,7.9,3.5,7.9,7.9c0,0.5,0,1-0.2,1.6c0,0.1,0,0.3,0.1,0.4c0.1,0.1,0.2,0.2,0.4,0.2h2.2c0.2,0,0.4-0.2,0.4-0.4
					c0.1-0.6,0.1-1.2,0.1-1.7C233.5,10.4,228.6,5.5,222.6,5.5L222.6,5.5L222.6,5.5z"/>
				<path class="st13" d="M222.6,9.8c-0.6,0-1.2,0.1-1.8,0.3c-0.2,0-0.3,0.2-0.3,0.4v2.3c0,0.1,0.1,0.3,0.2,0.4
					c0.1,0.1,0.3,0.1,0.4,0c0.5-0.2,1-0.4,1.5-0.4c1.9,0,3.5,1.6,3.5,3.5c0,0.5-0.1,1-0.4,1.5c0,0.1,0,0.3,0,0.4
					c0.1,0.1,0.2,0.2,0.4,0.2h2.4c0.2,0,0.4-0.1,0.4-0.3c0.2-0.6,0.3-1.2,0.3-1.8C229.2,12.8,226.2,9.8,222.6,9.8L222.6,9.8
					L222.6,9.8z"/>
			</g>
		</g>
		<g>
			<g id="Rounded_bg-4">
				<path id="Bg-5" class="st17" d="M140.5,19.8c0,1.2-1,2.2-2.2,2.2h-15.6c-1.2,0-2.2-1-2.2-2.2V4.2c0-1.2,1-2.2,2.2-2.2h15.6
					c1.2,0,2.2,1,2.2,2.2L140.5,19.8L140.5,19.8L140.5,19.8z"/>
				<g id="Inner_Shadow-5">
					<g>
						<defs>
							<path id="SVGID_00000063633404200678340480000006101086082146287262_" d="M140.5,19.8c0,1.2-1,2.2-2.2,2.2h-15.6
								c-1.2,0-2.2-1-2.2-2.2V4.2c0-1.2,1-2.2,2.2-2.2h15.6c1.2,0,2.2,1,2.2,2.2L140.5,19.8L140.5,19.8L140.5,19.8z"/>
						</defs>
						<clipPath id="SVGID_00000135674923097644025540000016033636902105374854_">
							<use xlink:href="#SVGID_00000063633404200678340480000006101086082146287262_"  style="overflow:visible;"/>
						</clipPath>
						<g style="clip-path:url(#SVGID_00000135674923097644025540000016033636902105374854_);">
							<path class="st15" d="M139.1,2h-1c0.7,0,1.2,0.6,1.2,1.3v16.4c0,0.7-0.6,1.3-1.3,1.3h-16.4c-0.7,0-1.3-0.6-1.3-1.3v1.1
								c0,0.7,0.6,1.3,1.3,1.3h17.4c0.7,0,1.3-0.6,1.3-1.3V3.3C140.4,2.6,139.8,2,139.1,2L139.1,2z"/>
						</g>
					</g>
				</g>
				<path class="st11" d="M126.4,3.8c0-0.4-0.3-0.5-1.7-0.4c-1.2,0.1-1.8,0.2-2.2,0.6c-0.4,0.4-0.5,1.3-0.5,2.4c0,0.8,0,1.5,0.4,1.5
					c0.5,0,0.5-1.2,1-1.9C124.2,4.5,126.3,4.2,126.4,3.8L126.4,3.8L126.4,3.8z"/>
			</g>
			<g id="Stop">
				<path class="st12" d="M134.2,18.4h-7.5c-1,0-1.9-0.8-1.9-1.9V9.1c0-1,0.8-1.9,1.9-1.9h7.5c1,0,1.9,0.8,1.9,1.9v7.5
					C136,17.6,135.2,18.4,134.2,18.4z"/>
				<path class="st13" d="M134.2,17.6h-7.5c-1,0-1.9-0.8-1.9-1.9V8.3c0-1,0.8-1.9,1.9-1.9h7.5c1,0,1.9,0.8,1.9,1.9v7.5
					C136,16.8,135.2,17.6,134.2,17.6z"/>
			</g>
		</g>
		<g>
			<g id="Rounded_bg-5">
				<path id="Bg-6" class="st25" d="M116.4,19.8c0,1.2-1,2.2-2.2,2.2H98.5c-1.2,0-2.2-1-2.2-2.2V4.2c0-1.2,1-2.2,2.2-2.2h15.6
					c1.2,0,2.2,1,2.2,2.2V19.8L116.4,19.8z"/>
				<g id="Inner_Shadow-6">
					<g>
						<defs>
							<path id="SVGID_00000019675039638957060640000011884883157870089406_" d="M116.4,19.8c0,1.2-1,2.2-2.2,2.2H98.5
								c-1.2,0-2.2-1-2.2-2.2V4.2c0-1.2,1-2.2,2.2-2.2h15.6c1.2,0,2.2,1,2.2,2.2V19.8L116.4,19.8z"/>
						</defs>
						<clipPath id="SVGID_00000083089176226005215020000013909796510833698700_">
							<use xlink:href="#SVGID_00000019675039638957060640000011884883157870089406_"  style="overflow:visible;"/>
						</clipPath>
						<g style="clip-path:url(#SVGID_00000083089176226005215020000013909796510833698700_);">
							<path class="st15" d="M115,2h-1c0.7,0,1.2,0.6,1.2,1.3v16.4c0,0.7-0.6,1.3-1.3,1.3H97.6c-0.7,0-1.3-0.6-1.3-1.3v1.1
								c0,0.7,0.6,1.3,1.3,1.3H115c0.7,0,1.3-0.6,1.3-1.3V3.3C116.4,2.6,115.8,2,115,2L115,2L115,2z"/>
						</g>
					</g>
				</g>
				<path class="st11" d="M102.3,3.8c0-0.4-0.3-0.5-1.7-0.4c-1.2,0.1-1.8,0.2-2.2,0.6S98,5.3,97.9,6.4c0,0.8,0,1.5,0.4,1.5
					c0.5,0,0.5-1.2,1-1.9C100.2,4.5,102.3,4.2,102.3,3.8L102.3,3.8L102.3,3.8z"/>
			</g>
			<path id="Pause" class="st27" d="M109.2,6.6c0.8,0,1.4,0.6,1.4,1.4v8.6c0,0.8-0.6,1.4-1.4,1.4s-1.4-0.6-1.4-1.4V8.1
				C107.8,7.3,108.4,6.6,109.2,6.6z M103.4,6.6c0.8,0,1.4,0.6,1.4,1.4v8.6c0,0.8-0.6,1.4-1.4,1.4s-1.4-0.6-1.4-1.4V8.1
				C102,7.3,102.7,6.6,103.4,6.6z"/>
			<path id="Pause-2" class="st28" d="M109.2,5.9c0.8,0,1.4,0.6,1.4,1.4V16c0,0.8-0.6,1.4-1.4,1.4s-1.4-0.6-1.4-1.4V7.3
				C107.8,6.5,108.4,5.9,109.2,5.9z M103.4,5.9c0.8,0,1.4,0.6,1.4,1.4V16c0,0.8-0.6,1.4-1.4,1.4S102,16.8,102,16V7.3
				C102,6.5,102.7,5.9,103.4,5.9z"/>
		</g>
		<g>
			<path class="st29" d="M162.4,22.1h-15.7c-1.2,0-2.2-1-2.2-2.2V4.2c0-1.2,1-2.2,2.2-2.2h15.7c1.2,0,2.2,1,2.2,2.2v15.7
				C164.5,21.1,163.5,22.1,162.4,22.1L162.4,22.1z"/>
			<path class="st30" d="M162.4,2h-7.9v20.1h7.9c1.2,0,2.2-1,2.2-2.2V4.2C164.5,3,163.5,2,162.4,2z"/>
			<g id="Upp">
				<path id="Up" class="st16" d="M156.9,12.6v4.9c0,0.7-0.6,1.2-1.2,1.2h-2.5c-0.7,0-1.2-0.6-1.2-1.2v-4.9h-1
					c-0.7,0-1.2-0.6-1.2-1.2c0-0.3,0.1-0.6,0.3-0.8l3.5-4c0.4-0.5,1.2-0.6,1.7-0.1c0.1,0,0.1,0.1,0.1,0.1l3.5,4
					c0.4,0.5,0.4,1.3-0.1,1.7c-0.2,0.2-0.5,0.3-0.8,0.3L156.9,12.6L156.9,12.6L156.9,12.6z"/>
				<path id="Up-2" class="st13" d="M156.9,11.9v4.9c0,0.7-0.6,1.2-1.2,1.2h-2.5c-0.7,0-1.2-0.6-1.2-1.2v-4.9h-1
					c-0.7,0-1.2-0.6-1.2-1.2c0-0.3,0.1-0.6,0.3-0.8l3.5-4c0.4-0.5,1.2-0.6,1.7-0.1c0.1,0,0.1,0.1,0.1,0.1l3.5,4
					c0.4,0.5,0.4,1.3-0.1,1.7c-0.2,0.2-0.5,0.3-0.8,0.3L156.9,11.9L156.9,11.9L156.9,11.9z"/>
			</g>
		</g>
		<g>
			<path class="st29" d="M186.4,22.1h-15.7c-1.2,0-2.2-1-2.2-2.2V4.2c0-1.2,1-2.2,2.2-2.2h15.7c1.2,0,2.2,1,2.2,2.2v15.7
				C188.6,21.1,187.6,22.1,186.4,22.1L186.4,22.1z"/>
			<path class="st30" d="M186.4,2h-7.9v20.1h7.9c1.2,0,2.2-1,2.2-2.2V4.2C188.6,3,187.6,2,186.4,2z"/>
			<path id="Down" class="st13" d="M182.2,11.8c0.7,0,1.3,0.6,1.3,1.3c0,0.3-0.1,0.6-0.3,0.8l-3.6,4.2c-0.5,0.5-1.3,0.6-1.8,0.1
				c-0.1,0-0.1-0.1-0.1-0.1l-3.6-4.2c-0.5-0.5-0.4-1.3,0.1-1.8c0.2-0.2,0.5-0.3,0.8-0.3h1l0,0V6.7c0-0.7,0.6-1.3,1.3-1.3h2.6
				c0.7,0,1.3,0.6,1.3,1.3v5.1"/>
			<g id="Downn">
				<path id="Down_SHadow" class="st16" d="M176,12.5V7.4c0-0.7,0.6-1.3,1.3-1.3h2.6c0.7,0,1.3,0.6,1.3,1.3v5.1h1
					c0.7,0,1.3,0.6,1.3,1.3c0,0.3-0.1,0.6-0.3,0.8l-3.6,4.2c-0.5,0.5-1.3,0.6-1.8,0.1c-0.1,0-0.1-0.1-0.1-0.1l-3.6-4.2
					c-0.5-0.5-0.4-1.3,0.1-1.8c0.2-0.2,0.5-0.3,0.8-0.3H176L176,12.5L176,12.5z"/>
				<path id="Down-2" class="st13" d="M176,11.8V6.7c0-0.7,0.6-1.3,1.3-1.3h2.6c0.7,0,1.3,0.6,1.3,1.3v5.1h1c0.7,0,1.3,0.6,1.3,1.3
					c0,0.3-0.1,0.6-0.3,0.8l-3.6,4.2c-0.5,0.5-1.3,0.6-1.8,0.1c-0.1,0-0.1-0.1-0.1-0.1l-3.6-4.2c-0.5-0.5-0.4-1.3,0.1-1.8
					c0.2-0.2,0.5-0.3,0.8-0.3H176L176,11.8L176,11.8z"/>
			</g>
		</g>
	</g>
	<g id="Layer_3">
		<g>
			<path class="st31" d="M276.7,2.2C276.3,2,275.8,2,274.9,2c-0.9,0-1.4,0-1.8,0.2c-0.5,0.2-0.9,0.6-1.1,1.1
				c-0.1,0.2-0.1,0.5-0.2,0.9c0,0.6-0.3,1.1-0.8,1.4c-0.5,0.3-1.1,0.3-1.6,0c-0.3-0.2-0.6-0.3-0.8-0.3c-0.5-0.1-1.1,0.1-1.5,0.4
				c-0.3,0.2-0.6,0.7-1,1.5c-0.5,0.8-0.7,1.2-0.8,1.6c-0.1,0.5,0.1,1.1,0.4,1.5c0.2,0.2,0.4,0.4,0.7,0.6c0.5,0.3,0.8,0.8,0.8,1.4
				s-0.3,1.1-0.8,1.4c-0.3,0.2-0.5,0.4-0.7,0.6c-0.3,0.4-0.5,1-0.4,1.5c0.1,0.4,0.3,0.8,0.8,1.6c0.5,0.8,0.7,1.2,1,1.5
				c0.4,0.3,1,0.5,1.5,0.4c0.2,0,0.5-0.1,0.8-0.3c0.5-0.3,1.1-0.3,1.6,0c0.5,0.3,0.8,0.8,0.8,1.4c0,0.4,0.1,0.6,0.2,0.9
				c0.2,0.5,0.6,0.9,1.1,1.1c0.4,0.2,0.8,0.2,1.8,0.2c0.9,0,1.4,0,1.8-0.2c0.5-0.2,0.9-0.6,1.1-1.1c0.1-0.2,0.1-0.5,0.2-0.9
				c0-0.6,0.3-1.1,0.8-1.4c0.5-0.3,1.1-0.3,1.6,0c0.3,0.2,0.6,0.3,0.8,0.3c0.5,0.1,1.1-0.1,1.5-0.4c0.3-0.2,0.6-0.7,1-1.5
				c0.5-0.8,0.7-1.2,0.8-1.6c0.1-0.5-0.1-1.1-0.4-1.5c-0.2-0.2-0.4-0.4-0.7-0.6c-0.5-0.3-0.8-0.8-0.8-1.4s0.3-1.1,0.8-1.4
				c0.3-0.2,0.5-0.4,0.7-0.6c0.3-0.4,0.5-1,0.4-1.5c-0.1-0.4-0.3-0.8-0.8-1.6s-0.7-1.2-1-1.5c-0.4-0.3-1-0.5-1.5-0.4
				c-0.2,0-0.5,0.1-0.8,0.3c-0.5,0.3-1.1,0.3-1.6,0c-0.5-0.3-0.8-0.8-0.8-1.4c0-0.4-0.1-0.6-0.2-0.9C277.6,2.8,277.2,2.4,276.7,2.2
				L276.7,2.2L276.7,2.2z M277.9,12.1c0,1.7-1.4,3-3,3c-1.7,0-3-1.3-3-3s1.4-3,3-3C276.6,9,277.9,10.4,277.9,12.1z"/>
			<path class="st12" d="M282.6,17.5c-0.4,0.3-1,0.5-1.5,0.4c-0.2,0-0.5-0.1-0.8-0.3c-0.5-0.3-1.1-0.3-1.6,0s-0.8,0.8-0.8,1.4
				c0,0.4-0.1,0.6-0.2,0.9c-0.2,0.5-0.6,0.9-1.1,1.1c-0.4,0.2-0.8,0.2-1.8,0.2c-0.9,0-1.4,0-1.8-0.2c-0.5-0.2-0.9-0.6-1.1-1.1
				c-0.1-0.2-0.1-0.5-0.2-0.9c0-0.6-0.3-1.1-0.8-1.4c-0.5-0.3-1.1-0.3-1.6,0c-0.3,0.2-0.6,0.3-0.8,0.3c-0.5,0.1-1.1-0.1-1.5-0.4
				c-0.3-0.2-0.6-0.6-1-1.5c-0.4-0.7-0.6-1.1-0.7-1.4c-0.1,0.3-0.1,0.5-0.1,0.8c0.1,0.4,0.3,0.8,0.8,1.6c0.5,0.8,0.7,1.2,1,1.5
				c0.4,0.3,1,0.5,1.5,0.4c0.2,0,0.5-0.1,0.8-0.3c0.5-0.3,1.1-0.3,1.6,0c0.5,0.3,0.8,0.8,0.8,1.4c0,0.4,0.1,0.6,0.2,0.9
				c0.2,0.5,0.6,0.9,1.1,1.1c0.4,0.2,0.8,0.2,1.8,0.2c0.9,0,1.4,0,1.8-0.2c0.5-0.2,0.9-0.6,1.1-1.1c0.1-0.2,0.1-0.5,0.2-0.9
				c0-0.6,0.3-1.1,0.8-1.4c0.5-0.3,1.1-0.3,1.6,0c0.3,0.2,0.6,0.3,0.8,0.3c0.5,0.1,1.1-0.1,1.5-0.4c0.3-0.2,0.6-0.7,1-1.5
				c0.5-0.8,0.7-1.2,0.8-1.6c0-0.3,0-0.5-0.1-0.8c-0.1,0.3-0.3,0.7-0.7,1.4C283.2,16.9,282.9,17.3,282.6,17.5L282.6,17.5z"/>
			<path class="st12" d="M274.9,9c1.5,0,2.7,1.1,3,2.5c0-0.2,0.1-0.3,0.1-0.5c0-1.7-1.4-3-3-3c-1.7,0-3,1.3-3,3c0,0.2,0,0.3,0.1,0.5
				C272.1,10.1,273.4,9,274.9,9z"/>
		</g>
	</g>
</g>
<g id="Layer_2">
	<rect class="st32" width="310" height="24"/>
</g>
</svg>
