<svg xmlns="http://www.w3.org/2000/svg" width="48" height="48"><path fill="#FFA000" d="M38 14H20l-4-4H6a4 4 0 0 0-4 4v8h40v-4a4 4 0 0 0-4-4"/><path fill="#FFCA28" d="M38 14H6a4 4 0 0 0-4 4v20a4 4 0 0 0 4 4h32a4 4 0 0 0 4-4V18a4 4 0 0 0-4-4"/><path fill="#1565C0" d="M22 46l-7-8h14z"/><path fill="#1565C0" d="M19 28h6v11.125h-6z"/><path fill="#4A148C" d="M46 7.5a1.5 1.5 0 1 1-3 0 1.5 1.5 0 0 1 3 0"/><path fill="#9C27B0" d="M45.5 16c-5.238 0-9.5-4.262-9.5-9.5V6h-3v1h.025c.259 6.493 5.483 11.716 11.975 11.975V19h1v-3h-.5z"/><path fill="#7B1FA2" d="M45.5 11A4.505 4.505 0 0 1 41 6.5V6h-3v1h.025A7.5 7.5 0 0 0 45 13.975V14h1v-3h-.5z"/><path fill="#BA68C8" d="M45.5 21C37.505 21 31 14.495 31 6.5V6h-3v1h.025c.264 9.25 7.726 16.711 16.975 16.975V24h1v-3h-.5z"/></svg>