<svg xmlns="http://www.w3.org/2000/svg" width="48" height="48"><path fill="#3F51B5" d="M38 13a1 1 0 0 1-1 1H5a1 1 0 0 1-1-1V6a1 1 0 0 1 1-1h32a1 1 0 0 1 1 1v7z"/><path fill="#BBDEFB" d="M4 10h34v29H4z"/><path fill="#E57373" d="M43.678 25.142l-2.82-2.819a1.098 1.098 0 0 0-1.555 0l-1.328 1.328 4.376 4.375 1.327-1.328a1.101 1.101 0 0 0 0-1.556"/><path fill="#FF9800" d="M23.472 38.154l12.315-12.315 4.375 4.375L27.847 42.53z"/><path fill="#B0BEC5" d="M42.352 28.027l-2.188 2.188-4.377-4.375 2.187-2.188z"/><path fill="#FFC107" d="M23.473 38.152L22 44l5.848-1.472z"/><path fill="#37474F" d="M22.744 41.044L22 44l2.956-.744z"/><g fill="#1976D2"><path d="M27.796 31H15v2h10.797zM31 27.796V27H15v2h14.796zM15 19h16v2H15zM15 15h16v2H15zM11 15h2v2h-2zM11 19h2v2h-2zM11 31h2v2h-2z"/><path d="M15 31v2h7c0-.684.071-1.351.191-2H15zM11 23h2v2h-2zM11 27h2v2h-2zM15 23h16v2H15z"/></g></svg>