<svg xmlns="http://www.w3.org/2000/svg" width="48" height="48"><circle fill="#2196F3" cx="24" cy="24" r="19"/><g fill="#E3F2FD"><path d="M23.759 31.143c-.729 0-1.331.237-1.798.712-.469.473-.702 1.075-.702 1.805 0 .72.229 1.313.688 1.781.458.468 1.062.702 1.813.702s1.354-.234 1.813-.702c.458-.469.687-1.062.687-1.781 0-.729-.234-1.332-.702-1.805-.463-.468-1.079-.712-1.799-.712zM29.182 14.587C27.97 13.529 26.266 13 24.069 13c-2.175 0-3.893.558-5.15 1.671-1.194 1.057-1.825 2.504-1.904 4.33L17 19v1h4.5l.007-.703c.02-.826.261-1.474.722-1.943.46-.471 1.074-.706 1.841-.706 1.616 0 2.424.872 2.424 2.616a3.16 3.16 0 0 1-.466 1.65c-.31.521-.935 1.196-1.872 2.027-.938.83-1.582 1.673-1.935 2.528-.353.856-.528 2.086-.528 3.53h3.978l.063-1.022c.113-1.011.564-1.893 1.353-2.646l1.259-1.191c.983-.948 1.672-1.813 2.066-2.591.394-.778.59-1.606.59-2.484-.002-1.928-.607-3.421-1.82-4.478z"/></g></svg>