<svg xmlns="http://www.w3.org/2000/svg" viewBox="0 0 48 48"><path d="M42.601 35.653a9.011 9.011 0 0 0-.001-5.312l.191-.111 1.482-1.433-1.5-2.598-1.982.567-.203.117a8.98 8.98 0 0 0-4.589-2.653V24l-.5-2h-3L32 24v.231a8.983 8.983 0 0 0-4.589 2.653l-.203-.117-1.982-.567-1.5 2.598 1.482 1.433.191.111a9.032 9.032 0 0 0 0 5.311l-.19.11-1.482 1.433 1.5 2.598 1.982-.567.199-.115a8.98 8.98 0 0 0 4.593 2.657v.224l.5 2h3l.5-2v-.224a8.98 8.98 0 0 0 4.593-2.657l.199.115 1.982.567 1.5-2.598-1.482-1.433-.192-.11zM34 38a5 5 0 1 1 .001-10.001A5 5 0 0 1 34 38z" fill="#673ab7"/><path d="M20.703 30.135A8.005 8.005 0 0 0 21 28c0-.743-.109-1.458-.298-2.141l.224-.129 1.482-1.433-1.5-2.598-1.982.567-.222.128a7.985 7.985 0 0 0-3.703-2.132V20l-.5-2h-3L11 20v.262a7.98 7.98 0 0 0-3.703 2.132l-.222-.128-1.982-.567-1.5 2.598 1.482 1.433.224.129A7.964 7.964 0 0 0 5 28c0 .74.109 1.454.297 2.135l-.222.128-1.482 1.433 1.5 2.598 1.982-.567.218-.126A7.994 7.994 0 0 0 11 35.738v.255l.5 2h3l.5-2v-.255a7.98 7.98 0 0 0 3.707-2.137l.218.126 1.982.567 1.5-2.598-1.482-1.433-.222-.128zM13 32a4 4 0 1 1 0-8 4 4 0 0 1 0 8z" fill="#2196f3"/><path d="M34.703 16.135A8.005 8.005 0 0 0 35 14c0-.743-.109-1.458-.298-2.141l.224-.129 1.482-1.433-1.5-2.598-1.982.567-.222.128A7.989 7.989 0 0 0 29 6.262V6l-.5-2h-3L25 6v.262a7.98 7.98 0 0 0-3.703 2.132l-.222-.128-1.982-.567-1.5 2.598 1.482 1.433.224.129A7.964 7.964 0 0 0 19 14c0 .74.109 1.454.297 2.135l-.222.128-1.482 1.433 1.5 2.598 1.982-.567.218-.126A7.994 7.994 0 0 0 25 21.738v.255l.5 2h3l.5-2v-.255a7.98 7.98 0 0 0 3.707-2.137l.218.126 1.982.567 1.5-2.598-1.482-1.433-.222-.128zM27 18a4 4 0 1 1 0-8 4 4 0 0 1 0 8z" fill="#3f51b5"/></svg>