<svg xmlns="http://www.w3.org/2000/svg" width="48" height="48"><path fill="#43A047" d="M44 33c0 5.523-4.477 10-10 10s-10-4.477-10-10 4.477-10 10-10 10 4.477 10 10"/><g fill="#FFF"><path d="M32 27h4v12h-4z"/><path d="M28 31h12v4H28z"/></g><g fill="#1976D2"><path d="M20.786 19.086c-2.9-2.899-2.889-7.63.025-10.544l1.452-1.451c2.914-2.914 7.644-2.926 10.544-.025 2.878 2.878 2.93 7.521.119 10.572l-1.508 1.511c-3.11 2.867-7.754 2.815-10.632-.063zm9.193-9.192c-1.341-1.34-3.533-1.329-4.888.025l-1.452 1.451c-1.354 1.354-1.365 3.547-.024 4.888 1.354 1.354 3.566 1.357 5.034.005l1.393-1.395c1.294-1.408 1.292-3.619-.063-4.974zM8.058 31.814c-2.9-2.9-2.889-7.631.024-10.544l1.452-1.452c2.914-2.914 7.644-2.925 10.544-.024 2.877 2.877 2.929 7.521.119 10.572l-1.509 1.511c-3.109 2.867-7.752 2.814-10.63-.063zm9.192-9.192c-1.341-1.341-3.533-1.329-4.888.024l-1.452 1.452c-1.354 1.354-1.365 3.547-.024 4.887 1.355 1.355 3.566 1.358 5.033.006l1.393-1.395c1.296-1.408 1.293-3.619-.062-4.974z"/></g><path fill="#42A5F5" d="M14.421 25.449a2 2 0 0 1 0-2.828l9.192-9.192a2 2 0 0 1 2.829 2.828l-9.192 9.192a2 2 0 0 1-2.829 0z"/></svg>