<svg xmlns="http://www.w3.org/2000/svg" width="48" height="48"><path fill="#FF9800" d="M36 31a5 5 0 0 1-5 5H5a5 5 0 0 1-5-5V5a5 5 0 0 1 5-5h26a5 5 0 0 1 5 5v26z"/><path fill="#FFF" d="M12 27.5c0-1.939-1.563-3.5-3.5-3.5S5 25.561 5 27.5a3.5 3.5 0 1 0 7 0z"/><path fill="none" stroke="#FFF" stroke-width="4" stroke-miterlimit="10" d="M5 17.001h1c7.405 0 13 5.594 13 12.999v1M5 7.001h1c12.713 0 23 10.286 23 22.999v1"/><g><path fill="#FF9800" d="M42 37a5 5 0 0 1-5 5H11a5 5 0 0 1-5-5V11a5 5 0 0 1 5-5h26a5 5 0 0 1 5 5v26z"/><path fill="#FFF" d="M18 33.5c0-1.939-1.563-3.5-3.5-3.5S11 31.561 11 33.5a3.5 3.5 0 1 0 7 0z"/><path fill="none" stroke="#FFF" stroke-width="4" stroke-miterlimit="10" d="M11 23.001h1c7.405 0 13 5.594 13 12.999v1M11 13.001h1c12.713 0 23 10.286 23 22.999v1"/></g><g><path fill="#FF9800" d="M48 43a5 5 0 0 1-5 5H17a5 5 0 0 1-5-5V17a5 5 0 0 1 5-5h26a5 5 0 0 1 5 5v26z"/><path fill="#FFF" d="M24 39.5c0-1.939-1.563-3.5-3.5-3.5S17 37.561 17 39.5a3.5 3.5 0 1 0 7 0z"/><path fill="none" stroke="#FFF" stroke-width="4" stroke-miterlimit="10" d="M17 29.001h1c7.405 0 13 5.594 13 12.999v1M17 19.001h1c12.713 0 23 10.286 23 22.999v1"/></g></svg>