<svg xmlns="http://www.w3.org/2000/svg" viewBox="0 0 48 48"><path fill="#9575CD" d="M34 12l-6-6h-8l-6 6h-3v28c0 2.2 1.8 4 4 4h18c2.2 0 4-1.8 4-4V12h-3z"/><g fill="#7454B3"><path d="M24.5 39h-1c-.8 0-1.5-.7-1.5-1.5v-19c0-.8.7-1.5 1.5-1.5h1c.8 0 1.5.7 1.5 1.5v19c0 .8-.7 1.5-1.5 1.5zM31.5 39c-.8 0-1.5-.7-1.5-1.5v-19c0-.8.7-1.5 1.5-1.5s1.5.7 1.5 1.5v19c0 .8-.7 1.5-1.5 1.5zM16.5 39c-.8 0-1.5-.7-1.5-1.5v-19c0-.8.7-1.5 1.5-1.5s1.5.7 1.5 1.5v19c0 .8-.7 1.5-1.5 1.5z"/></g><path fill="#B39DDB" d="M11 8h26c1.1 0 2 .9 2 2v2H9v-2c0-1.1.9-2 2-2z"/></svg>