<svg xmlns="http://www.w3.org/2000/svg" width="48" height="48"><path fill="#2196F3" d="M45 24c0 11.691-9.525 21-21 21-11.474 0-21-9.309-21-21S12.309 3 24 3s21 9.309 21 21"/><g fill="#CDDC39"><path d="M23.79 33.66c0-.42-.21-.63-.63-.84-1.26-.42-2.52-.42-3.57-1.471-.21-.42-.21-.84-.42-1.26-.42-.42-1.47-.63-2.1-.84h-4.2c-.63-.21-1.05-1.05-1.47-1.68 0-.21 0-.631-.42-.631-.42-.209-.84.211-1.26 0-.21-.209-.21-.42-.21-.629 0-.631.42-1.261.84-1.681.63-.42 1.26.21 1.89.21.21 0 .21 0 .42.21.63.21.84 1.05.84 1.681v.42c0 .21.21.21.42.21.21-1.05.21-2.101.42-3.15 0-1.26 1.26-2.521 2.31-2.94.42-.209.63.211 1.05 0 1.26-.42 4.41-1.68 3.78-3.359-.42-1.471-1.68-2.939-3.36-2.73-.42.211-.63.42-1.05.631-.63.42-1.89 1.68-2.52 1.68-1.05-.21-1.05-1.68-.84-2.311.21-.84 2.1-3.569 3.36-3.149l.84.84c.42.21 1.05.21 1.68.21.21 0 .42 0 .63-.21.21-.21.21-.21.21-.42 0-.63-.63-1.261-1.05-1.681s-1.05-.84-1.68-1.049c-2.1-.631-5.46.209-7.14 1.68-1.68 1.47-2.94 3.99-3.78 6.09-.42 1.26-.84 2.939-1.05 4.41-.21 1.05-.42 1.89.21 2.939.63 1.26 1.89 2.521 3.15 3.36.84.63 2.52.63 3.36 1.68.63.841.42 1.89.42 2.94 0 1.26.84 2.31 1.26 3.359.21.631.42 1.471.63 2.101 0 .21.21 1.47.21 1.68 1.26.63 2.31 1.261 3.78 1.681.21 0 1.05-1.261 1.05-1.471.63-.63 1.05-1.47 1.68-1.89.42-.21.84-.42 1.26-.841.42-.42.63-1.26.84-1.89.21-.419.42-1.259.21-1.889M24.21 14.34c.21 0 .42-.21.84-.42.63-.42 1.261-1.05 1.89-1.47.631-.42 1.261-1.05 1.681-1.47.63-.42 1.05-1.26 1.26-1.891.21-.42.841-1.26.63-1.89-.21-.42-1.26-.63-1.68-.84C27.15 5.939 25.68 5.73 24 5.73c-.63 0-1.47.209-1.68.84-.21 1.05.63.84 1.47 1.05 0 0 .21 1.68.21 1.89.21 1.051-.42 1.68-.42 2.73 0 .63 0 1.68.42 2.1h.21zM41.85 29.04c.211-.42.211-1.05.42-1.47.211-1.051.211-2.1.211-3.15 0-2.1-.211-4.199-.84-6.09-.42-.63-.631-1.26-.841-1.891-.42-1.049-1.05-2.1-1.89-2.939-.84-1.05-1.891-3.99-3.78-3.15-.63.211-1.05 1.051-1.47 1.471l-1.26 1.89c-.211.21-.42.63-.211.84 0 .21.211.21.42.21.42.211.631.211 1.051.42.21 0 .42.211.21.42 0 0 0 .211-.21.211-1.051 1.05-2.1 1.89-3.15 2.939-.21.21-.42.63-.42.84s.21.21.21.42c0 .211-.21.211-.42.42-.42.211-.84.42-1.05.631-.21.42 0 1.05-.21 1.47-.21 1.05-.841 1.89-1.261 2.94-.42.629-.629 1.26-1.049 1.89 0 .84-.211 1.47.209 2.1 1.051 1.47 2.94.63 4.41 1.261.42.209.84.209 1.051.629.629.631.629 1.681.84 2.311.209.84.42 1.68.84 2.52.21 1.051.63 2.101.84 2.94 1.891-1.47 3.57-3.149 4.83-5.25 1.26-1.473 1.891-3.152 2.52-4.833"/></g></svg>