<svg xmlns="http://www.w3.org/2000/svg" width="48" height="48"><path fill="#FFC107" d="M40 40H8a1.999 1.999 0 0 1-1.727-3.008l16-28a2 2 0 0 1 3.455 0l16 28A2.001 2.001 0 0 1 40 40z"/><path fill="#5D4037" d="M22 34.142c0-.269.047-.515.143-.746.094-.228.229-.426.403-.592.171-.168.382-.299.624-.393.244-.092.518-.141.824-.141.306 0 .582.049.828.141.25.094.461.225.632.393.175.166.31.364.403.592.096.231.143.477.143.746 0 .27-.047.516-.143.74a1.753 1.753 0 0 1-.403.588 1.84 1.84 0 0 1-.632.392 2.35 2.35 0 0 1-.828.138c-.307 0-.58-.046-.824-.139a1.882 1.882 0 0 1-.624-.392 1.724 1.724 0 0 1-.403-.588 1.855 1.855 0 0 1-.143-.739M25.48 30h-2.973l-.421-12H25.9l-.42 12z"/></svg>